<svg id="Pyramid" xmlns="http://www.w3.org/2000/svg" viewBox="0 0 1413 1048.67"><defs><style>.cls-1{fill:none;stroke:#000;stroke-miterlimit:10;stroke-width:4px;}</style></defs><title>landing-pyramid2</title><path class="cls-1" d="M966.94,207.62c5.34-1.32,8.16,1.83,6.26,7L784.79,727.23c-1.9,5.16-2.77,4.94-1.95-.5l54.77-362.07c.82-5.44-2.91-9-8.3-7.87L699.44,383.64c-5.39,1.11-9.12-2.43-8.3-7.87l44-291.66a12,12,0,0,1,11.49-9.85l117.71.43c5.5,0,8.8,4.38,7.32,9.67L830.5,232.19c-1.48,5.3,1.69,8.56,7,7.25Z" transform="translate(-106.64 30.1)"/><path class="cls-1" d="M952.73,217.89c5.34-1.31,8.16,1.84,6.26,7L770.58,737.51c-1.9,5.16-2.78,4.94-2-.5L823.4,374.93c.82-5.44-2.92-9-8.3-7.86L685.23,393.91c-5.39,1.12-9.12-2.42-8.3-7.86l44-291.66a12,12,0,0,1,11.57-9.85L850.21,85c5.5,0,8.79,4.37,7.32,9.67L816.32,242.47c-1.48,5.3,1.68,8.56,7,7.25Z" transform="translate(-106.64 30.1)"/><path d="M974.37,230.3c5.34-1.31,8.16,1.84,6.26,7L792.22,749.92c-1.9,5.16-2.78,4.94-2-.5L845,387.35c.82-5.44-2.92-9-8.3-7.87L706.87,406.33c-5.39,1.11-9.13-2.43-8.3-7.87l44-291.69a12,12,0,0,1,11.49-9.85l117.71.43c5.5,0,8.79,4.38,7.32,9.67L838,254.88c-1.48,5.3,1.68,8.56,7,7.25Z" transform="translate(-106.64 30.1)"/><path class="cls-1" d="M974.37,230.3c5.34-1.31,8.16,1.84,6.26,7L792.22,749.92c-1.9,5.16-2.78,4.94-2-.5L845,387.35c.82-5.44-2.92-9-8.3-7.87L706.87,406.33c-5.39,1.11-9.13-2.43-8.3-7.87l44-291.69a12,12,0,0,1,11.49-9.85l117.71.43c5.5,0,8.79,4.38,7.32,9.67L838,254.88c-1.48,5.3,1.68,8.56,7,7.25Z" transform="translate(-106.64 30.1)"/><path d="M622.72,7.29l4,2.11-.55,1.06-4-2.12Z" transform="translate(-106.64 30.1)"/><path d="M617.5,17.23l4,2.12L621,20.41l-4-2.12Z" transform="translate(-106.64 30.1)"/><path d="M604.87,23.43a15.16,15.16,0,0,0,4.27,3.18,15,15,0,0,0,5,1.71,18,18,0,0,0,4.81-.07l.06,1.1a18.87,18.87,0,0,1-5.2.12,17.52,17.52,0,0,1-9.7-5.1A19.13,19.13,0,0,1,601.24,20l1-.56A17.61,17.61,0,0,0,604.87,23.43Z" transform="translate(-106.64 30.1)"/><path d="M599.64,33.39a15.16,15.16,0,0,0,4.27,3.18,15,15,0,0,0,5,1.71,18,18,0,0,0,4.81-.07l.06,1.1a18.87,18.87,0,0,1-5.2.12,17.52,17.52,0,0,1-9.7-5.1A19.13,19.13,0,0,1,596,30l1-.56A17.61,17.61,0,0,0,599.64,33.39Z" transform="translate(-106.64 30.1)"/><path d="M593.71,41.6,596,42.79,594.81,45l-2.25-1.2Z" transform="translate(-106.64 30.1)"/><path d="M589.5,49.67l.93.49-1.19,2.26,7,3.66,1.19-2.26.93.49-1.75,3.32-1.1-.53a12.51,12.51,0,0,1-.81,4.44l-.2.23-1.1-.58.11-.22a12.56,12.56,0,0,0,.69-2.21,9.68,9.68,0,0,0,.3-2.14l-5.9-3.09-1.67,3.18-.93-.49Z" transform="translate(-106.64 30.1)"/><path d="M588.81,61.65a6,6,0,0,1,2.84,2.69,3.7,3.7,0,0,1-.25,3.39,3.65,3.65,0,0,1-2.53,2.1,5.24,5.24,0,0,1-3.44-.67l-.9-.55,3.2-6.08a4.43,4.43,0,0,0-2.68-.4,2.62,2.62,0,0,0-1.87,1.47,10.53,10.53,0,0,0-1,3.15l-1.09-.19a10.13,10.13,0,0,1,1-3.32,4.08,4.08,0,0,1,2.77-2.33A5.69,5.69,0,0,1,588.81,61.65Zm1.6,5.66c.88-1.67.29-3.1-1.75-4.3L586,68q3.13,1.65,4.38-.7Z" transform="translate(-106.64 30.1)"/><path d="M588.16,73.63l-.63,1.2-9.31-1.57-.18.36,6.62,6.67L584,81.48,576.71,74l1-2Z" transform="translate(-106.64 30.1)"/><path d="M578.37,81.52a6,6,0,0,1,2.84,2.7A3.74,3.74,0,0,1,581,87.6a3.66,3.66,0,0,1-2.53,2.11A5.31,5.31,0,0,1,575,89l-.9-.54,3.2-6.09a4.5,4.5,0,0,0-2.68-.39,2.62,2.62,0,0,0-1.87,1.47,10.53,10.53,0,0,0-1,3.15l-1.09-.19a10.13,10.13,0,0,1,1-3.32,4.12,4.12,0,0,1,2.85-2.35A5.7,5.7,0,0,1,578.37,81.52Zm1.6,5.67c.88-1.67.29-3.11-1.75-4.3l-2.63,5Q578.72,89.54,580,87.19Z" transform="translate(-106.64 30.1)"/><path d="M568.59,89.44l.93.49-1.19,2.26,7,3.66,1.19-2.26.93.49L575.7,97.4l-1.09-.53a10.66,10.66,0,0,1-.2,2.18,10.52,10.52,0,0,1-.62,2.26l-.11.22-1.1-.58.11-.22a12.56,12.56,0,0,0,.69-2.21,9.68,9.68,0,0,0,.3-2.14l-5.9-3.09-1.67,3.18-.93-.49Z" transform="translate(-106.64 30.1)"/><path d="M563.82,99.55l.83.76a12.6,12.6,0,0,0-2.21,2.72,3.13,3.13,0,0,0-.43,1.89,1.53,1.53,0,0,0,.85,1.2,1.41,1.41,0,0,0,1.31.09,6.35,6.35,0,0,0,1.68-1.59,6.07,6.07,0,0,1,2.07-1.73A2.24,2.24,0,0,1,570,103a2.13,2.13,0,0,1,1.23,1.8,4.88,4.88,0,0,1-.64,2.64,10.55,10.55,0,0,1-2.23,2.79l-.72-.74a11.47,11.47,0,0,0,2-2.45,3.87,3.87,0,0,0,.52-1.81,1.29,1.29,0,0,0-.69-1.12,1.24,1.24,0,0,0-1.26,0,7.64,7.64,0,0,0-1.78,1.67,5.87,5.87,0,0,1-2,1.67,2.43,2.43,0,0,1-2-.27,2.56,2.56,0,0,1-1.41-1.83,4.13,4.13,0,0,1,.56-2.75A12.73,12.73,0,0,1,563.82,99.55Z" transform="translate(-106.64 30.1)"/><path d="M562.69,111.36a5.91,5.91,0,0,1,2.84,2.7,3.71,3.71,0,0,1-.24,3.38,3.66,3.66,0,0,1-2.53,2.11,5.3,5.3,0,0,1-3.44-.68l-.9-.55,3.19-6.08a4.47,4.47,0,0,0-2.67-.39,2.6,2.6,0,0,0-1.87,1.46,10.31,10.31,0,0,0-1,3.16l-1.09-.19a10.19,10.19,0,0,1,1-3.33,4.17,4.17,0,0,1,2.78-2.33A5.69,5.69,0,0,1,562.69,111.36ZM564.3,117c.87-1.67.29-3.1-1.76-4.29l-2.63,5C562,118.83,563.47,118.6,564.3,117Z" transform="translate(-106.64 30.1)"/><path d="M552.55,122.57a15.28,15.28,0,0,1,5.26,1.76,15.1,15.1,0,0,1,4.44,3.33,18.81,18.81,0,0,1,2.86,4.35l-.94.58a18.25,18.25,0,0,0-2.67-4,14.9,14.9,0,0,0-4.26-3.17,15.06,15.06,0,0,0-5-1.71,17.47,17.47,0,0,0-4.79.08l-.08-1.11A19.12,19.12,0,0,1,552.55,122.57Z" transform="translate(-106.64 30.1)"/><path d="M547.44,132.77a15,15,0,0,0,4.27,3.18,15.29,15.29,0,0,0,5,1.71,17.94,17.94,0,0,0,4.8-.08l.07,1.1a18.13,18.13,0,0,1-5.2.12,17.41,17.41,0,0,1-9.71-5.09,19.69,19.69,0,0,1-2.87-4.36l1-.57A17.6,17.6,0,0,0,547.44,132.77Z" transform="translate(-106.64 30.1)"/><path d="M541.5,141l2.25,1.19-1.15,2.18-2.25-1.18Z" transform="translate(-106.64 30.1)"/><path d="M545.07,153.45l.91.48-2.72,5.17-9-4.74a3.21,3.21,0,0,1-1.7-1.91,5.26,5.26,0,0,1,.3-2.83c.15-.46.36-1.08.65-1.87l1,.39a17.54,17.54,0,0,0-.82,2.67,3.36,3.36,0,0,0-.05,1.14,2.12,2.12,0,0,0,1.14,1.36l8.11,4.26Zm1.65,5.43a.83.83,0,0,1,.46,1.09.72.72,0,0,1-.12.21.93.93,0,0,1-1.65-.87h0a.92.92,0,0,1,.57-.52,1,1,0,0,1,.74.09Z" transform="translate(-106.64 30.1)"/><path d="M536.66,160.89q4.55,2.37,2.56,6.19t-6.55,1.4q-4.56-2.4-2.56-6.19T536.66,160.89Zm1.59,5.68c.93-1.78.2-3.29-2.19-4.55s-4-1-5,.78-.2,3.29,2.19,4.55,4.07,1,5-.78Z" transform="translate(-106.64 30.1)"/><path d="M526.81,169l.93.49-1.53,2.9,7,3.67,1.52-2.91.93.49-2.08,4-7.9-4.15-1.52,2.9-.93-.49Zm10.15,8.5a.81.81,0,0,1,.45.54,1,1,0,0,1-.12.73.82.82,0,0,1-1,.48.75.75,0,0,1-.2-.1.8.8,0,0,1-.49-1,.94.94,0,0,1,.12-.22.85.85,0,0,1,1.08-.53A.7.7,0,0,1,537,177.47Z" transform="translate(-106.64 30.1)"/><path d="M530,184.43l-.77-.35a9.57,9.57,0,0,1-.82,3.65,2.84,2.84,0,0,1-1.87,1.56,3.72,3.72,0,0,1-2.61-.44L518,185.77l.55-1.05,5.89,3.09a2.63,2.63,0,0,0,1.76.32,2,2,0,0,0,1.33-1.13,10.14,10.14,0,0,0,.73-3.39l-7.15-3.76.55-1,8.83,4.64Z" transform="translate(-106.64 30.1)"/><path d="M516,192.15a17.27,17.27,0,0,1,9.7,5.1,18.46,18.46,0,0,1,2.85,4.35l-.94.57a17.64,17.64,0,0,0-2.66-4,14.86,14.86,0,0,0-4.26-3.16,14.55,14.55,0,0,0-5-1.71,17.47,17.47,0,0,0-4.79.07l-.08-1.11A19.12,19.12,0,0,1,516,192.15Z" transform="translate(-106.64 30.1)"/><path d="M518.31,206.07l4,2.12-.55,1.05-4-2.12Z" transform="translate(-106.64 30.1)"/><path d="M513.08,216l4,2.12-.55,1.05-4-2.12Z" transform="translate(-106.64 30.1)"/><path d="M500.5,222.23a17.17,17.17,0,0,0,9.29,4.89,18,18,0,0,0,4.81-.07l.06,1.1a18.87,18.87,0,0,1-5.2.12,17.39,17.39,0,0,1-9.7-5.1,19.13,19.13,0,0,1-2.87-4.36l1-.56A17.2,17.2,0,0,0,500.5,222.23Z" transform="translate(-106.64 30.1)"/><path d="M487.24,237.26l.93.48-1.07,2c-.32.61-.14,1.09.54,1.45s1.5.75,2.89,1.39,2.54,1.21,3.46,1.7l-.25,2.14.13.07,1.63-1.42c1,.54,2.16,1.17,3.4,1.91s2.07,1.21,2.48,1.43c.68.36,1.18.23,1.5-.38l1.08-2,.93.48-1.13,2.15a1.88,1.88,0,0,1-2.37,1.23,1.83,1.83,0,0,1-.49-.23c-.38-.2-1.11-.62-2.2-1.28s-2.16-1.26-3.2-1.81l-1.82,1.33-.94-.5.06-2.24c-.92-.49-2-1-3.25-1.58s-2.12-1-2.62-1.25a1.91,1.91,0,0,1-1.07-2.47,2,2,0,0,1,.26-.45Z" transform="translate(-106.64 30.1)"/><path d="M482.5,255.7l-1-.5,3.42-6.52,12.18,6.4-.57,1.09-11.23-5.9Z" transform="translate(-106.64 30.1)"/><path d="M479.82,258.43l.93.49-1.52,2.9,7,3.67,1.52-2.91.93.49-2.08,4-7.9-4.15-1.52,2.9-.93-.49Zm10.15,8.5a.82.82,0,0,1,.45.53,1,1,0,0,1-.12.74.82.82,0,0,1-1.05.48.75.75,0,0,1-.2-.1.8.8,0,0,1-.49-1,.94.94,0,0,1,.12-.22.85.85,0,0,1,1.08-.53A.7.7,0,0,1,490,266.93Z" transform="translate(-106.64 30.1)"/><path d="M474.74,268.11l.93.49-1.17,2.17,7,3.67,1.12-2.13.93.49-1.12,2.12q3.68,1.93,2.15,4.86a11.06,11.06,0,0,1-1.75,2.28l-.8-.73a11.31,11.31,0,0,0,1.58-2,1.86,1.86,0,0,0,.1-1.81,4.19,4.19,0,0,0-1.83-1.53l-2.1,4-.93-.49,2.1-4-7-3.66-2.12,4-.92-.49Z" transform="translate(-106.64 30.1)"/><path d="M463.79,291.54a15.14,15.14,0,0,1,5.27,1.77,15.41,15.41,0,0,1,4.44,3.33,18.77,18.77,0,0,1,2.85,4.35l-.94.57a17.35,17.35,0,0,0-2.67-4,17.11,17.11,0,0,0-9.3-4.87,17.39,17.39,0,0,0-4.78.07l-.08-1.1A19,19,0,0,1,463.79,291.54Z" transform="translate(-106.64 30.1)"/><path d="M468.07,302.25l-.62,1.19-9.31-1.56-.19.35,6.63,6.68L464,310.1l-7.32-7.52,1.05-2Z" transform="translate(-106.64 30.1)"/><path d="M452.14,310.77a3.86,3.86,0,0,1,1.9-1.92,2.72,2.72,0,0,1,2.42.2,2.65,2.65,0,0,1,1.5,2,4.25,4.25,0,0,1-.54,2.81,25.4,25.4,0,0,1-1.51,2.6,4.65,4.65,0,0,0,2.48.75c.56-.08,1.07-.56,1.54-1.45a11.59,11.59,0,0,0,1.05-3.45l1.09.19a11.91,11.91,0,0,1-1.12,3.67c-.69,1.31-1.43,2.05-2.22,2.23a5,5,0,0,1-3.23-.81l-3.9-2-1.5-.58.44-1.06,1.22.38a6.76,6.76,0,0,1-.07-1.68A4.16,4.16,0,0,1,452.14,310.77Zm1,.52a4,4,0,0,0-.41,1.83,6,6,0,0,0,.15,1.69l2.21,1.16c.52-.84,1-1.66,1.41-2.45a3.2,3.2,0,0,0,.46-2,1.69,1.69,0,0,0-1-1.27c-1.2-.71-2.15-.35-2.86,1Z" transform="translate(-106.64 30.1)"/><path d="M448.36,318.33l.93.49-1.6,3,10.52,5.53,1.54-3,.92.45-2.1,4-11.43-6-1.64,3.25-.93-.49Z" transform="translate(-106.64 30.1)"/><path d="M436.56,342.37a2.92,2.92,0,0,1,3.53,1.86,3,3,0,0,1-1.84,3.5,3,3,0,0,1-3.53-1.86,3,3,0,0,1,1.84-3.5Zm2.56,2.22a1.7,1.7,0,0,0-.93-1,1.72,1.72,0,0,0-1.38-.18,1.63,1.63,0,0,0-1,.85,1.6,1.6,0,0,0-.15,1.28,2,2,0,0,0,2.3,1.21,1.8,1.8,0,0,0,1.12-2.13Zm8.41,5.35-.58,1.11-9.47-12,.58-1.11Zm-1-8.74a2.92,2.92,0,0,1,3.54,1.86,3,3,0,0,1-1.84,3.49,2.93,2.93,0,0,1-3.53-1.85,3,3,0,0,1,1.83-3.5Zm2.56,2.22a1.68,1.68,0,0,0-.92-1,1.71,1.71,0,0,0-1.38-.18,1.71,1.71,0,0,0-.41,3.06l.19.1a1.67,1.67,0,0,0,2.38-.67,1.63,1.63,0,0,0,.15-1.31Z" transform="translate(-106.64 30.1)"/><path d="M432.5,361.77l.91.3-.54,1.54a5.81,5.81,0,0,0-.45,2.82,2.19,2.19,0,0,0,1.23,1.65,2,2,0,0,0,1.92.1,3.37,3.37,0,0,0,1.45-1.56,10,10,0,0,0,.81-3.53l1.07.09a11.28,11.28,0,0,1-.33,2.16,7.53,7.53,0,0,1-.64,1.89,4.72,4.72,0,0,1-2.08,2.22,3.49,3.49,0,0,1-4.11-1.5,4.36,4.36,0,0,1-.29-2.05h0a3.14,3.14,0,0,1-4.32.86q-3.44-1.83-1.27-5.92a13.44,13.44,0,0,1,2.73-3.41l.76.86a11.87,11.87,0,0,0-2.51,3,4,4,0,0,0-.53,2.51,2.46,2.46,0,0,0,1.44,1.77,2.64,2.64,0,0,0,2.19.29,3.65,3.65,0,0,0,1.69-1.8Z" transform="translate(-106.64 30.1)"/><path d="M420,379.77l.82.43-3.12,5.94-.82-.43Zm3.12,1.64.82.43-3.12,5.93-.82-.43Z" transform="translate(-106.64 30.1)"/><path d="M414.74,389.7l.82.43-3.12,5.94-.82-.43Zm3.12,1.64.82.43-3.12,5.94-.82-.43Z" transform="translate(-106.64 30.1)"/><path d="M409.5,399.64l.81.43L407.19,406l-.81-.43Zm3.12,1.64.82.43-3.12,5.94-.82-.43Z" transform="translate(-106.64 30.1)"/><path d="M402.5,420.08c2.17,1.15,3.57,2.26,4.18,3.35a4.21,4.21,0,0,1-2.17,5.54,4,4,0,0,1-.89.28,10.26,10.26,0,0,1-5.12-1.55c-2.18-1.15-3.58-2.26-4.21-3.35a4.2,4.2,0,0,1,2.14-5.54,3.65,3.65,0,0,1,.92-.29C398.58,418.42,400.29,418.94,402.5,420.08Zm-4.89-.24a2.53,2.53,0,0,0-2.08,4,16.23,16.23,0,0,0,7.85,4.15,2.25,2.25,0,0,0,2.2-1.38,2.29,2.29,0,0,0-.12-2.61,11.26,11.26,0,0,0-3.62-2.6,11.41,11.41,0,0,0-4.26-1.56Z" transform="translate(-106.64 30.1)"/><path d="M390,438.3a3.71,3.71,0,0,1,1.71,1.54,4.33,4.33,0,0,1,.4,2.07,4,4,0,0,1,2.84.33q3.24,1.68,1.36,5.28a11.57,11.57,0,0,1-1.19,1.76l-.26.32-.87-.69a10.56,10.56,0,0,0,1.35-1.9,3.16,3.16,0,0,0,.47-2.2,2.53,2.53,0,0,0-1.39-1.48,3.42,3.42,0,0,0-2.45-.3l-3.16,6-.95-.5,1-1.87-5.95-3.12a13.14,13.14,0,0,1,1.15-3.18Q386.16,436.29,390,438.3Zm.76,4.73c.81-1.53.31-2.78-1.5-3.73a3,3,0,0,0-2.41-.34,3.94,3.94,0,0,0-1.88,2,8.29,8.29,0,0,0-.74,2l5.16,2.72Z" transform="translate(-106.64 30.1)"/><path d="M384.75,448.24a3.77,3.77,0,0,1,1.75,1.53,4.33,4.33,0,0,1,.4,2.07,3.89,3.89,0,0,1,2.84.32c2.15,1.14,2.61,2.9,1.35,5.28a10.82,10.82,0,0,1-1.18,1.76l-.26.32-.88-.69a10.13,10.13,0,0,0,1.36-1.9,3.22,3.22,0,0,0,.47-2.2,2.46,2.46,0,0,0-1.39-1.47,3.32,3.32,0,0,0-2.45-.3l-3.16,6-1-.5,1-1.87-5.95-3.12a13.14,13.14,0,0,1,1.15-3.18C380.24,447.59,382.21,446.9,384.75,448.24Zm.76,4.74c.81-1.54.31-2.78-1.5-3.74a2.89,2.89,0,0,0-2.41-.33,3.83,3.83,0,0,0-1.88,2,8.75,8.75,0,0,0-.75,2l5.17,2.72Z" transform="translate(-106.64 30.1)"/><path d="M379.32,471.21l-.62,1.19-9.31-1.56-.19.35,6.63,6.68-.63,1.19-7.32-7.52,1.05-2Z" transform="translate(-106.64 30.1)"/><path d="M363.38,479.7a3.86,3.86,0,0,1,1.9-1.92,2.75,2.75,0,0,1,2.42.21,2.67,2.67,0,0,1,1.51,2,4.29,4.29,0,0,1-.55,2.8,25.63,25.63,0,0,1-1.51,2.61,4.77,4.77,0,0,0,2.49.74c.55-.08,1.07-.56,1.53-1.45a11.61,11.61,0,0,0,1.06-3.45l1.08.19a11.91,11.91,0,0,1-1.12,3.67c-.69,1.31-1.43,2.06-2.22,2.23a5,5,0,0,1-3.22-.8l-3.91-2-1.5-.59.44-1.06,1.22.39a7.37,7.37,0,0,1-.07-1.69A4.45,4.45,0,0,1,363.38,479.7Zm1,.53a4,4,0,0,0-.4,1.83,5.94,5.94,0,0,0,.14,1.68l2.21,1.17c.53-.85,1-1.66,1.41-2.46a3.2,3.2,0,0,0,.47-2,1.74,1.74,0,0,0-1-1.26c-1.2-.67-2.16-.31-2.87,1Z" transform="translate(-106.64 30.1)"/><path d="M359.61,487.3l.93.48-1.6,3,10.56,5.57,1.54-3,.92.46-2.1,4-11.43-6L356.78,495l-.93-.49Z" transform="translate(-106.64 30.1)"/><path d="M354.43,517.88l-.84-.75a8.54,8.54,0,0,0,1.61-2.07,2.82,2.82,0,0,0,.18-2.63,4.81,4.81,0,0,0-2.24-2.08,4.91,4.91,0,0,0-3-.67,2.77,2.77,0,0,0-2.1,1.61,8.92,8.92,0,0,0-.77,2.64l-1.09-.17a9,9,0,0,1,.89-3,4.13,4.13,0,0,1,2.78-2.34,5.78,5.78,0,0,1,3.94.75,5.52,5.52,0,0,1,2.8,2.77,4.25,4.25,0,0,1-.4,3.59A9.39,9.39,0,0,1,354.43,517.88Z" transform="translate(-106.64 30.1)"/><path d="M348.71,518.71q4.55,2.37,2.56,6.19t-6.55,1.4q-4.56-2.4-2.56-6.19T348.71,518.71Zm1.59,5.68c.93-1.78.2-3.29-2.19-4.55s-4.05-1-5,.78-.2,3.29,2.19,4.55S349.37,526.16,350.3,524.39Z" transform="translate(-106.64 30.1)"/><path d="M347.22,532.32l-.76-.35a9.39,9.39,0,0,1-.83,3.65,2.87,2.87,0,0,1-1.86,1.57,3.7,3.7,0,0,1-2.62-.45l-5.89-3.09.55-1.06,5.9,3.1a2.67,2.67,0,0,0,1.75.31,1.93,1.93,0,0,0,1.33-1.12,10.16,10.16,0,0,0,.74-3.4l-7.16-3.71.56-1,8.83,4.64Z" transform="translate(-106.64 30.1)"/><path d="M334.11,536.88l.83.77a11.82,11.82,0,0,0-2.21,2.72,3.09,3.09,0,0,0-.44,1.88,1.56,1.56,0,0,0,.86,1.2,1.39,1.39,0,0,0,1.31.09,6.52,6.52,0,0,0,1.68-1.59,6,6,0,0,1,2.07-1.72,2.43,2.43,0,0,1,3.29,1.94,4.72,4.72,0,0,1-.65,2.64,10.72,10.72,0,0,1-2.22,2.79l-.73-.74a11,11,0,0,0,2-2.45,3.73,3.73,0,0,0,.53-1.8,1.26,1.26,0,0,0-.7-1.13,1.24,1.24,0,0,0-1.26,0,7.59,7.59,0,0,0-1.77,1.67,5.87,5.87,0,0,1-2,1.67,2.45,2.45,0,0,1-2.06-.27,2.56,2.56,0,0,1-1.41-1.83,4.12,4.12,0,0,1,.57-2.74A12.78,12.78,0,0,1,334.11,536.88Z" transform="translate(-106.64 30.1)"/><path d="M336.36,550.17l.93.49-1,1.93,2.21,1.18-.37,1.15-2.43-1.28-2.39,4.55-.93-.49,2.39-4.55-4.24-2.23a4.05,4.05,0,0,0-2.27-.62,2.09,2.09,0,0,0-1.46,1.28,8.77,8.77,0,0,0-.57,1.42,9.5,9.5,0,0,0-.41,1.38l-1-.24a17.34,17.34,0,0,1,1.07-3.06,3.3,3.3,0,0,1,2.17-2,5,5,0,0,1,3,.75l4.27,2.25Z" transform="translate(-106.64 30.1)"/><path d="M326.77,571.26l-.59-.23a3.64,3.64,0,0,1-.13,1.88,2.22,2.22,0,0,1-1.75,1.39,3.94,3.94,0,0,1-.23,2.37,2.22,2.22,0,0,1-1.67,1.38,5.06,5.06,0,0,1-2.54-.73l-5.91-3.1.55-1.06,5.92,3.11a4.8,4.8,0,0,0,1.69.59,1,1,0,0,0,1-.65,3.92,3.92,0,0,0,.29-2,8.5,8.5,0,0,1-1.55-.66l-3.09-1.62.55-1.06,3.09,1.62a4.25,4.25,0,0,0,1.69.58,1.08,1.08,0,0,0,1-.66,3.3,3.3,0,0,0,.22-1.86l-7.4-3.89.55-1,8.83,4.64Z" transform="translate(-106.64 30.1)"/><path d="M311.19,579.08a3.84,3.84,0,0,1,1.89-1.92,2.69,2.69,0,0,1,2.42.2,2.64,2.64,0,0,1,1.51,2,4.32,4.32,0,0,1-.55,2.81,25.4,25.4,0,0,1-1.51,2.6,4.69,4.69,0,0,0,2.49.75c.56-.08,1.07-.56,1.53-1.45a11.61,11.61,0,0,0,1.06-3.45l1.08.19a11.91,11.91,0,0,1-1.12,3.67c-.69,1.31-1.43,2-2.21,2.23a5,5,0,0,1-3.23-.81l-3.91-2.13-1.49-.58.44-1.06,1.22.38a6.32,6.32,0,0,1-.08-1.68A4.25,4.25,0,0,1,311.19,579.08Zm.95.52a4,4,0,0,0-.4,1.83,6.9,6.9,0,0,0,.14,1.69l2.22,1.16c.52-.84,1-1.66,1.4-2.45a3.2,3.2,0,0,0,.47-2,1.77,1.77,0,0,0-1-1.27C313.81,577.89,312.85,578.25,312.14,579.6Z" transform="translate(-106.64 30.1)"/><path d="M315.9,592l-.76-.35a9.39,9.39,0,0,1-.83,3.65,2.88,2.88,0,0,1-1.87,1.57,3.66,3.66,0,0,1-2.61-.45l-5.89-3.09.55-1.06,5.9,3.1a2.67,2.67,0,0,0,1.75.31,2,2,0,0,0,1.33-1.12,10.16,10.16,0,0,0,.74-3.39l-7.16-3.76.55-1.06,8.83,4.64Z" transform="translate(-106.64 30.1)"/><path d="M302.3,596.4l.93.49-1.53,2.88,7,3.66,1.53-2.9.93.49-2.08,4-7.9-4.15-1.52,2.9-.93-.49Zm10.15,8.5a.85.85,0,0,1,.45.53,1,1,0,0,1-.12.74.82.82,0,0,1-1,.48.75.75,0,0,1-.2-.1.8.8,0,0,1-.49-1,.94.94,0,0,1,.12-.22.86.86,0,0,1,1.06-.57.76.76,0,0,1,.28.15Z" transform="translate(-106.64 30.1)"/><path d="M293.58,604.34l10.8,5.67,1.71.67-.41,1.05-1.1-.34a5.62,5.62,0,0,1-.47,3.28,3.75,3.75,0,0,1-2.61,2.1,5.86,5.86,0,0,1-3.84-.77,5.6,5.6,0,0,1-2.78-2.83,4.25,4.25,0,0,1,.34-3.63,7.09,7.09,0,0,1,1.75-2.1l-3.91-2Zm4.61,10.51a5.08,5.08,0,0,0,3,.7,2.49,2.49,0,0,0,2-1.42,5.13,5.13,0,0,0,.35-3.23L298,608a6.9,6.9,0,0,0-1,.95,5.37,5.37,0,0,0-.8,1.09,2.94,2.94,0,0,0-.18,2.69,4.57,4.57,0,0,0,2.21,2.15Z" transform="translate(-106.64 30.1)"/><path d="M288.82,622.06l.79.36a8.41,8.41,0,0,1,.74-3.67,2.87,2.87,0,0,1,1.87-1.58,3.64,3.64,0,0,1,2.62.44l6,3.13-.56,1-6-3.13a2.65,2.65,0,0,0-1.74-.32,1.93,1.93,0,0,0-1.33,1.12,9.13,9.13,0,0,0-.64,3.47l7.1,3.73-.55,1L288.29,623Z" transform="translate(-106.64 30.1)"/><path d="M286.5,626.44l.93.49-1.6,3,10.52,5.53,1.54-3,.92.46-2.1,4-11.43-6-1.65,3.14-.93-.49Z" transform="translate(-106.64 30.1)"/><path d="M279.86,638.77a3.84,3.84,0,0,1,1.89-1.92,2.79,2.79,0,0,1,2.42.2,2.67,2.67,0,0,1,1.51,2,4.26,4.26,0,0,1-.55,2.81,29.29,29.29,0,0,1-1.51,2.6,4.69,4.69,0,0,0,2.49.75c.56-.08,1.07-.56,1.54-1.45a12,12,0,0,0,1.05-3.45l1.09.19a11.51,11.51,0,0,1-1.13,3.67c-.68,1.31-1.42,2.06-2.21,2.23a5.11,5.11,0,0,1-3.23-.8l-3.91-2.06-1.49-.58.44-1.06,1.22.39a7.37,7.37,0,0,1-.08-1.69A4.17,4.17,0,0,1,279.86,638.77Zm.95.53a4.14,4.14,0,0,0-.4,1.83,6,6,0,0,0,.15,1.68l2.21,1.16c.52-.84,1-1.66,1.41-2.45a3.2,3.2,0,0,0,.46-2,1.74,1.74,0,0,0-1-1.26c-1.14-.72-2.14-.36-2.83,1Z" transform="translate(-106.64 30.1)"/><path d="M284.14,649.57l.93.49-1,1.93,2.25,1.18-.37,1.15L283.5,653l-2.39,4.55-.93-.48,2.39-4.56-4.24-2.22a4,4,0,0,0-2.27-.63,2.12,2.12,0,0,0-1.47,1.28,11.69,11.69,0,0,0-.57,1.42,9.59,9.59,0,0,0-.4,1.39l-1-.24a10.31,10.31,0,0,1,.45-1.53,12.08,12.08,0,0,1,.62-1.54,3.27,3.27,0,0,1,2.16-2,5,5,0,0,1,3,.75l4.28,2.25Z" transform="translate(-106.64 30.1)"/><path d="M275.55,658a5.8,5.8,0,0,1,2.84,2.69,3.73,3.73,0,0,1-.24,3.39,3.67,3.67,0,0,1-2.53,2.1,5.18,5.18,0,0,1-3.44-.68l-.9-.54,3.19-6.08a4.4,4.4,0,0,0-2.67-.4,2.63,2.63,0,0,0-1.88,1.47,10.53,10.53,0,0,0-1,3.15l-1.09-.19a10.13,10.13,0,0,1,1-3.32,4.1,4.1,0,0,1,2.78-2.33A5.67,5.67,0,0,1,275.55,658Zm1.61,5.66c.87-1.67.29-3.1-1.76-4.3l-2.63,5q3.15,1.65,4.39-.7Z" transform="translate(-106.64 30.1)"/><path d="M274.5,679.31l-10.8-5.67L262,673l.42-1.08,1.09.32A5.76,5.76,0,0,1,264,669a3.77,3.77,0,0,1,2.67-2.11,5.92,5.92,0,0,1,3.86.77,5.47,5.47,0,0,1,2.75,2.85,4.3,4.3,0,0,1-.35,3.62,7.32,7.32,0,0,1-1.74,2.1l3.9,2Zm-4.58-10.54a5.16,5.16,0,0,0-3-.69,2.53,2.53,0,0,0-2,1.45,4.77,4.77,0,0,0-.33,3.2l5.57,2.93a7.49,7.49,0,0,0,1-.95,6.11,6.11,0,0,0,.8-1.09,3.06,3.06,0,0,0,.19-2.7A4.45,4.45,0,0,0,269.92,668.77Z" transform="translate(-106.64 30.1)"/><path d="M261.23,674.59l10.21,10.18-1,1.9-14.07-2.8.62-1.17,3.23.66,2.77-5.27-2.37-2.32Zm.06,9,8.64,1.8.18-.34-6.34-6.19Z" transform="translate(-106.64 30.1)"/><path d="M255.33,685.77l.93.49-1.19,2.27,7,3.66,1.2-2.27.93.49-1.78,3.36-1.1-.53a10.65,10.65,0,0,1-.19,2.18,11.41,11.41,0,0,1-.62,2.27l-.12.21-1.09-.57.11-.22a12.56,12.56,0,0,0,.69-2.21,9.12,9.12,0,0,0,.29-2.14l-5.89-3.1-1.67,3.18-.93-.49Z" transform="translate(-106.64 30.1)"/><path d="M250.12,695.77l.93.48-1.19,2.27,7,3.66,1.19-2.26.93.48-1.75,3.32-1.1-.52a10.65,10.65,0,0,1-.19,2.18,10.52,10.52,0,0,1-.62,2.26l-.11.22-1.1-.58.11-.22a12.56,12.56,0,0,0,.69-2.21,9.12,9.12,0,0,0,.29-2.14l-5.89-3.1-1.7,3.16-.93-.48Z" transform="translate(-106.64 30.1)"/><path d="M242.5,717.69l.81.43-3.12,5.94-.82-.43Zm3.12,1.64.82.43-3.12,5.94-.82-.42Z" transform="translate(-106.64 30.1)"/><path d="M238.36,739.59l-.63,1.19-9.31-1.57-.18.36,6.62,6.67-.63,1.2-7.31-7.52,1-2Z" transform="translate(-106.64 30.1)"/><path d="M222.42,748.07a3.92,3.92,0,0,1,1.9-1.91,2.7,2.7,0,0,1,2.41.2,2.64,2.64,0,0,1,1.51,2,4.22,4.22,0,0,1-.55,2.8c-.46.89-1,1.76-1.51,2.61a4.69,4.69,0,0,0,2.49.75c.56-.08,1.07-.57,1.54-1.45a12.3,12.3,0,0,0,1-3.45l1.09.18a11.64,11.64,0,0,1-1.13,3.68c-.68,1.31-1.42,2-2.21,2.23a5,5,0,0,1-3.23-.81l-3.9-2-1.5-.58.44-1.07,1.22.39a7.37,7.37,0,0,1-.08-1.69A4.33,4.33,0,0,1,222.42,748.07Zm1,.53a4.14,4.14,0,0,0-.4,1.83,6,6,0,0,0,.15,1.69l2.21,1.16c.52-.84,1-1.66,1.41-2.45a3.2,3.2,0,0,0,.46-2,1.69,1.69,0,0,0-1-1.27c-1.21-.67-2.17-.31-2.88,1Z" transform="translate(-106.64 30.1)"/><path d="M218.64,755.67l.93.49-1.6,3,10.53,5.61,1.53-3,.92.45-2.1,4-11.43-6-1.65,3.14-.93-.49Z" transform="translate(-106.64 30.1)"/><path d="M212.59,767.19l2.25,1.18-1.15,2.19-2.25-1.19Z" transform="translate(-106.64 30.1)"/><path d="M217.14,780l-.59-.23a3.64,3.64,0,0,1-.13,1.88,2.25,2.25,0,0,1-1.75,1.39,3.9,3.9,0,0,1-.23,2.36,2.22,2.22,0,0,1-1.67,1.38,4.83,4.83,0,0,1-2.54-.72l-5.91-3.11.55-1,5.92,3.1a4.43,4.43,0,0,0,1.69.59,1,1,0,0,0,1-.64,3.92,3.92,0,0,0,.29-2,8.5,8.5,0,0,1-1.55-.66l-3.09-1.62.55-1,3.09,1.62a4.53,4.53,0,0,0,1.73.45,1.08,1.08,0,0,0,1-.66,3.3,3.3,0,0,0,.22-1.86l-7.4-3.89.55-1L217.7,779Z" transform="translate(-106.64 30.1)"/><path d="M201.5,787.82a3.86,3.86,0,0,1,1.9-1.92,2.75,2.75,0,0,1,2.42.21,2.71,2.71,0,0,1,1.51,2,4.29,4.29,0,0,1-.55,2.8,25.63,25.63,0,0,1-1.51,2.61,4.73,4.73,0,0,0,2.48.74c.56-.08,1.07-.56,1.54-1.45a11.58,11.58,0,0,0,1-3.45l1.09.19a11.91,11.91,0,0,1-1.12,3.67c-.69,1.31-1.43,2.06-2.22,2.23a5.11,5.11,0,0,1-3.23-.8l-3.9-2-1.5-.59.44-1.06,1.22.39a6.84,6.84,0,0,1-.07-1.69A4.31,4.31,0,0,1,201.5,787.82Zm1,.53a4,4,0,0,0-.41,1.83,6,6,0,0,0,.15,1.68l2.21,1.17c.52-.85,1-1.66,1.41-2.46a3.27,3.27,0,0,0,.47-2,1.74,1.74,0,0,0-1-1.26C204.16,786.64,203.21,787,202.5,788.35Z" transform="translate(-106.64 30.1)"/><path d="M194.38,793.19l10.8,5.68,1.71.67-.41,1.05-1.1-.35a5.61,5.61,0,0,1-.46,3.28,3.79,3.79,0,0,1-2.65,2.11,5.87,5.87,0,0,1-3.84-.78,5.52,5.52,0,0,1-2.78-2.83,4.23,4.23,0,0,1,.33-3.62,7.09,7.09,0,0,1,1.75-2.1l-3.91-2.06ZM199,803.71a5.15,5.15,0,0,0,3,.7,2.52,2.52,0,0,0,2-1.43,5.13,5.13,0,0,0,.34-3.23l-5.58-2.93a7.27,7.27,0,0,0-1,1,5.37,5.37,0,0,0-.8,1.09,3,3,0,0,0-.18,2.69A4.64,4.64,0,0,0,199,803.71Z" transform="translate(-106.64 30.1)"/><path d="M192.3,808.41a17.3,17.3,0,0,1,9.71,5.1,19.32,19.32,0,0,1,2.85,4.35l-.94.57a17.35,17.35,0,0,0-2.67-4,17.11,17.11,0,0,0-9.3-4.87,17.39,17.39,0,0,0-4.78.07l-.09-1.11A19,19,0,0,1,192.3,808.41Z" transform="translate(-106.64 30.1)"/><path d="M187.59,814.77l.93.48-1.16,2.21,7,3.66,1.12-2.12.93.48-1.12,2.13c2.46,1.29,3.17,2.91,2.15,4.86a12.4,12.4,0,0,1-1.74,2.28l-.81-.73a11.68,11.68,0,0,0,1.58-2,1.88,1.88,0,0,0,.11-1.81,4.31,4.31,0,0,0-1.84-1.54l-2.1,4-.93-.49,2.1-4-7-3.67-2.12,4-.93-.49Z" transform="translate(-106.64 30.1)"/><path d="M179.18,830.77l.79.36a8.41,8.41,0,0,1,.74-3.67,2.87,2.87,0,0,1,1.87-1.58,3.64,3.64,0,0,1,2.62.44l6,3.13-.56,1-6-3.13a2.64,2.64,0,0,0-1.74-.31,1.89,1.89,0,0,0-1.33,1.11,9.33,9.33,0,0,0-.64,3.47l7.11,3.73-.56,1-8.83-4.55Z" transform="translate(-106.64 30.1)"/><path d="M185.37,840.46l-.76-.35a9.39,9.39,0,0,1-.83,3.65,2.88,2.88,0,0,1-1.87,1.57,3.78,3.78,0,0,1-2.61-.45l-5.89-3.1.55-1,5.9,3.1a2.67,2.67,0,0,0,1.75.31,2,2,0,0,0,1.33-1.13,10.16,10.16,0,0,0,.74-3.39l-7.18-3.81.55-1.05,8.83,4.64Z" transform="translate(-106.64 30.1)"/><path d="M176.92,855.82l-.84-.75a8.3,8.3,0,0,0,1.61-2.07,2.85,2.85,0,0,0,.19-2.63,4.83,4.83,0,0,0-2.25-2.08,4.91,4.91,0,0,0-3-.67,2.77,2.77,0,0,0-2.09,1.61,8.36,8.36,0,0,0-.77,2.64l-1.1-.17a9,9,0,0,1,.89-3,4.23,4.23,0,0,1,2.78-2.34,5.78,5.78,0,0,1,3.94.75,5.52,5.52,0,0,1,2.8,2.77,4.25,4.25,0,0,1-.4,3.59A9.39,9.39,0,0,1,176.92,855.82Z" transform="translate(-106.64 30.1)"/><path d="M174.5,858.31l.93.49-1,1.93,2.25,1.18-.37,1.15-2.45-1.29-2.36,4.56-.93-.48,2.39-4.56-4.23-2.22a4,4,0,0,0-2.28-.62,2.08,2.08,0,0,0-1.46,1.27,11.69,11.69,0,0,0-.57,1.42,11.09,11.09,0,0,0-.41,1.39l-1-.24a8.93,8.93,0,0,1,.44-1.53,13.75,13.75,0,0,1,.62-1.54,3.36,3.36,0,0,1,2.17-2,5,5,0,0,1,3,.75l4.28,2.25Z" transform="translate(-106.64 30.1)"/><path d="M161.33,864.77l.93.48-1.52,2.9,7,3.67,1.52-2.9.93.48-2.08,4-7.9-4.15-1.52,2.9-.93-.49Zm10.15,8.5a.81.81,0,0,1,.46.53,1,1,0,0,1-.13.73.82.82,0,0,1-1,.49l-.2-.11a.79.79,0,0,1-.5-1,1,1,0,0,1,.12-.23.84.84,0,0,1,1.06-.53.75.75,0,0,1,.25.13Z" transform="translate(-106.64 30.1)"/><path d="M160.75,876.54q4.56,2.37,2.56,6.19t-6.55,1.4q-4.55-2.4-2.56-6.19T160.75,876.54Zm1.6,5.68c.93-1.78.2-3.29-2.19-4.55s-4.06-1-5,.78-.2,3.29,2.19,4.55S161.41,884,162.35,882.22Z" transform="translate(-106.64 30.1)"/><path d="M159.27,890.15l-.77-.38a9.39,9.39,0,0,1-.83,3.65A2.84,2.84,0,0,1,155.8,895a3.72,3.72,0,0,1-2.61-.44l-5.89-3.1.55-1.05,5.9,3.09a2.61,2.61,0,0,0,1.75.32,2,2,0,0,0,1.33-1.13,10.16,10.16,0,0,0,.74-3.39l-7.16-3.76.55-1,8.83,4.63Z" transform="translate(-106.64 30.1)"/><path d="M145.32,897.86a15.28,15.28,0,0,1,5.26,1.76A15.1,15.1,0,0,1,155,903a18.81,18.81,0,0,1,2.86,4.35l-.95.58a17.64,17.64,0,0,0-2.66-4,14.9,14.9,0,0,0-4.26-3.17,15.06,15.06,0,0,0-5-1.71,17.47,17.47,0,0,0-4.79.08l-.08-1.11A19.12,19.12,0,0,1,145.32,897.86Z" transform="translate(-106.64 30.1)"/><path d="M149.6,908.56l-.62,1.19-9.31-1.57-.19.36,6.63,6.67-.63,1.2-7.32-7.52,1.05-2Z" transform="translate(-106.64 30.1)"/><path d="M133.67,917a3.86,3.86,0,0,1,1.9-1.92,2.75,2.75,0,0,1,2.42.21,2.71,2.71,0,0,1,1.51,2,4.29,4.29,0,0,1-.55,2.8,25.63,25.63,0,0,1-1.51,2.61,4.77,4.77,0,0,0,2.49.74c.55-.08,1.06-.56,1.53-1.45a11.29,11.29,0,0,0,1-3.45l1.09.19a11.91,11.91,0,0,1-1.12,3.67c-.69,1.31-1.43,2.06-2.22,2.23a5.11,5.11,0,0,1-3.23-.8l-3.9-2-1.5-.59.44-1.06,1.22.39a6.84,6.84,0,0,1-.07-1.69A4.25,4.25,0,0,1,133.67,917Zm1,.53a4,4,0,0,0-.41,1.83,6,6,0,0,0,.15,1.68l2.21,1.17c.52-.85,1-1.66,1.41-2.46a3.27,3.27,0,0,0,.47-2,1.74,1.74,0,0,0-1-1.26c-1.21-.67-2.16-.31-2.87,1Z" transform="translate(-106.64 30.1)"/><path d="M129.89,924.63l.93.49-1.6,3,10.53,5.53,1.53-3,.92.46-2.1,4-11.43-6L127,932.25l-.93-.49Z" transform="translate(-106.64 30.1)"/><path d="M121.76,940.11l.78.36a8.69,8.69,0,0,1,.74-3.66,2.89,2.89,0,0,1,1.88-1.58,3.56,3.56,0,0,1,2.61.43l6,3.13-.55,1.05-6-3.12a2.58,2.58,0,0,0-1.74-.32,1.89,1.89,0,0,0-1.33,1.11,9.33,9.33,0,0,0-.64,3.47l7.1,3.73-.55,1.06-8.83-4.64Z" transform="translate(-106.64 30.1)"/><path d="M124.14,946.28A5.91,5.91,0,0,1,127,949a3.71,3.71,0,0,1-.24,3.38,3.66,3.66,0,0,1-2.53,2.11,5.3,5.3,0,0,1-3.44-.68l-.9-.55,3.19-6.08a4.47,4.47,0,0,0-2.67-.39,2.64,2.64,0,0,0-1.88,1.46,10.89,10.89,0,0,0-1,3.16l-1.08-.19a10.19,10.19,0,0,1,1-3.33,4.17,4.17,0,0,1,2.78-2.33A5.69,5.69,0,0,1,124.14,946.28Zm1.61,5.66c.87-1.67.29-3.1-1.76-4.29l-2.63,5C123.45,953.75,124.92,953.52,125.75,951.94Z" transform="translate(-106.64 30.1)"/><path d="M114.1,957.77a15.35,15.35,0,0,0,4.28,3.18,15,15,0,0,0,5,1.71,18,18,0,0,0,4.81-.07l.06,1.1a18.8,18.8,0,0,1-5.19.12,17.3,17.3,0,0,1-9.71-5.1,19.13,19.13,0,0,1-2.87-4.36l1-.56A17.8,17.8,0,0,0,114.1,957.77Z" transform="translate(-106.64 30.1)"/><path d="M961-25.31l.93-.5,1.59,2.87,6.91-3.78-1.57-2.87.92-.51,2.14,3.92-7.83,4.29L965.64-19l-.92.5ZM973.68-29a.79.79,0,0,1,.7-.09,1.07,1.07,0,0,1,.54.51.81.81,0,0,1-.18,1.14.72.72,0,0,1-.19.11.8.8,0,0,1-1.12-.15.94.94,0,0,1-.12-.22.86.86,0,0,1,.17-1.19A.78.78,0,0,1,973.68-29Z" transform="translate(-106.64 30.1)"/><path d="M966.22-15.74l.92-.5L968.33-14l6.91-3.78-1.15-2.11.92-.5,1.15,2.11c2.44-1.33,4.18-1,5.24.9a11.73,11.73,0,0,1,.93,2.71l-1.05.27a10.82,10.82,0,0,0-.8-2.43A1.84,1.84,0,0,0,979-18a4.15,4.15,0,0,0-2.29.68l2.16,4-.92.5-2.17-4L968.9-13l2.19,4-.92.5Z" transform="translate(-106.64 30.1)"/><path d="M979.67,6.35a17.36,17.36,0,0,1,9.62-5.25,18.87,18.87,0,0,1,5.2,0V2.2a17.61,17.61,0,0,0-4.81,0,14.62,14.62,0,0,0-5,1.79,14.81,14.81,0,0,0-4.21,3.25,17,17,0,0,0-2.59,4l-1-.55A19,19,0,0,1,979.67,6.35Z" transform="translate(-106.64 30.1)"/><path d="M991,8.71l.64,1.18-6.46,6.88.2.36,9.22-1.82.65,1.18-10.32,1.93-1.07-2Z" transform="translate(-106.64 30.1)"/><path d="M989.18,26.67a3.86,3.86,0,0,1-.55-2.65,2.76,2.76,0,0,1,1.51-1.9,2.67,2.67,0,0,1,2.47-.17,4.26,4.26,0,0,1,2,2c.49.88.93,1.78,1.33,2.7a4.63,4.63,0,0,0,2-1.66,2.31,2.31,0,0,0-.36-2.08,11.19,11.19,0,0,0-2.29-2.79l.76-.8a12,12,0,0,1,2.44,3,3.84,3.84,0,0,1,.63,3.08,5.06,5.06,0,0,1-2.46,2.24l-3.84,2.13-1.31.92-.64-1,1-.8a7.26,7.26,0,0,1-1.44-.87A4.47,4.47,0,0,1,989.18,26.67Zm1-.51a3.91,3.91,0,0,0,1.3,1.35,5.92,5.92,0,0,0,1.48.81l2.19-1.2c-.41-.9-.83-1.74-1.26-2.53a3.15,3.15,0,0,0-1.44-1.51,1.7,1.7,0,0,0-1.58.1c-1.23.65-1.46,1.64-.72,3Z" transform="translate(-106.64 30.1)"/><path d="M993.41,34l.92-.5,1.65,3,10.43-5.7-1.62-2.92.89-.52,2.2,4-11.33,6.2,1.7,3.11-.92.5Z" transform="translate(-106.64 30.1)"/><path d="M1019.28,52.22l.6,1.1-15.24,1.25-.6-1.11Zm-12.38,5a2.94,2.94,0,0,1,3.5-1.92,2.82,2.82,0,0,1,1.6,1.38,2.78,2.78,0,0,1,.3,2.09,2.9,2.9,0,0,1-3.5,1.91,3,3,0,0,1-1.9-3.46Zm3.27-.9a2,2,0,0,0-2.29,1.2,1.73,1.73,0,0,0,.17,1.28,1.68,1.68,0,0,0,1,.83,1.7,1.7,0,0,0,1.37-.2,1.72,1.72,0,0,0,.91-1,1.61,1.61,0,0,0-.17-1.27,1.65,1.65,0,0,0-1-.84Zm1.29-8.07a2.58,2.58,0,0,1,1.37-1.64,2.61,2.61,0,0,1,2.13-.27,2.81,2.81,0,0,1,1.59,1.38,2.78,2.78,0,0,1,.3,2.09,2.93,2.93,0,0,1-3.5,1.91,2.77,2.77,0,0,1-1.59-1.38,2.81,2.81,0,0,1-.26-2.14Zm3.26-.9a1.74,1.74,0,0,0-1.37.2,1.67,1.67,0,0,0-.91,1,1.78,1.78,0,0,0,1.17,2.11,2,2,0,0,0,2.28-1.25,1.79,1.79,0,0,0-1.15-2.11Z" transform="translate(-106.64 30.1)"/><path d="M1020.79,71.28l.76-.59,1,1.31a6.07,6.07,0,0,0,2.1,1.93,2.18,2.18,0,0,0,2.06-.11,2,2,0,0,0,1.15-1.54,3.41,3.41,0,0,0-.49-2.07,9.9,9.9,0,0,0-2.49-2.63l.66-.85a14.14,14.14,0,0,1,1.62,1.47,7.84,7.84,0,0,1,1.22,1.58,4.78,4.78,0,0,1,.69,3,2.92,2.92,0,0,1-1.67,2.15,3,3,0,0,1-1.86.44,4.46,4.46,0,0,1-1.86-.89h0a3.11,3.11,0,0,1-1.68,4.07c-2.27,1.24-4.14.5-5.63-2.22a13.3,13.3,0,0,1-1.32-4.16l1.13-.16a11.83,11.83,0,0,0,1.12,3.76,3.94,3.94,0,0,0,1.8,1.83,2.47,2.47,0,0,0,2.27-.22,2.66,2.66,0,0,0,1.45-1.66,3.63,3.63,0,0,0-.56-2.4Z" transform="translate(-106.64 30.1)"/><path d="M1028.83,91.69l.82-.45,3.21,5.89-.81.45Zm3.1-1.7.81-.44,3.22,5.89-.81.44Z" transform="translate(-106.64 30.1)"/><path d="M1034.22,101.53l.81-.44,3.22,5.89-.81.44Zm3.09-1.69.81-.44,3.22,5.89-.81.44Z" transform="translate(-106.64 30.1)"/><path d="M1039.6,111.38l.81-.44,3.22,5.89-.81.44Zm3.1-1.69.81-.44,3.22,5.89-.81.44Z" transform="translate(-106.64 30.1)"/><path d="M1052.73,128.6c2.16-1.18,3.86-1.72,5.1-1.64a4.24,4.24,0,0,1,3.41,4.93,4.15,4.15,0,0,1-.25.85q-.9,1.63-4.13,3.41a10.26,10.26,0,0,1-5.12,1.64,4.2,4.2,0,0,1-3.44-4.83,4.42,4.42,0,0,1,.28-.94A10.29,10.29,0,0,1,1052.73,128.6Zm-2.91,3.93a2.53,2.53,0,0,0,2.15,3.93,16.27,16.27,0,0,0,7.8-4.24,2.58,2.58,0,0,0-.83-3.55,2.52,2.52,0,0,0-1.33-.39,11.18,11.18,0,0,0-4.18,1.58A11.42,11.42,0,0,0,1049.82,132.53Z" transform="translate(-106.64 30.1)"/><path d="M1061,149.11a3.62,3.62,0,0,1,2.24-.57,4.22,4.22,0,0,1,1.94.81,3.9,3.9,0,0,1,1.85-2.18q3.21-1.77,5.14,1.79a10,10,0,0,1,.81,2l.12.4-1,.34a11.17,11.17,0,0,0-.83-2.17,3.14,3.14,0,0,0-1.58-1.61,2.41,2.41,0,0,0-2,.33,3.39,3.39,0,0,0-1.61,1.88l3.26,6-.94.51-1-1.85-5.9,3.22a14,14,0,0,1-2-2.71Q1057.22,151.16,1061,149.11Zm4.37,2c-.83-1.52-2.15-1.79-3.94-.81a2.93,2.93,0,0,0-1.62,1.82,3.91,3.91,0,0,0,.63,2.66,7.94,7.94,0,0,0,1.22,1.71l5.12-2.8Z" transform="translate(-106.64 30.1)"/><path d="M1066.36,158.94a3.76,3.76,0,0,1,2.24-.57,4.35,4.35,0,0,1,1.94.82,3.87,3.87,0,0,1,1.85-2.18c2.13-1.17,3.85-.57,5.14,1.79a10,10,0,0,1,.81,2l.12.4-1.06.34a9.9,9.9,0,0,0-.83-2.18,3.16,3.16,0,0,0-1.57-1.61,2.49,2.49,0,0,0-2,.34,3.37,3.37,0,0,0-1.6,1.88l3.26,6-.94.52-1-1.85-5.9,3.22a13.55,13.55,0,0,1-2-2.71Q1062.59,161,1066.36,158.94Zm4.37,2q-1.26-2.28-3.94-.81a2.91,2.91,0,0,0-1.62,1.81,4,4,0,0,0,.62,2.67,8.2,8.2,0,0,0,1.22,1.71l5.13-2.8Z" transform="translate(-106.64 30.1)"/><path d="M1082.5,176.19l.64,1.18-6.45,6.88.19.35,9.22-1.81.65,1.18-10.31,1.93-1.08-2Z" transform="translate(-106.64 30.1)"/><path d="M1080.72,194.15a3.89,3.89,0,0,1-.54-2.64,2.72,2.72,0,0,1,1.51-1.9,2.65,2.65,0,0,1,2.46-.17,4.26,4.26,0,0,1,2,2,30.07,30.07,0,0,1,1.33,2.7,4.68,4.68,0,0,0,2-1.66,2.38,2.38,0,0,0-.36-2.08,11.19,11.19,0,0,0-2.29-2.79l.76-.8a11.77,11.77,0,0,1,2.44,3,3.84,3.84,0,0,1,.63,3.08,5.06,5.06,0,0,1-2.46,2.24l-3.87,2.12-1.32.92-.64-.95,1-.8a7.38,7.38,0,0,1-1.45-.88A4.57,4.57,0,0,1,1080.72,194.15Zm1-.5A4.3,4.3,0,0,0,1083,195a6.93,6.93,0,0,0,1.49.81l2.19-1.2c-.41-.9-.83-1.74-1.26-2.53a3.22,3.22,0,0,0-1.44-1.52,1.75,1.75,0,0,0-1.59.1c-1.22.65-1.45,1.65-.72,3Z" transform="translate(-106.64 30.1)"/><path d="M1085,201.49l.92-.5,1.65,3,10.43-5.7-1.62-2.92.89-.52,2.2,4-11.33,6.2,1.7,3.11-.92.5Z" transform="translate(-106.64 30.1)"/><path d="M1110.82,219.71l.61,1.11-15.24,1.24-.6-1.11Zm-12.32,4.95a2.92,2.92,0,0,1,3.5-1.92,2.79,2.79,0,0,1,1.59,1.39,2.75,2.75,0,0,1,.31,2.08,3,3,0,0,1-3.5,1.92,2.82,2.82,0,0,1-1.6-1.39A2.76,2.76,0,0,1,1098.5,224.66Zm3.27-.9a1.68,1.68,0,0,0-1.38.2,1.72,1.72,0,0,0-.91,1,1.61,1.61,0,0,0,.17,1.27,1.68,1.68,0,0,0,1,.83,1.76,1.76,0,0,0,2.12-2.52,1.64,1.64,0,0,0-1-.82Zm1.29-8.06a2.52,2.52,0,0,1,1.37-1.65,2.59,2.59,0,0,1,2.07-.28,2.81,2.81,0,0,1,1.59,1.38,2.78,2.78,0,0,1,.3,2.09,2.9,2.9,0,0,1-3.5,1.91,3,3,0,0,1-1.89-3.46Zm3.26-.91a1.7,1.7,0,0,0-1.37.21,1.68,1.68,0,0,0,.26,3.11,1.7,1.7,0,0,0,1.37-.2,1.72,1.72,0,0,0,.91-1,1.61,1.61,0,0,0-.17-1.27,1.67,1.67,0,0,0-1-.82Z" transform="translate(-106.64 30.1)"/><path d="M1116.25,243.3a4.15,4.15,0,0,1-2.21,2.47,4.44,4.44,0,0,1-3.45.5,4.74,4.74,0,0,1-2.74-2.44,12,12,0,0,1-1.17-4l1.14-.14a9.65,9.65,0,0,0,1,3.63,3.21,3.21,0,0,0,2,1.71,3.59,3.59,0,0,0,2.58-.42,3.16,3.16,0,0,0,1.65-1.81,3,3,0,0,0-.39-2.37,4.78,4.78,0,0,0-2.51-2l-.19-.84,6.15-3.11,3.6,6.58-1,.55-3.06-5.59-4.07,2a4.93,4.93,0,0,1,2.12,2A4.33,4.33,0,0,1,1116.25,243.3Z" transform="translate(-106.64 30.1)"/><path d="M1120.37,259.16l.81-.44,3.22,5.89-.81.44Zm3.1-1.69.81-.45,3.22,5.89-.81.45Z" transform="translate(-106.64 30.1)"/><path d="M1125.76,269l.81-.44,3.22,5.89-.81.44Zm3.09-1.69.82-.44,3.21,5.89-.81.44Z" transform="translate(-106.64 30.1)"/><path d="M1131.15,278.88l.82-.44,3.21,5.89-.81.44Zm3.1-1.69.81-.44,3.22,5.89-.81.44Z" transform="translate(-106.64 30.1)"/><path d="M1144.29,296.1a10.16,10.16,0,0,1,5.1-1.64,4.22,4.22,0,0,1,3.41,4.9,4,4,0,0,1-.26.88c-.6,1.09-2,2.23-4.13,3.41a10.2,10.2,0,0,1-5.12,1.64,4.18,4.18,0,0,1-3.43-4.82,4,4,0,0,1,.28-1Q1141.05,297.87,1144.29,296.1Zm-2.92,3.93a2.55,2.55,0,0,0,2.15,3.93,16.34,16.34,0,0,0,7.81-4.24,2.59,2.59,0,0,0-.86-3.56,2.53,2.53,0,0,0-1.31-.38,11.18,11.18,0,0,0-4.18,1.58,11.42,11.42,0,0,0-3.61,2.67Z" transform="translate(-106.64 30.1)"/><path d="M1146.87,311.77a17.1,17.1,0,0,0,9.22-5,17.81,17.81,0,0,0,2.6-4l1,.56a18.31,18.31,0,0,1-2.78,4.39,15.32,15.32,0,0,1-4.38,3.41,15.72,15.72,0,0,1-5.23,1.85,19.83,19.83,0,0,1-5.22,0l.06-1.11A17.84,17.84,0,0,0,1146.87,311.77Z" transform="translate(-106.64 30.1)"/><path d="M1160.58,326.77l1-.52,1.82,1.31c1-.56,2.09-1.18,3.17-1.86s1.8-1.12,2.17-1.32a1.89,1.89,0,0,1,2.64.47,2.08,2.08,0,0,1,.24.47l1.17,2.12-.93.51-1.11-2c-.33-.61-.83-.72-1.5-.36q-.62.35-2.46,1.47c-1.23.76-2.35,1.42-3.37,2l-1.63-1.41-.15.09.29,2.14c-.91.5-2.06,1.08-3.44,1.75s-2.33,1.15-2.86,1.44a1,1,0,0,0-.52,1.46l1.11,2-.92.5-1.16-2.13a1.89,1.89,0,0,1,.29-2.65,2,2,0,0,1,.47-.27c.5-.27,1.36-.7,2.6-1.3s2.32-1.13,3.22-1.63Z" transform="translate(-106.64 30.1)"/><path d="M1165.58,349l.92-.51,1.23,2.25,6.91-3.78-1.23-2.24.92-.51,1.8,3.29-1.05.63a12.6,12.6,0,0,1,3.25,3.14l.12.21-1.09.6-.12-.22a12.09,12.09,0,0,0-1.46-1.8,8.83,8.83,0,0,0-1.62-1.43l-5.84,3.19L1170,355l-.92.5Z" transform="translate(-106.64 30.1)"/><path d="M1175.18,356.2a6,6,0,0,1,3.82-.87,4.27,4.27,0,0,1,3,5.22s0,.08,0,.13a5.37,5.37,0,0,1-2.47,2.49l-1,.44-3.29-6a4.39,4.39,0,0,0-1.81,2,2.65,2.65,0,0,0,.18,2.37,11,11,0,0,0,2.09,2.56l-.76.8a10.34,10.34,0,0,1-2.2-2.68,4.15,4.15,0,0,1-.41-3.61A5.69,5.69,0,0,1,1175.18,356.2Zm5.61,1.8c-.91-1.66-2.42-2-4.55-.92l2.71,5q3.12-1.74,1.84-4.08Z" transform="translate(-106.64 30.1)"/><path d="M1183.68,364.07l.92-.5,1,1.91,2.23-1.22.76.94-2.42,1.32,2.47,4.52-.92.5-2.47-4.51-4.2,2.3a4,4,0,0,0-1.78,1.54,2.09,2.09,0,0,0,.25,1.92,11.9,11.9,0,0,0,.87,1.27,13.87,13.87,0,0,0,.93,1.1l-.77.73a10.64,10.64,0,0,1-1-1.22,13.73,13.73,0,0,1-.94-1.36,3.29,3.29,0,0,1-.45-2.9,5.08,5.08,0,0,1,2.31-2.11l4.24-2.32Z" transform="translate(-106.64 30.1)"/><path d="M1184.89,384.33l.73-.45a8.78,8.78,0,0,1-2.64-2.65,2.89,2.89,0,0,1-.28-2.43,3.64,3.64,0,0,1,1.82-1.94l5.89-3.22.57,1-5.89,3.23a2.54,2.54,0,0,0-1.23,1.27,1.9,1.9,0,0,0,.19,1.73,9.36,9.36,0,0,0,2.53,2.45l7-3.85.57,1-8.75,4.79Z" transform="translate(-106.64 30.1)"/><path d="M1187.12,388.42l.93-.5,1.22,2.24,6.91-3.77-1.22-2.25.92-.5,1.8,3.29-1,.62a10.63,10.63,0,0,1,1.7,1.37,10.47,10.47,0,0,1,1.55,1.77l.11.22-1.08.59-.12-.22a12.54,12.54,0,0,0-1.46-1.79,8.83,8.83,0,0,0-1.62-1.43l-5.84,3.19,1.72,3.15-.92.5Z" transform="translate(-106.64 30.1)"/><path d="M1201.75,394.39l-.71.44a9.39,9.39,0,0,1,2.58,2.71,2.83,2.83,0,0,1,.27,2.42,3.62,3.62,0,0,1-1.82,1.93l-5.84,3.19-.57-1,5.84-3.19a2.68,2.68,0,0,0,1.24-1.29,2,2,0,0,0-.21-1.73,10,10,0,0,0-2.41-2.49l-7.1,3.87-.57-1,8.76-4.78Z" transform="translate(-106.64 30.1)"/><path d="M1213.31,416.06l4-2.19.57,1-4,2.18Z" transform="translate(-106.64 30.1)"/><path d="M1208.72,427.94l12.07-6.6,3.68,6.74-.93.51-3.09-5.65-5.28,2.88,2.65,4.84-.92.51-2.65-4.85-4.93,2.7Z" transform="translate(-106.64 30.1)"/><path d="M1214.07,437.77l.93-.5,1.57,2.88,6.91-3.78-1.57-2.88.92-.5,2.14,3.92-7.83,4.28,1.57,2.88-.92.5Zm12.7-3.74a.82.82,0,0,1,.7-.08,1,1,0,0,1,.54.51.81.81,0,0,1-.18,1.14.72.72,0,0,1-.19.11.81.81,0,0,1-1.12-.16.94.94,0,0,1-.12-.22.85.85,0,0,1,.1-1.2.72.72,0,0,1,.27-.15Z" transform="translate(-106.64 30.1)"/><path d="M1227.33,443.37l.92-.5,3.51,6.42-.7.51-10-1.43,2.93,5.36-.92.5-3.61-6.6.67-.57,10,1.41Z" transform="translate(-106.64 30.1)"/><path d="M1232.71,453.22l.92-.5,3.51,6.42-.7.51-10-1.43,2.93,5.36-.92.5-3.61-6.6.67-.57,10,1.41Z" transform="translate(-106.64 30.1)"/><path d="M1230.05,467l12.07-6.6,1.66,3a6.56,6.56,0,0,1,1,3.61,3.08,3.08,0,0,1-1.83,2.37,3,3,0,0,1-3.92-.69,4.16,4.16,0,0,1,.13,2.42,3,3,0,0,1-1.55,1.65,3.28,3.28,0,0,1-3.32.28,8.06,8.06,0,0,1-2.71-3.22Zm7,4.66q2.25-1.23.46-4.5l-1.18-2.17-4.76,2.6,1,1.77a6.27,6.27,0,0,0,2,2.45,2.37,2.37,0,0,0,2.45-.15Zm6.67-5.44a6.42,6.42,0,0,0-.82-2.29l-1.06-2-4.61,2.52,1.15,2.11a4.53,4.53,0,0,0,1.68,1.82,2.42,2.42,0,0,0,2.41-.17,2,2,0,0,0,1.22-2Z" transform="translate(-106.64 30.1)"/><path d="M1238.75,482.86l.73-.45a8.78,8.78,0,0,1-2.64-2.65,2.89,2.89,0,0,1-.28-2.43,3.62,3.62,0,0,1,1.81-1.94l5.9-3.22.57,1-5.9,3.23a2.66,2.66,0,0,0-1.23,1.27,2,2,0,0,0,.19,1.73,9.55,9.55,0,0,0,2.54,2.45l7-3.85.57,1-8.75,4.79Z" transform="translate(-106.64 30.1)"/><path d="M1248.86,482.77l.92-.5,3.51,6.42-.7.51-10-1.43,2.93,5.36-.93.5L1241,487l.67-.57,10,1.41Z" transform="translate(-106.64 30.1)"/><path d="M1254.24,492.61l.92-.51,3.51,6.43-.7.51-10-1.43,2.93,5.35-.92.51-3.61-6.6.67-.57,10,1.41Z" transform="translate(-106.64 30.1)"/><path d="M1261.78,504.77l4-2.19.57,1-4,2.19Z" transform="translate(-106.64 30.1)"/><path d="M1258.11,518.29l2.06-1.13,1,1.87-1.52.83a5.15,5.15,0,0,1-4,.22l.15-.77a5.14,5.14,0,0,0,2.72-.23Zm5.58-3,1.88-1,1,1.81-1.88,1Z" transform="translate(-106.64 30.1)"/><path d="M1265.16,538l.92-.5,1.11,2c.33.6.84.72,1.51.35s1.45-.83,2.76-1.63,2.42-1.45,3.33-2l1.65,1.4.12-.07-.28-2.15c1-.55,2.18-1.15,3.48-1.77s2.15-1,2.56-1.27c.67-.37.85-.86.52-1.46l-1.11-2,.92-.51,1.16,2.13a1.88,1.88,0,0,1-.3,2.65,1.72,1.72,0,0,1-.47.28c-.37.2-1.13.57-2.28,1.12s-2.25,1.1-3.28,1.66l.1,2.25-.94.51-1.83-1.3c-.91.5-2,1.11-3.12,1.84s-2,1.22-2.49,1.48a1.88,1.88,0,0,1-2.62-.45,1.69,1.69,0,0,1-.25-.48Z" transform="translate(-106.64 30.1)"/><path d="M1282.88,553.24a6,6,0,0,1,3.82-.87,3.68,3.68,0,0,1,2.68,2.08,3.64,3.64,0,0,1,.36,3.27,5.24,5.24,0,0,1-2.47,2.49l-1,.44-3.29-6a4.39,4.39,0,0,0-1.81,2,2.65,2.65,0,0,0,.18,2.37,10.9,10.9,0,0,0,2.09,2.55l-.76.8a10.34,10.34,0,0,1-2.2-2.68,4.15,4.15,0,0,1-.41-3.61A5.75,5.75,0,0,1,1282.88,553.24Zm5.61,1.8c-.91-1.66-2.42-2-4.55-.92l2.71,5q3.12-1.74,1.85-4.08Z" transform="translate(-106.64 30.1)"/><path d="M1284.2,566l.92-.5,1.65,3,10.43-5.7-1.63-2.93.9-.51,2.2,4-11.33,6.19,1.7,3.12-.92.5Z" transform="translate(-106.64 30.1)"/><path d="M1289.83,575.32l1.1-.27a12.32,12.32,0,0,0,1,3.35,3.16,3.16,0,0,0,1.33,1.4,1.53,1.53,0,0,0,1.47,0,1.39,1.39,0,0,0,.81-1,6.8,6.8,0,0,0-.4-2.28,6,6,0,0,1-.29-2.68,2.22,2.22,0,0,1,1.26-1.63,2.16,2.16,0,0,1,2.17,0,4.76,4.76,0,0,1,1.85,2,10.41,10.41,0,0,1,1.09,3.4l-1,.19a10.5,10.5,0,0,0-1-3,3.8,3.8,0,0,0-1.21-1.43,1.36,1.36,0,0,0-2,1.06,8.21,8.21,0,0,0,.4,2.4,5.83,5.83,0,0,1,.27,2.62,2.46,2.46,0,0,1-1.36,1.56,2.59,2.59,0,0,1-2.3.16,4.18,4.18,0,0,1-2-2A13,13,0,0,1,1289.83,575.32Z" transform="translate(-106.64 30.1)"/><path d="M1299,582.77a6,6,0,0,1,3.82-.87,3.68,3.68,0,0,1,2.68,2.08,3.64,3.64,0,0,1,.35,3.27,5.22,5.22,0,0,1-2.46,2.49l-1,.44-3.29-6a4.39,4.39,0,0,0-1.81,2,2.65,2.65,0,0,0,.18,2.37,10.9,10.9,0,0,0,2.09,2.55l-.76.8a10.17,10.17,0,0,1-2.21-2.68,4.18,4.18,0,0,1-.4-3.61A5.75,5.75,0,0,1,1299,582.77Zm5.6,1.8c-.9-1.65-2.42-2-4.54-.92l2.71,5q3.12-1.71,1.83-4Z" transform="translate(-106.64 30.1)"/><path d="M1305.61,605.19l.92-.51,1.57,2.88,6.91-3.78-1.57-2.87.92-.51,2.14,3.92-7.83,4.28,1.57,2.88-.92.5Zm12.69-3.75a.82.82,0,0,1,.7-.08,1,1,0,0,1,.54.51.81.81,0,0,1-.18,1.14.72.72,0,0,1-.19.11.8.8,0,0,1-1.11-.15,1,1,0,0,1-.12-.23.85.85,0,0,1,.17-1.19.72.72,0,0,1,.19-.11Z" transform="translate(-106.64 30.1)"/><path d="M1310.84,614.77l.92-.51,1.19,2.19,6.91-3.78-1.15-2.1.92-.51,1.16,2.11q3.64-2,5.23.9a11.81,11.81,0,0,1,.93,2.72l-1,.26a10.82,10.82,0,0,0-.8-2.43,1.84,1.84,0,0,0-1.45-1.09,4.23,4.23,0,0,0-2.29.68l2.16,4-.92.51-2.17-4-6.91,3.77,2.19,4-.92.51Z" transform="translate(-106.64 30.1)"/><path d="M1324.29,636.86a17.37,17.37,0,0,1,9.62-5.26,18.87,18.87,0,0,1,5.2,0v1.1a17.61,17.61,0,0,0-4.81,0,17,17,0,0,0-9.22,5,17.8,17.8,0,0,0-2.59,4l-1-.55A18.73,18.73,0,0,1,1324.29,636.86Z" transform="translate(-106.64 30.1)"/><path d="M1335.58,639.23l.65,1.18-6.46,6.89.19.35,9.23-1.82.65,1.18-10.34,1.93-1.07-2Z" transform="translate(-106.64 30.1)"/><path d="M1333.82,657.2a3.86,3.86,0,0,1-.55-2.65,2.76,2.76,0,0,1,1.51-1.9,2.67,2.67,0,0,1,2.47-.17,4.22,4.22,0,0,1,2,2c.49.88.93,1.78,1.33,2.7a4.76,4.76,0,0,0,2-1.66,2.38,2.38,0,0,0-.36-2.08,11.46,11.46,0,0,0-2.3-2.79l.77-.8a12,12,0,0,1,2.43,3,3.84,3.84,0,0,1,.63,3.08,5.06,5.06,0,0,1-2.46,2.24l-3.79,2.1-1.31.92-.64-1,1-.8a6.61,6.61,0,0,1-1.44-.88A4.19,4.19,0,0,1,1333.82,657.2Zm1-.51a3.91,3.91,0,0,0,1.3,1.35,6.86,6.86,0,0,0,1.48.81l2.2-1.2c-.42-.9-.84-1.74-1.27-2.53a3.15,3.15,0,0,0-1.44-1.51,1.7,1.7,0,0,0-1.58.09c-1.22.66-1.45,1.65-.72,3Z" transform="translate(-106.64 30.1)"/><path d="M1338.05,664.55l.93-.5,1.64,3,10.43-5.7-1.62-2.92.89-.52,2.21,4-11.34,6.2,1.71,3.11-.93.5Z" transform="translate(-106.64 30.1)"/><path d="M1363.92,682.77l.6,1.1-15.24,1.25-.6-1.11Zm-12.42,4.93a2.94,2.94,0,0,1,3.5-1.92,3,3,0,0,1,1.9,3.47,2.9,2.9,0,0,1-3.5,1.91A3,3,0,0,1,1351.5,687.7Zm3.27-.9a2,2,0,0,0-2.29,1.2,1.73,1.73,0,0,0,.17,1.28,1.68,1.68,0,0,0,1,.83,1.7,1.7,0,0,0,1.37-.2,1.75,1.75,0,0,0,.91-1,1.61,1.61,0,0,0-.17-1.27,1.66,1.66,0,0,0-1-.87Zm1.29-8.06a2.92,2.92,0,0,1,3.5-1.92,2.81,2.81,0,0,1,1.59,1.38,2.78,2.78,0,0,1,.3,2.09,2.93,2.93,0,0,1-3.5,1.91,3,3,0,0,1-1.89-3.46Zm3.26-.91a1.7,1.7,0,0,0-1.37.21,1.63,1.63,0,0,0-.84,2.13,1.14,1.14,0,0,0,.1.19,1.65,1.65,0,0,0,1,.83,1.7,1.7,0,0,0,1.37-.2,1.72,1.72,0,0,0,.91-1,1.79,1.79,0,0,0-1.15-2.11Z" transform="translate(-106.64 30.1)"/><path d="M1369.34,706.33a4.23,4.23,0,0,1-2.21,2.48,4.51,4.51,0,0,1-3.46.49,4.66,4.66,0,0,1-2.73-2.44,11.46,11.46,0,0,1-1.17-4l1.14-.14a9.73,9.73,0,0,0,1,3.62,3.21,3.21,0,0,0,2,1.71,3.51,3.51,0,0,0,2.59-.42,3.1,3.1,0,0,0,1.64-1.8,3,3,0,0,0-.38-2.38,4.78,4.78,0,0,0-2.51-2l-.19-.84,6.15-3.11,3.59,6.58-1,.56-3.06-5.6-4.07,2a4.8,4.8,0,0,1,2.11,2A4.28,4.28,0,0,1,1369.34,706.33Z" transform="translate(-106.64 30.1)"/><path d="M1373.5,722.22l.82-.45,3.21,5.89-.81.45Zm3.1-1.7.81-.44,3.22,5.89-.81.44Z" transform="translate(-106.64 30.1)"/><path d="M1378.85,732.06l.81-.45,3.22,5.89-.81.45Zm3.1-1.7.81-.44,3.22,5.89-.81.44Z" transform="translate(-106.64 30.1)"/><path d="M1384.23,741.9l.82-.44,3.21,5.89-.81.44Zm3.1-1.69.81-.44,3.22,5.89-.81.44Z" transform="translate(-106.64 30.1)"/><path d="M1397.37,759.12c2.16-1.17,3.86-1.72,5.1-1.63a4.2,4.2,0,0,1,3.41,4.88,4.11,4.11,0,0,1-.26.89c-.59,1.08-2,2.22-4.13,3.41s-3.87,1.73-5.12,1.65a4.2,4.2,0,0,1-3.42-4.86,3.73,3.73,0,0,1,.27-.92Q1394.13,760.89,1397.37,759.12Zm-2.91,3.94a2.22,2.22,0,0,0-.11,2.6,2.27,2.27,0,0,0,2.26,1.33,11.65,11.65,0,0,0,4.21-1.59,11.44,11.44,0,0,0,3.59-2.65,2.58,2.58,0,0,0-.76-3.58,2.53,2.53,0,0,0-1.41-.42,16.19,16.19,0,0,0-7.78,4.26Z" transform="translate(-106.64 30.1)"/><path d="M1400,774.85a17.27,17.27,0,0,0,9.22-5,18.19,18.19,0,0,0,2.6-4l1,.55a19.23,19.23,0,0,1-2.78,4.4,17.34,17.34,0,0,1-9.62,5.26,19,19,0,0,1-5.22,0l.06-1.11A17.5,17.5,0,0,0,1400,774.85Z" transform="translate(-106.64 30.1)"/><path d="M1413.68,789.77l1-.52,1.81,1.31c1-.57,2.09-1.19,3.17-1.86s1.81-1.12,2.18-1.32a1.88,1.88,0,0,1,2.63.45,1.83,1.83,0,0,1,.25.48l1.16,2.13-.92.5-1.11-2c-.33-.6-.83-.72-1.51-.35-.4.22-1.22.71-2.45,1.47s-2.35,1.42-3.37,2l-1.64-1.41-.14.08.28,2.15c-.9.5-2,1.08-3.43,1.75s-2.34,1.15-2.86,1.44c-.68.36-.85.85-.52,1.46l1.11,2-.93.51-1.16-2.13a1.91,1.91,0,0,1,.32-2.67,1.7,1.7,0,0,1,.45-.26c.49-.27,1.36-.7,2.6-1.29s2.31-1.13,3.22-1.63Z" transform="translate(-106.64 30.1)"/><path d="M1415.83,804.33a17.28,17.28,0,0,1,9.62-5.26,18.87,18.87,0,0,1,5.2,0l-.05,1.1a17.54,17.54,0,0,0-4.8,0,17.07,17.07,0,0,0-9.21,5,17.58,17.58,0,0,0-2.59,4l-1-.55A18.87,18.87,0,0,1,1415.83,804.33Z" transform="translate(-106.64 30.1)"/><path d="M1418.69,812.07l.92-.5,1.57,2.88,6.91-3.78-1.59-2.9.92-.5,2.14,3.92-7.83,4.28,1.57,2.88-.92.5Zm12.7-3.74a.8.8,0,0,1,.69-.08,1,1,0,0,1,.54.51.8.8,0,0,1-.16,1.13.72.72,0,0,1-.21.12.8.8,0,0,1-1.11-.15,1,1,0,0,1-.12-.23.84.84,0,0,1,.15-1.18.94.94,0,0,1,.22-.12Z" transform="translate(-106.64 30.1)"/><path d="M1424.44,821.59l1.1-.27a12.32,12.32,0,0,0,1,3.35,3.13,3.13,0,0,0,1.33,1.41,1.59,1.59,0,0,0,1.47,0,1.39,1.39,0,0,0,.81-1,6.8,6.8,0,0,0-.4-2.28,6,6,0,0,1-.29-2.68,2.21,2.21,0,0,1,1.26-1.64,2.11,2.11,0,0,1,2.17,0,4.7,4.7,0,0,1,1.85,2,10.13,10.13,0,0,1,1.09,3.39l-1,.2a10.5,10.5,0,0,0-1-3,3.67,3.67,0,0,0-1.21-1.44,1.26,1.26,0,0,0-1.32,0,1.24,1.24,0,0,0-.69,1,7.89,7.89,0,0,0,.4,2.4,5.83,5.83,0,0,1,.27,2.62,2.38,2.38,0,0,1-1.36,1.56,2.53,2.53,0,0,1-2.3.16,4.14,4.14,0,0,1-2-2A12.6,12.6,0,0,1,1424.44,821.59Z" transform="translate(-106.64 30.1)"/><path d="M1432.81,837.92l1.9-1,5.19-10.15v-.06l-10.16,5.55-.59-1.08,12.07-6.6.58,1.06-5.27,10.2v.06l8.34-4.56.6,1.08L1433.4,839Z" transform="translate(-106.64 30.1)"/><path d="M1436.12,844.35a3.89,3.89,0,0,1-.55-2.64,2.72,2.72,0,0,1,1.51-1.9,2.67,2.67,0,0,1,2.47-.17,4.26,4.26,0,0,1,2,2,30.07,30.07,0,0,1,1.33,2.7,4.68,4.68,0,0,0,2-1.66,2.31,2.31,0,0,0-.36-2.08,11.19,11.19,0,0,0-2.29-2.79l.76-.8a12,12,0,0,1,2.44,3,3.84,3.84,0,0,1,.63,3.08,5.06,5.06,0,0,1-2.46,2.24l-3.87,2.12-1.31.92-.65-1,1-.8a6.61,6.61,0,0,1-1.44-.88A4.19,4.19,0,0,1,1436.12,844.35Zm1-.5a3.91,3.91,0,0,0,1.3,1.35,6.86,6.86,0,0,0,1.48.81l2.19-1.2c-.41-.9-.83-1.74-1.26-2.53a3.15,3.15,0,0,0-1.44-1.51,1.7,1.7,0,0,0-1.58.09c-1.23.66-1.46,1.65-.72,3Z" transform="translate(-106.64 30.1)"/><path d="M1443.59,857.62l1.89-1,5.19-10.13v-.06L1440.5,852l-.6-1.08,12.07-6.6.58,1.06-5.26,10.2v.06l8.35-4.56.59,1.08-12.07,6.6Z" transform="translate(-106.64 30.1)"/><path d="M1448.15,863.46a17.37,17.37,0,0,1,9.62-5.26,18.12,18.12,0,0,1,5.2,0v1.1a17.61,17.61,0,0,0-4.81,0,17.17,17.17,0,0,0-9.21,5,17.58,17.58,0,0,0-2.59,4l-1-.54A19,19,0,0,1,1448.15,863.46Z" transform="translate(-106.64 30.1)"/><path d="M1459.43,865.77l.65,1.19-6.46,6.88.19.35,9.23-1.82.64,1.19-10.31,1.92-1.08-2Z" transform="translate(-106.64 30.1)"/><path d="M1457.67,883.77a3.89,3.89,0,0,1-.55-2.64,2.76,2.76,0,0,1,1.51-1.9,2.67,2.67,0,0,1,2.47-.17,4.22,4.22,0,0,1,2,2,30.16,30.16,0,0,1,1.4,2.71,4.76,4.76,0,0,0,2-1.66,2.38,2.38,0,0,0-.36-2.08,11.61,11.61,0,0,0-2.29-2.79l.76-.8a12,12,0,0,1,2.43,3,3.84,3.84,0,0,1,.63,3.08,5.06,5.06,0,0,1-2.46,2.24l-3.87,2.12-1.31.92-.64-1,1-.8a6.61,6.61,0,0,1-1.44-.88A4.23,4.23,0,0,1,1457.67,883.77Zm1-.5a3.91,3.91,0,0,0,1.3,1.35,6.86,6.86,0,0,0,1.48.81l2.2-1.2c-.42-.9-.84-1.74-1.27-2.53a3.15,3.15,0,0,0-1.44-1.51,1.7,1.7,0,0,0-1.58.09c-1.22.67-1.45,1.66-.72,3Z" transform="translate(-106.64 30.1)"/><path d="M1461.91,891.14l.92-.5,1.64,3,10.43-5.7-1.62-2.92.89-.52,2.21,4L1465,894.7l1.71,3.11-.92.5Z" transform="translate(-106.64 30.1)"/><path d="M1470,902.91a15.15,15.15,0,0,0,5-1.8,14.7,14.7,0,0,0,4.2-3.23,17.5,17.5,0,0,0,2.6-4l1,.55a18.65,18.65,0,0,1-2.77,4.4,17.43,17.43,0,0,1-9.62,5.26,19,19,0,0,1-5.22,0l.06-1.11A17.57,17.57,0,0,0,1470,902.91Z" transform="translate(-106.64 30.1)"/><path d="M1475.35,912.77a17.2,17.2,0,0,0,9.22-5,17.84,17.84,0,0,0,2.6-4l.95.55a18.69,18.69,0,0,1-2.78,4.4,17.34,17.34,0,0,1-9.62,5.26,19,19,0,0,1-5.22,0l.07-1.11A17.8,17.8,0,0,0,1475.35,912.77Z" transform="translate(-106.64 30.1)"/><polygon points="1413 1042.67 0 1048.67 95.27 865.37 1316.63 869.22 1413 1042.67"/></svg>