<svg id="Layer_1" data-name="Layer 1" xmlns="http://www.w3.org/2000/svg" viewBox="0 0 418.99 928.84"><defs><style>.cls-1{fill:none;stroke:#000;stroke-miterlimit:10;stroke-width:4px;}.cls-2{fill:#fff;}</style></defs><title>landing-bolt</title><path class="cls-1" d="M403.56,186.75c5.34-1.31,8.16,1.84,6.26,7l-258.39,703c-1.9,5.16-2.77,4.93-2-.51l75.46-498.88c.83-5.44-2.91-9-8.29-7.86L33.23,427.42c-5.39,1.11-9.13-2.43-8.3-7.86L85.8,16.31A12,12,0,0,1,97.3,6.46l167,.62c5.5,0,8.8,4.37,7.32,9.67L213.83,224.44c-1.47,5.3,1.69,8.56,7,7.25Z" transform="translate(-3.51 -4.46)"/><path class="cls-1" d="M384.25,200.71c5.35-1.31,8.16,1.84,6.27,7l-258.39,703c-1.9,5.17-2.78,4.94-2-.5l75.47-498.88c.82-5.44-2.91-9-8.3-7.86L13.92,441.38c-5.39,1.11-9.12-2.43-8.3-7.86L66.5,30.27A12,12,0,0,1,78,20.42L245,21c5.5,0,8.79,4.37,7.32,9.67L194.53,238.4c-1.48,5.3,1.68,8.56,7,7.25Z" transform="translate(-3.51 -4.46)"/><path class="cls-2" d="M413.65,217.57c5.34-1.31,8.16,1.84,6.26,7l-258.39,703c-1.9,5.17-2.78,4.94-2-.5L235,428.19c.82-5.44-2.91-9-8.3-7.86L43.31,458.24c-5.38,1.11-9.12-2.43-8.3-7.87L95.89,47.13a12,12,0,0,1,11.49-9.85l167.05.62c5.5,0,8.8,4.37,7.32,9.67L223.92,255.26c-1.48,5.3,1.69,8.56,7,7.25Z" transform="translate(-3.51 -4.46)"/><path class="cls-1" d="M413.65,217.57c5.34-1.31,8.16,1.84,6.26,7l-258.39,703c-1.9,5.17-2.78,4.94-2-.5L235,428.19c.82-5.44-2.91-9-8.3-7.86L43.31,458.24c-5.38,1.11-9.12-2.43-8.3-7.87L95.89,47.13a12,12,0,0,1,11.49-9.85l167.05.62c5.5,0,8.8,4.37,7.32,9.67L223.92,255.26c-1.48,5.3,1.69,8.56,7,7.25Z" transform="translate(-3.51 -4.46)"/></svg>