<svg id="Layer_1" data-name="Layer 1" xmlns="http://www.w3.org/2000/svg" viewBox="0 0 1595.46 1169.24"><title>landing-trapezoid</title><path d="M1612.94,1167l-8-5,1.07-.64,6.62,4.26,0,0-.56-7.86,1.07-.63.56,9.38Z" transform="translate(-18.32 2.21)"/><path d="M1601.31,1159.05l2.15-1.27-1.16-2,1-.61,1.16,2,4-2.4c.93-.55,1.3-1.12.85-1.88a3.63,3.63,0,0,0-.56-.74l1-.67a3.73,3.73,0,0,1,.9,1.1,2.18,2.18,0,0,1,.3,1.81,3.22,3.22,0,0,1-1.63,1.69l-4.09,2.42.69,1.16-1,.62-.69-1.16-1.8,1.06Z" transform="translate(-18.32 2.21)"/><path d="M1602.76,1153.77a1.07,1.07,0,0,1-1.52-.33,1.13,1.13,0,1,1,1.52.33Zm8.56-4.17a26,26,0,0,0-4.26,1.26l-1-1.41a23.07,23.07,0,0,1,4.64-.74Z" transform="translate(-18.32 2.21)"/><path d="M1601.84,1149.71c-.88.52-1.63,1-2.3,1.45l-.71-1.19,1.44-.92,0-.06a2.63,2.63,0,0,1-2.88-1.11,1.6,1.6,0,0,1-.18-.41l1.29-.76a2.26,2.26,0,0,0,.22.49,2.23,2.23,0,0,0,2.84.79,4.45,4.45,0,0,0,.67-.32l4-2.37.8,1.35Z" transform="translate(-18.32 2.21)"/><path d="M1593.39,1142.5l3.64-2.16-2.07-3.5.93-.55,2.07,3.5,3.67-2.18.59,1-3.67,2.18,2.08,3.5-.93.55-2.08-3.5-3.64,2.16Z" transform="translate(-18.32 2.21)"/><path d="M1587.92,1133.26l3.64-2.16-2.08-3.5.93-.55,2.07,3.5,3.68-2.18.58,1-3.67,2.18,2.08,3.5-.93.55-2.08-3.5-3.64,2.16Z" transform="translate(-18.32 2.21)"/><path d="M1595.42,1122.85a12.17,12.17,0,0,0-7.5,1.81,11.94,11.94,0,0,0-5.13,5.68l-.62-1.06a11.49,11.49,0,0,1,5.1-5.77,11.67,11.67,0,0,1,7.52-1.71Z" transform="translate(-18.32 2.21)"/><path d="M1585,1122c-.77.46-1.4.85-2,1.26l-.72-1.21,1.2-.81,0,0a3.21,3.21,0,0,1-2.88-1.64c-.62-1-1-3,1.62-4.54l4.48-2.66.8,1.37-4.32,2.56c-1.21.72-2,1.76-1.18,3a2.24,2.24,0,0,0,2.47,1,2.37,2.37,0,0,0,.7-.29l4.5-2.67.81,1.36Z" transform="translate(-18.32 2.21)"/><path d="M1574.74,1111l3.64-2.16-2.08-3.5.93-.55,2.08,3.5,3.67-2.18.59,1-3.68,2.17,2.08,3.5-.93.55-2.07-3.5-3.64,2.16Z" transform="translate(-18.32 2.21)"/><path d="M1575,1104.51l-.93.55-4.74-8,.93-.56Zm3-1.8-.93.55-4.74-8,.93-.56Z" transform="translate(-18.32 2.21)"/><path d="M1561.83,1094.66l3.87-2,.49.83-3.57,2.46Zm1.36,2.3,3.88-1.94.49.84-3.57,2.45Z" transform="translate(-18.32 2.21)"/><path d="M1567.4,1079.88c-.12.46-.25.92-.44,1.58a4.94,4.94,0,0,1,3,2.34,3.43,3.43,0,0,1-1,4.94,4,4,0,0,1-4.26-.23l-.05,0a4.15,4.15,0,0,1-1.67,2.16,2.94,2.94,0,0,1-4.14-1.13,2.52,2.52,0,0,1,.85-3.62c1.1-.65,2.34-.53,4.15.64l0,0c.5-1.48,1.06-3.16,1.41-4.26a8.82,8.82,0,0,0-3.65.8l-.74-1.24a9.21,9.21,0,0,1,4.75-.78c.26-.91.53-1.8.82-2.82Zm-5.31,9.65a3.37,3.37,0,0,0,1.41-1.9c-1.23-.69-2.19-1-3.07-.52a1.42,1.42,0,0,0-.63,2A1.57,1.57,0,0,0,1562.09,1089.53Zm4.49-7c-.32,1-.9,2.94-1.54,4.89a3,3,0,0,0,2.92.09,2.4,2.4,0,0,0,.84-3.39A3.44,3.44,0,0,0,1566.58,1082.58Z" transform="translate(-18.32 2.21)"/><path d="M1563.28,1072.93l-.88.67,0,0a3.27,3.27,0,0,1,2.48,1.64,2.47,2.47,0,0,1-.8,3.56c-1.81,1.08-3.76.06-5.46-2.85l-.15.09a1.8,1.8,0,0,0-.73,2.74,4.44,4.44,0,0,0,1.72,1.62l-.72.84a5.36,5.36,0,0,1-2.12-2.07c-1.36-2.29-.13-3.78,1.37-4.67l2.81-1.66a12.52,12.52,0,0,0,1.72-1.19Zm-3.7,2.47c.85,1.51,2.11,3,3.57,2.17a1.4,1.4,0,0,0,.54-2,2.17,2.17,0,0,0-2.33-1.07,1.54,1.54,0,0,0-.48.18Z" transform="translate(-18.32 2.21)"/><path d="M1556.15,1072.66c-.88.52-1.63,1-2.3,1.45l-.71-1.19,1.45-.92,0-.06a2.61,2.61,0,0,1-2.87-1.11,1.6,1.6,0,0,1-.18-.41l1.28-.76a2.61,2.61,0,0,0,.23.49,2.22,2.22,0,0,0,2.83.79,4.53,4.53,0,0,0,.68-.32l4-2.37.8,1.35Z" transform="translate(-18.32 2.21)"/><path d="M1547.06,1062.66c.56-.29,1.19-.61,2.1-1.16l4.35-2.58c1.72-1,3-1.3,4.06-1a4.66,4.66,0,0,1,2.51,2.19,5.52,5.52,0,0,1,.86,2.87l-1.24.27a4.88,4.88,0,0,0-.71-2.55c-.83-1.39-2.16-2-4-.86l-.84.49,0,0a3.08,3.08,0,0,1,2.67,1.64c1.1,1.85.31,4.12-1.76,5.35-2.54,1.51-5,.71-6-1a2.89,2.89,0,0,1-.08-3.11l0,0-1.17.61Zm3.8-.34a2.2,2.2,0,0,0-.57.44,2.29,2.29,0,0,0-.32,2.76c.78,1.3,2.43,1.58,4.16.55,1.47-.87,2.26-2.34,1.38-3.81a2.3,2.3,0,0,0-2.51-1.06,2.62,2.62,0,0,0-.79.32Z" transform="translate(-18.32 2.21)"/><path d="M1552,1057a4.22,4.22,0,0,0-.52-2.11c-.59-1-1.36-1.17-2-.8s-.78,1-.55,2.21c.32,1.64-.05,2.71-1,3.24-1.21.72-2.78.33-3.73-1.28a4.35,4.35,0,0,1-.63-2.12l1.19-.24a3.37,3.37,0,0,0,.48,1.79,1.27,1.27,0,0,0,1.76.65c.62-.37.63-1,.43-2.18-.28-1.6,0-2.65,1.09-3.31,1.32-.78,2.86-.31,3.91,1.47a4.91,4.91,0,0,1,.74,2.41Z" transform="translate(-18.32 2.21)"/><path d="M1551.27,1048.72l-12.34,7.32-1.68-2.84.85-.5,1.06,1.78,10.64-6.31-1.06-1.78.85-.51Z" transform="translate(-18.32 2.21)"/><path d="M1535.21,1049.8l12.36-7.33,1.68,2.83-.85.51-1.06-1.78-10.65,6.32,1,1.78-.85.5Z" transform="translate(-18.32 2.21)"/><path d="M1539.48,1044.68l-.93.56-4.74-8,.93-.55Zm3-1.8-.93.55-4.74-8,.93-.55Z" transform="translate(-18.32 2.21)"/><path d="M1526.35,1034.82l3.87-1.94.49.82-3.56,2.47Zm1.37,2.31,3.87-1.94.5.83-3.57,2.46Z" transform="translate(-18.32 2.21)"/><path d="M1525.23,1027.53l3.64-2.15-2.08-3.5.93-.56,2.08,3.5,3.67-2.17.59,1-3.67,2.18,2.07,3.5-.93.55-2.07-3.5-3.64,2.16Z" transform="translate(-18.32 2.21)"/><path d="M1526.42,1018.74a2.79,2.79,0,0,0,1.08-4.12,5.75,5.75,0,0,0-1.62-1.84l.84-.81a7,7,0,0,1,1.94,2.21,4,4,0,0,1-1.59,5.93c-2.26,1.34-4.83,1.07-6.13-1.12-1.45-2.44.32-4.37,1.7-5.19.28-.16.51-.26.66-.33Zm-3.34-3.42a2.25,2.25,0,0,0-1.1,3.2,2.63,2.63,0,0,0,3.46.78Z" transform="translate(-18.32 2.21)"/><path d="M1520.29,1012.89c-.77.46-1.4.85-2,1.26l-.71-1.21,1.19-.81,0,0a3.21,3.21,0,0,1-2.88-1.64c-.61-1-1-3,1.62-4.54l4.48-2.66.81,1.37-4.33,2.56c-1.2.72-1.94,1.76-1.18,3a2.24,2.24,0,0,0,2.48,1,2.7,2.7,0,0,0,.69-.28l4.5-2.68.81,1.36Z" transform="translate(-18.32 2.21)"/><path d="M1517.22,995.87a5.87,5.87,0,0,1,1.71,1.9,4.14,4.14,0,0,1-1.61,6,4.43,4.43,0,0,1-6.37-1.67,5.13,5.13,0,0,1-.73-2.11l1.23-.32a3.69,3.69,0,0,0,.58,1.79,3.29,3.29,0,0,0,5.67-3.3,4.49,4.49,0,0,0-1.37-1.45Z" transform="translate(-18.32 2.21)"/><path d="M1508.77,989.68a4.27,4.27,0,0,1,6.2,1.37,4.15,4.15,0,0,1-1.73,5.88c-2.51,1.49-5,.72-6.18-1.35S1506.48,991,1508.77,989.68Zm3.61,5.9c1.64-1,2.32-2.65,1.53-4s-2.58-1.55-4.26-.55c-1.27.75-2.51,2.34-1.55,4S1511,996.43,1512.38,995.58Z" transform="translate(-18.32 2.21)"/><path d="M1496.73,985.76l9.06-5.38c.67-.39,1.42-.86,1.9-1.21l.73,1.23-1.27.83,0,0a3.23,3.23,0,0,1,3,1.68c1.07,1.82.37,4.12-1.91,5.47-2.48,1.49-4.93.85-6-1a2.89,2.89,0,0,1-.19-2.94l0,0-4.48,2.66Zm7.36-2.53a2.6,2.6,0,0,0-.53.41,2.33,2.33,0,0,0-.42,2.9c.84,1.41,2.57,1.51,4.23.53s2.33-2.39,1.46-3.86a2.38,2.38,0,0,0-2.81-1,3.19,3.19,0,0,0-.63.29Z" transform="translate(-18.32 2.21)"/><path d="M1502.44,978.29a2.8,2.8,0,0,0,1.07-4.12,5.63,5.63,0,0,0-1.61-1.84l.83-.81a7,7,0,0,1,2,2.21,4,4,0,0,1-1.6,5.93c-2.26,1.34-4.83,1.07-6.12-1.12-1.45-2.44.31-4.37,1.69-5.19.28-.16.52-.26.66-.33Zm-3.35-3.42a2.26,2.26,0,0,0-1.09,3.2,2.62,2.62,0,0,0,3.45.78Z" transform="translate(-18.32 2.21)"/><path d="M1490.53,974l6.18-3.66c2.33-1.39,2.71-3,1.88-4.41-.92-1.55-2.53-1.93-4.83-.56l-6.18,3.66-.81-1.36,6.09-3.61c3.2-1.9,5.52-1,6.86,1.26s1,4.48-2.24,6.4l-6.15,3.65Z" transform="translate(-18.32 2.21)"/><path d="M1485.51,965.24a15.9,15.9,0,0,1-1.75-2.45,5,5,0,0,1-.94-3.53,3.06,3.06,0,0,1,1.5-2,3.2,3.2,0,0,1,3.83.39l0,0a3,3,0,0,1,1.19-2.78,18.82,18.82,0,0,0,2.39-2.5l.83,1.39a16.5,16.5,0,0,1-2.08,2.18c-1.26,1.16-1.47,2-.79,3.29l.75,1.27,4.52-2.68.8,1.35Zm4-4.16-.82-1.38c-.85-1.44-2.18-1.89-3.38-1.18s-1.35,2.12-.52,3.56a6.3,6.3,0,0,0,.91,1.26Z" transform="translate(-18.32 2.21)"/><path d="M1479.64,955.66l10.44-6.19.8,1.35L1480.44,957Z" transform="translate(-18.32 2.21)"/><path d="M1484,940a7.76,7.76,0,0,1,2.13,2.46c1.74,2.94,1.2,6.26-2.22,8.29a6,6,0,0,1-8.72-2.2,6.63,6.63,0,0,1-1-2.76l1.3-.32a5.66,5.66,0,0,0,.81,2.36c1.45,2.45,4,3.15,6.72,1.52,2.56-1.51,3.33-4,1.82-6.5a6.06,6.06,0,0,0-1.74-1.94Z" transform="translate(-18.32 2.21)"/><path d="M1475.66,933.83a4.26,4.26,0,0,1,6.19,1.37,4.13,4.13,0,0,1-1.72,5.88c-2.51,1.49-5,.72-6.19-1.35S1473.37,935.19,1475.66,933.83Zm3.6,5.9c1.65-1,2.32-2.65,1.53-4s-2.57-1.55-4.26-.55c-1.27.75-2.5,2.34-1.55,3.95S1477.84,940.58,1479.26,939.73Z" transform="translate(-18.32 2.21)"/><path d="M1473,933.09c-.77.46-1.4.85-2,1.26l-.71-1.19,1.17-.78,0,0a3,3,0,0,1-2.77-1.53,2.56,2.56,0,0,1,.24-3v0a3.59,3.59,0,0,1-1.48-.25,3.07,3.07,0,0,1-1.51-1.35c-.58-1-.81-2.85,1.8-4.39l4.41-2.62.79,1.33-4.24,2.52c-1.44.85-2,1.9-1.35,3a2.06,2.06,0,0,0,2.2.87,2.76,2.76,0,0,0,.74-.29l4.63-2.75.79,1.33-4.49,2.67c-1.19.7-1.74,1.74-1.13,2.78a2.17,2.17,0,0,0,2.37.88,2.1,2.1,0,0,0,.72-.29l4.53-2.68.79,1.33Z" transform="translate(-18.32 2.21)"/><path d="M1465.74,919.92c-1,.57-1.72,1.06-2.41,1.51l-.73-1.22,1.25-.83,0,0a3.39,3.39,0,0,1-3-1.8c-1.08-1.81-.35-4.08,1.92-5.43,2.7-1.6,5-.75,6,1a3,3,0,0,1,.19,3l0,0,4.07-2.41.8,1.35Zm1.2-2.53a3.1,3.1,0,0,0,.52-.4,2.44,2.44,0,0,0,.38-3c-.85-1.44-2.53-1.57-4.25-.55-1.5.89-2.31,2.44-1.46,3.88a2.53,2.53,0,0,0,2.91,1.06,2.67,2.67,0,0,0,.61-.24Z" transform="translate(-18.32 2.21)"/><path d="M1457.73,903.6a4.26,4.26,0,0,1,6.2,1.37,4.15,4.15,0,0,1-1.73,5.88c-2.51,1.49-5,.72-6.18-1.36S1455.44,905,1457.73,903.6Zm3.61,5.9c1.64-1,2.32-2.66,1.53-4s-2.58-1.55-4.26-.55c-1.27.75-2.51,2.35-1.55,4S1459.91,910.34,1461.34,909.5Z" transform="translate(-18.32 2.21)"/><path d="M1455.06,902.86c-.78.46-1.4.85-2,1.26l-.71-1.21,1.19-.81,0,0a3.21,3.21,0,0,1-2.88-1.64c-.61-1-1-3,1.62-4.54l4.48-2.66.81,1.37-4.32,2.56c-1.21.72-2,1.76-1.19,3.05a2.27,2.27,0,0,0,2.48,1,2.22,2.22,0,0,0,.69-.29l4.51-2.67.8,1.36Z" transform="translate(-18.32 2.21)"/><path d="M1451.47,892.33a2.79,2.79,0,0,0,1.08-4.12,5.75,5.75,0,0,0-1.62-1.84l.84-.81a6.9,6.9,0,0,1,1.94,2.22,4,4,0,0,1-1.59,5.92c-2.26,1.34-4.83,1.07-6.13-1.12-1.45-2.44.32-4.37,1.7-5.19.28-.16.51-.26.66-.33Zm-3.34-3.42a2.25,2.25,0,0,0-1.1,3.2,2.63,2.63,0,0,0,3.46.78Z" transform="translate(-18.32 2.21)"/><path d="M1445.36,886.51c-.77.46-1.4.85-2,1.26l-.71-1.2,1.19-.82,0,0a3.21,3.21,0,0,1-2.88-1.64c-.61-1-1-3,1.62-4.54l4.48-2.65.81,1.36-4.33,2.56c-1.2.72-1.94,1.76-1.18,3.05a2.24,2.24,0,0,0,2.48,1,2.7,2.7,0,0,0,.69-.28l4.5-2.68.81,1.37Z" transform="translate(-18.32 2.21)"/><path d="M1435.14,878.8l2.15-1.28-1.16-1.95,1-.62,1.16,2,4-2.4c.93-.55,1.3-1.13.85-1.89a3.44,3.44,0,0,0-.56-.73l1-.67a3.9,3.9,0,0,1,.9,1.1,2.21,2.21,0,0,1,.3,1.81,3.27,3.27,0,0,1-1.64,1.68l-4.09,2.43.69,1.16-1,.61-.69-1.16-1.79,1.07Z" transform="translate(-18.32 2.21)"/><path d="M1430.23,873a11.87,11.87,0,0,0,7.49-1.8,12.09,12.09,0,0,0,5.13-5.68l.64,1.07a11.74,11.74,0,0,1-5.09,5.76,11.86,11.86,0,0,1-7.54,1.72Z" transform="translate(-18.32 2.21)"/><path d="M1437.67,861.06l-.88.67,0,0a3.26,3.26,0,0,1,2.48,1.63,2.48,2.48,0,0,1-.8,3.57c-1.81,1.07-3.75,0-5.46-2.86l-.15.1a1.79,1.79,0,0,0-.73,2.73,4.36,4.36,0,0,0,1.72,1.62l-.72.84a5.36,5.36,0,0,1-2.12-2.07c-1.36-2.29-.13-3.77,1.37-4.66l2.81-1.67a11.7,11.7,0,0,0,1.72-1.19Zm-3.71,2.47c.85,1.51,2.12,3,3.57,2.18a1.41,1.41,0,0,0,.54-2.06,2.17,2.17,0,0,0-2.33-1.07,1.83,1.83,0,0,0-.48.18Z" transform="translate(-18.32 2.21)"/><path d="M1430.54,860.8c-.88.52-1.63,1-2.3,1.45l-.71-1.19,1.44-.92,0-.06a2.63,2.63,0,0,1-2.88-1.11,1.6,1.6,0,0,1-.18-.41l1.29-.76a2.34,2.34,0,0,0,.23.49,2.22,2.22,0,0,0,2.83.79,4.45,4.45,0,0,0,.67-.32l4-2.37.8,1.35Z" transform="translate(-18.32 2.21)"/><path d="M1421.43,850.78c.57-.29,1.19-.62,2.1-1.16l4.35-2.58c1.72-1,3-1.31,4.06-1a4.69,4.69,0,0,1,2.52,2.2,5.59,5.59,0,0,1,.85,2.86l-1.24.27a4.88,4.88,0,0,0-.71-2.55c-.83-1.39-2.16-2-4-.86l-.84.5,0,0a3.1,3.1,0,0,1,2.67,1.64c1.1,1.86.31,4.13-1.76,5.36-2.54,1.5-5,.7-6-1a2.89,2.89,0,0,1-.08-3.11l0,0-1.17.61Zm3.8-.35a2,2,0,0,0-.57.45,2.28,2.28,0,0,0-.32,2.76c.78,1.3,2.43,1.57,4.16.55,1.47-.88,2.26-2.35,1.38-3.82a2.32,2.32,0,0,0-2.51-1.06,2.91,2.91,0,0,0-.79.32Z" transform="translate(-18.32 2.21)"/><path d="M1421.87,839.09c.78-.46,1.45-.88,2-1.28l.72,1.21-1.18.8,0,0a3.29,3.29,0,0,1,2.86,1.65c.7,1.18.88,3-1.75,4.54l-4.38,2.6-.81-1.36,4.15-2.47c1.43-.84,2.13-1.85,1.39-3.08a2.28,2.28,0,0,0-2.3-1.07,2.69,2.69,0,0,0-.77.29l-4.6,2.73-.81-1.36Z" transform="translate(-18.32 2.21)"/><path d="M1417.11,838.86c-.77.46-1.4.85-2,1.26l-.71-1.19,1.17-.78,0,0a3,3,0,0,1-2.78-1.54,2.57,2.57,0,0,1,.24-3v0a3.68,3.68,0,0,1-1.47-.26,3,3,0,0,1-1.51-1.35c-.59-1-.82-2.85,1.79-4.39l4.41-2.62.79,1.34-4.24,2.51c-1.44.86-2,1.9-1.35,3a2.05,2.05,0,0,0,2.2.87,2.76,2.76,0,0,0,.74-.29l4.63-2.75.79,1.33-4.49,2.67c-1.19.7-1.74,1.74-1.13,2.78a2.18,2.18,0,0,0,2.37.88,2.44,2.44,0,0,0,.73-.28l4.52-2.69.79,1.34Z" transform="translate(-18.32 2.21)"/><path d="M1411,824a2.81,2.81,0,0,0,1.08-4.12,5.75,5.75,0,0,0-1.62-1.84l.83-.82a7.13,7.13,0,0,1,2,2.22,4,4,0,0,1-1.59,5.93c-2.27,1.34-4.84,1.07-6.13-1.12-1.45-2.45.31-4.37,1.69-5.19a6.57,6.57,0,0,1,.66-.33Zm-3.35-3.42a2.26,2.26,0,0,0-1.09,3.2,2.62,2.62,0,0,0,3.45.78Z" transform="translate(-18.32 2.21)"/><path d="M1404.84,818.17c-.77.46-1.4.85-2,1.26l-.72-1.21,1.2-.81,0,0a3.2,3.2,0,0,1-2.88-1.64c-.62-1-1-3,1.62-4.54l4.47-2.66.81,1.37-4.32,2.56c-1.21.72-2,1.76-1.18,3a2.3,2.3,0,0,0,3.16.71l4.51-2.67.81,1.36Z" transform="translate(-18.32 2.21)"/><path d="M1394.63,810.47l2.15-1.28-1.16-2,1-.62,1.16,2,4-2.4c.93-.55,1.3-1.13.85-1.89a3.8,3.8,0,0,0-.56-.73l1-.67a3.9,3.9,0,0,1,.91,1.1,2.2,2.2,0,0,1,.29,1.81,3.21,3.21,0,0,1-1.63,1.68l-4.09,2.43.69,1.16-1,.61-.69-1.16-1.8,1.07Z" transform="translate(-18.32 2.21)"/><path d="M1400.93,802.29a4.13,4.13,0,0,0-.52-2.12c-.59-1-1.36-1.16-2-.79s-.78,1-.55,2.21c.32,1.63-.05,2.7-1,3.24-1.2.71-2.77.33-3.73-1.28a4.38,4.38,0,0,1-.63-2.12l1.2-.25a3.34,3.34,0,0,0,.47,1.79,1.27,1.27,0,0,0,1.77.65c.62-.37.63-1,.42-2.18-.27-1.59,0-2.65,1.1-3.31,1.31-.78,2.85-.31,3.91,1.47a5,5,0,0,1,.73,2.41Z" transform="translate(-18.32 2.21)"/><path d="M1400.23,794l-12.35,7.32-1.68-2.83.85-.51,1.06,1.78,10.64-6.31-1.06-1.78.85-.5Z" transform="translate(-18.32 2.21)"/><path d="M1390.81,793.79c-.89.52-1.64,1-2.31,1.44l-.7-1.19,1.44-.92,0-.06a2.61,2.61,0,0,1-2.87-1.1,1.66,1.66,0,0,1-.18-.42l1.28-.76a2.66,2.66,0,0,0,.23.49,2.23,2.23,0,0,0,2.84.79,4.34,4.34,0,0,0,.67-.31l4-2.37.8,1.35Z" transform="translate(-18.32 2.21)"/><path d="M1382.36,786.56l3.64-2.16-2.08-3.5.93-.55,2.07,3.5,3.68-2.18.58,1-3.67,2.17,2.08,3.5-.93.55-2.08-3.5-3.64,2.16Z" transform="translate(-18.32 2.21)"/><path d="M1377.2,779.14l0,0,2,1.19-.88.88-2.48-1.51-.69-1.16,10.07-6,.78,1.32Z" transform="translate(-18.32 2.21)"/><path d="M1371,772.79l12.36-7.33,1.68,2.83-.85.51L1383.1,767l-10.66,6.32,1.06,1.78-.85.5Z" transform="translate(-18.32 2.21)"/><path d="M1382.54,763.81a12.22,12.22,0,0,0-7.5,1.8,12,12,0,0,0-5.13,5.68l-.62-1a11.49,11.49,0,0,1,5.1-5.77,11.69,11.69,0,0,1,7.52-1.72Z" transform="translate(-18.32 2.21)"/><path d="M1371.43,763.61a1.06,1.06,0,0,1-1.52-.34,1,1,0,0,1,.43-1.49,1.07,1.07,0,1,1,1.09,1.83Zm8.55-4.18a25.93,25.93,0,0,0-4.25,1.27l-1-1.41a23.07,23.07,0,0,1,4.64-.75Z" transform="translate(-18.32 2.21)"/><path d="M1370.2,759.74c-.77.46-1.4.85-2,1.27l-.72-1.21,1.2-.81,0,0a3.21,3.21,0,0,1-2.88-1.65c-.62-1-1-3,1.62-4.54l4.47-2.65.81,1.36-4.32,2.56c-1.21.72-1.95,1.77-1.18,3.05a2.24,2.24,0,0,0,2.47,1,2.18,2.18,0,0,0,.69-.28l4.51-2.67.81,1.36Z" transform="translate(-18.32 2.21)"/><path d="M1360,748.8l3.64-2.16-2.07-3.5.93-.55,2.07,3.5,3.67-2.18.59,1-3.67,2.18,2.08,3.5-.93.55-2.08-3.5-3.64,2.16Z" transform="translate(-18.32 2.21)"/><path d="M1360.18,742.27l-.93.55-4.74-8,.93-.55Zm3-1.8-.92.55-4.75-8,.93-.55Z" transform="translate(-18.32 2.21)"/><path d="M1347,732.4l3.88-1.94.48.82-3.56,2.47Zm1.37,2.31,3.87-1.94.5.83-3.57,2.46Z" transform="translate(-18.32 2.21)"/><path d="M1354.49,720.78l-6.46,3.83.63,1.06-1,.61-.62-1-.36.21a4.11,4.11,0,0,1-3.13.69,3,3,0,0,1-1.78-1.42,3.41,3.41,0,0,1-.47-1.29l1.16-.44a2.4,2.4,0,0,0,.34,1c.69,1.16,1.89.85,3,.17l.41-.24-1.08-1.81,1-.61,1.08,1.81,6.45-3.83Z" transform="translate(-18.32 2.21)"/><path d="M1344.19,712.09a4.25,4.25,0,0,1,6.19,1.37,4.15,4.15,0,0,1-1.73,5.88,4.25,4.25,0,0,1-6.18-1.36C1341.19,715.83,1341.89,713.45,1344.19,712.09Zm3.6,5.9c1.64-1,2.32-2.65,1.53-4s-2.57-1.55-4.26-.55c-1.27.76-2.51,2.35-1.55,4S1346.37,718.83,1347.79,718Z" transform="translate(-18.32 2.21)"/><path d="M1341.82,711.16c-.89.53-1.64,1-2.3,1.45l-.71-1.19,1.44-.92,0-.06a2.63,2.63,0,0,1-2.88-1.11,1.6,1.6,0,0,1-.18-.41l1.29-.76a2.26,2.26,0,0,0,.22.49,2.23,2.23,0,0,0,2.84.79,4.45,4.45,0,0,0,.67-.32l4-2.36.79,1.34Z" transform="translate(-18.32 2.21)"/><path d="M1331.41,703.85l2.15-1.28-1.16-2,1-.62,1.16,2,4-2.39c.93-.56,1.3-1.13.85-1.89a3.19,3.19,0,0,0-.56-.73l1-.67a3.9,3.9,0,0,1,.91,1.1,2.25,2.25,0,0,1,.3,1.81,3.27,3.27,0,0,1-1.64,1.68l-4.09,2.43.69,1.16-1,.61-.69-1.16-1.8,1.07Z" transform="translate(-18.32 2.21)"/><path d="M1328,701.15l-.81-1.37,4.67-2.77v0a3,3,0,0,1-1.54-.41,3.29,3.29,0,0,1-1.22-1.16c-.59-1-.93-3,1.66-4.52l4.46-2.65.81,1.37-4.31,2.55c-1.21.72-2,1.77-1.2,3.06a2.28,2.28,0,0,0,2.45,1,2,2,0,0,0,.7-.3l4.52-2.68.81,1.36Z" transform="translate(-18.32 2.21)"/><path d="M1329.94,687.36a2.79,2.79,0,0,0,1.08-4.12,5.75,5.75,0,0,0-1.62-1.84l.84-.81a7,7,0,0,1,1.94,2.21,4,4,0,0,1-1.59,5.93c-2.26,1.34-4.83,1.07-6.13-1.12-1.45-2.44.32-4.37,1.7-5.19.28-.16.51-.26.66-.33Zm-3.34-3.42a2.25,2.25,0,0,0-1.1,3.2,2.63,2.63,0,0,0,3.46.78Z" transform="translate(-18.32 2.21)"/><path d="M1327.26,674.85l-6.46,3.83.62,1.05-1,.61-.62-1.05-.36.21a4.11,4.11,0,0,1-3.13.69,3,3,0,0,1-1.78-1.42,3.79,3.79,0,0,1-.47-1.29l1.16-.44a2.39,2.39,0,0,0,.35,1c.68,1.16,1.88.85,3,.17l.4-.24-1.07-1.81,1-.61,1.08,1.81,6.46-3.83Z" transform="translate(-18.32 2.21)"/><path d="M1318.9,665.41c.77-.46,1.45-.88,2-1.27l.71,1.21-1.17.8v0a3.29,3.29,0,0,1,2.87,1.65c.7,1.18.88,3-1.75,4.54L1317.2,675l-.81-1.36,4.15-2.46c1.42-.84,2.13-1.85,1.39-3.09a2.29,2.29,0,0,0-2.3-1.06,2.14,2.14,0,0,0-.77.29l-4.6,2.73-.81-1.36Z" transform="translate(-18.32 2.21)"/><path d="M1308.61,668.46l-.81-1.36,11-6.52.81,1.36Z" transform="translate(-18.32 2.21)"/><path d="M1306.43,664.79l-.81-1.36,11-6.52.81,1.36Z" transform="translate(-18.32 2.21)"/><path d="M1307.86,654.59c-.78.46-1.4.85-2,1.27l-.71-1.19,1.17-.78,0,0a3,3,0,0,1-2.77-1.54,2.57,2.57,0,0,1,.24-3l0,0a3.57,3.57,0,0,1-1.47-.26,3,3,0,0,1-1.51-1.34c-.59-1-.81-2.85,1.79-4.39l4.42-2.62.79,1.33-4.25,2.52c-1.44.85-2,1.89-1.34,3a2.05,2.05,0,0,0,2.2.88,2.62,2.62,0,0,0,.74-.3l4.63-2.74.79,1.33-4.49,2.66c-1.19.71-1.75,1.75-1.13,2.79a2.17,2.17,0,0,0,2.36.88,2.28,2.28,0,0,0,.73-.29l4.53-2.68.79,1.33Z" transform="translate(-18.32 2.21)"/><path d="M1301.7,639.73a2.79,2.79,0,0,0,1.08-4.12,5.75,5.75,0,0,0-1.62-1.84l.84-.81a7,7,0,0,1,1.94,2.21,4,4,0,0,1-1.59,5.93c-2.26,1.34-4.83,1.07-6.13-1.12-1.45-2.44.32-4.37,1.7-5.19.28-.16.51-.26.66-.33Zm-3.34-3.42a2.25,2.25,0,0,0-1.1,3.2,2.63,2.63,0,0,0,3.46.78Z" transform="translate(-18.32 2.21)"/><path d="M1299.78,631.68a4.15,4.15,0,0,0-.53-2.12c-.58-1-1.36-1.16-2-.8s-.78,1-.56,2.22c.32,1.63,0,2.7-.94,3.24-1.21.71-2.78.32-3.74-1.29a4.29,4.29,0,0,1-.62-2.11l1.19-.25a3.43,3.43,0,0,0,.47,1.79,1.27,1.27,0,0,0,1.77.65c.62-.37.63-1,.43-2.18-.28-1.6,0-2.65,1.09-3.31,1.32-.78,2.85-.31,3.91,1.47a5,5,0,0,1,.74,2.41Z" transform="translate(-18.32 2.21)"/><path d="M1296.14,625.54a4.12,4.12,0,0,0-.52-2.11c-.59-1-1.36-1.17-2-.8s-.78,1-.55,2.21c.32,1.64,0,2.71-.95,3.24-1.21.72-2.78.33-3.73-1.28a4.35,4.35,0,0,1-.63-2.12l1.19-.24a3.46,3.46,0,0,0,.48,1.79,1.27,1.27,0,0,0,1.76.65c.62-.37.64-1,.43-2.18-.28-1.6,0-2.65,1.09-3.31,1.32-.78,2.86-.31,3.91,1.47a4.91,4.91,0,0,1,.74,2.41Z" transform="translate(-18.32 2.21)"/><path d="M1291.32,614.24l-.88.67,0,.05a3.2,3.2,0,0,1,2.47,1.63,2.49,2.49,0,0,1-.79,3.57c-1.81,1.07-3.76.05-5.46-2.86l-.16.09a1.81,1.81,0,0,0-.72,2.74,4.37,4.37,0,0,0,1.72,1.62l-.72.84a5.38,5.38,0,0,1-2.13-2.07c-1.36-2.29-.12-3.78,1.38-4.67l2.8-1.66a12.66,12.66,0,0,0,1.73-1.19Zm-3.7,2.47c.85,1.51,2.11,3,3.57,2.17a1.4,1.4,0,0,0,.54-2,2.17,2.17,0,0,0-2.33-1.07,1.54,1.54,0,0,0-.48.18Z" transform="translate(-18.32 2.21)"/><path d="M1278,608.93c.56-.3,1.18-.62,2.09-1.16l4.36-2.59c1.72-1,3-1.3,4-1a4.62,4.62,0,0,1,2.52,2.2,5.65,5.65,0,0,1,.86,2.86l-1.24.27A5,5,0,0,0,1290,607c-.82-1.39-2.16-2-4-.86l-.83.5v0a3.1,3.1,0,0,1,2.67,1.64c1.11,1.86.32,4.13-1.76,5.36-2.54,1.5-5,.7-6-1a2.9,2.9,0,0,1-.09-3.11l0,0-1.16.61Zm3.79-.35a2.18,2.18,0,0,0-.57.45,2.27,2.27,0,0,0-.31,2.75c.77,1.3,2.42,1.58,4.16.55,1.47-.87,2.25-2.34,1.38-3.81a2.32,2.32,0,0,0-2.52-1.06,2.62,2.62,0,0,0-.79.32Z" transform="translate(-18.32 2.21)"/><path d="M1280.28,603.59a2.8,2.8,0,0,0,1.08-4.11,5.7,5.7,0,0,0-1.62-1.85l.84-.81a7.14,7.14,0,0,1,1.94,2.22,4,4,0,0,1-1.59,5.92c-2.26,1.35-4.84,1.07-6.13-1.11-1.45-2.45.31-4.38,1.69-5.19a4.39,4.39,0,0,1,.67-.33Zm-3.35-3.42a2.26,2.26,0,0,0-1.09,3.21,2.62,2.62,0,0,0,3.45.77Z" transform="translate(-18.32 2.21)"/><path d="M1269.84,586.7a4.27,4.27,0,0,1,6.2,1.37,4.15,4.15,0,0,1-1.73,5.88c-2.51,1.49-5,.72-6.18-1.35S1267.55,588.06,1269.84,586.7Zm3.61,5.9c1.64-1,2.32-2.65,1.53-4s-2.58-1.55-4.27-.55c-1.26.75-2.5,2.34-1.54,3.95S1272,593.45,1273.45,592.6Z" transform="translate(-18.32 2.21)"/><path d="M1267.49,585.8c-.88.53-1.63,1-2.3,1.45l-.71-1.19,1.45-.92,0-.06A2.62,2.62,0,0,1,1263,584a1.9,1.9,0,0,1-.19-.42l1.29-.76a2.13,2.13,0,0,0,.23.49,2.22,2.22,0,0,0,2.83.79,4.91,4.91,0,0,0,.67-.31l4-2.37.8,1.34Z" transform="translate(-18.32 2.21)"/><path d="M1261.92,569.32c.78-.46,1.45-.88,2-1.28l.72,1.21-1.18.8,0,0a3.28,3.28,0,0,1,2.86,1.66c.7,1.17.89,3-1.75,4.53l-4.38,2.6-.81-1.36,4.15-2.47c1.43-.84,2.13-1.84,1.4-3.08a2.29,2.29,0,0,0-2.31-1.06,2.21,2.21,0,0,0-.77.29l-4.6,2.72-.81-1.36Z" transform="translate(-18.32 2.21)"/><path d="M1261.35,566.87a4.13,4.13,0,0,0-.52-2.12c-.59-1-1.36-1.16-2-.79s-.78,1-.55,2.21c.32,1.63,0,2.7-1,3.24-1.21.71-2.78.33-3.73-1.29A4.31,4.31,0,0,1,1253,566l1.19-.25a3.37,3.37,0,0,0,.48,1.79,1.27,1.27,0,0,0,1.76.65c.62-.37.64-1,.43-2.18-.28-1.6,0-2.65,1.09-3.31,1.32-.78,2.86-.31,3.91,1.47a4.91,4.91,0,0,1,.74,2.41Z" transform="translate(-18.32 2.21)"/><path d="M1255.05,561a2.8,2.8,0,0,0,1.08-4.11,5.7,5.7,0,0,0-1.62-1.85l.84-.81a7.14,7.14,0,0,1,1.94,2.22,4.05,4.05,0,0,1-1.59,5.93c-2.26,1.34-4.84,1.06-6.13-1.12-1.45-2.45.31-4.38,1.69-5.19a4.39,4.39,0,0,1,.67-.33Zm-3.35-3.42a2.26,2.26,0,0,0-1.09,3.21,2.61,2.61,0,0,0,3.45.77Z" transform="translate(-18.32 2.21)"/><path d="M1241.84,552.78l2.15-1.28-1.16-2,1-.61,1.16,1.95,4-2.4c.93-.55,1.3-1.13.85-1.89a3.44,3.44,0,0,0-.56-.73l1-.67a3.9,3.9,0,0,1,.9,1.1,2.21,2.21,0,0,1,.3,1.81,3.2,3.2,0,0,1-1.64,1.68l-4.09,2.43.69,1.16-1,.62-.69-1.17L1243,553.9Z" transform="translate(-18.32 2.21)"/><path d="M1238.42,550.08l-.81-1.37,4.67-2.77v0a3,3,0,0,1-1.54-.41,3.29,3.29,0,0,1-1.22-1.16c-.59-1-.93-3,1.66-4.52l4.46-2.65.81,1.37-4.31,2.55c-1.21.72-2,1.77-1.2,3.06a2.28,2.28,0,0,0,2.45,1,2,2,0,0,0,.7-.3l4.52-2.68.81,1.36Z" transform="translate(-18.32 2.21)"/><path d="M1240.36,536.27a2.8,2.8,0,0,0,1.08-4.12,5.75,5.75,0,0,0-1.62-1.84l.84-.81a7.07,7.07,0,0,1,1.94,2.21,4,4,0,0,1-1.59,5.93c-2.26,1.34-4.84,1.07-6.13-1.12-1.45-2.44.32-4.37,1.69-5.19.28-.16.52-.26.67-.33Zm-3.35-3.42a2.26,2.26,0,0,0-1.09,3.2,2.63,2.63,0,0,0,3.46.78Z" transform="translate(-18.32 2.21)"/><path d="M1232.3,527.16c-.77.46-1.4.85-2,1.27l-.72-1.21,1.2-.81,0,0a3.21,3.21,0,0,1-2.88-1.65c-.62-1-1-3,1.62-4.54l4.48-2.65.8,1.36-4.32,2.56c-1.21.72-2,1.77-1.18,3a2.24,2.24,0,0,0,2.47,1,2.32,2.32,0,0,0,.7-.28l4.5-2.67.81,1.36Z" transform="translate(-18.32 2.21)"/><path d="M1224.83,510.79a4.26,4.26,0,0,1,6.2,1.37,4.15,4.15,0,0,1-1.73,5.88c-2.51,1.49-5,.72-6.18-1.36S1222.54,512.15,1224.83,510.79Zm3.61,5.9c1.64-1,2.32-2.65,1.53-4s-2.58-1.55-4.26-.55c-1.27.76-2.51,2.35-1.55,4S1227,517.53,1228.44,516.69Z" transform="translate(-18.32 2.21)"/><path d="M1222.16,510.05c-.78.46-1.4.85-2,1.27l-.72-1.21,1.19-.81,0,0a3.22,3.22,0,0,1-2.88-1.65c-.61-1-1-3,1.62-4.54l4.48-2.65.81,1.36-4.32,2.56c-1.21.72-1.95,1.77-1.19,3a2.24,2.24,0,0,0,2.48,1,2.18,2.18,0,0,0,.69-.28l4.51-2.67.8,1.36Z" transform="translate(-18.32 2.21)"/><path d="M1216,497.85l1-.6,2.27,3.82-1,.6Z" transform="translate(-18.32 2.21)"/><path d="M1214.25,496.71c-.78.46-1.4.85-2,1.26l-.7-1.19,1.17-.78,0-.05a3,3,0,0,1-2.77-1.53,2.56,2.56,0,0,1,.24-3l0,0a3.55,3.55,0,0,1-1.47-.25,3,3,0,0,1-1.51-1.35c-.59-1-.81-2.85,1.79-4.39l4.42-2.62.79,1.33-4.25,2.52c-1.44.85-2,1.9-1.34,3a2.06,2.06,0,0,0,2.19.87,2.82,2.82,0,0,0,.75-.29l4.63-2.75.79,1.33-4.49,2.67c-1.19.7-1.75,1.74-1.13,2.78a2.16,2.16,0,0,0,2.36.88,2.07,2.07,0,0,0,.73-.29l4.52-2.68.79,1.33Z" transform="translate(-18.32 2.21)"/><path d="M1201.56,484.74a1,1,0,0,1,1,1.68,1,1,0,0,1-1.36-.34A.94.94,0,0,1,1201.56,484.74Zm10.5-4.18-7.49,4.44-.81-1.36,7.49-4.44Z" transform="translate(-18.32 2.21)"/><path d="M1204.44,480.17c-.78.45-1.4.85-2,1.26l-.72-1.21,1.19-.81,0,0a3.21,3.21,0,0,1-2.88-1.64c-.61-1-1-3,1.62-4.54l4.48-2.66.81,1.36-4.32,2.57c-1.21.71-1.95,1.76-1.19,3a2.27,2.27,0,0,0,2.48,1,2.22,2.22,0,0,0,.69-.29l4.51-2.67.8,1.36Z" transform="translate(-18.32 2.21)"/><path d="M1194.31,472.5a.94.94,0,0,1,1.35.37,1,1,0,1,1-1.35-.37Zm10.5-4.17-7.5,4.44-.81-1.36L1204,467Z" transform="translate(-18.32 2.21)"/><path d="M1202.58,464.56l-6.46,3.83.62,1.06-1,.61-.63-1.05-.4.24a3.51,3.51,0,0,1-5.21-1.33,4.4,4.4,0,0,1-.63-2.2l1.27-.23a3.3,3.3,0,0,0,.5,1.84c.85,1.44,2.11,1.26,3.3.55l.37-.22-2.58-4.35,7.5-4.45.8,1.35-6.46,3.83,1.78,3,6.46-3.83Z" transform="translate(-18.32 2.21)"/><path d="M1193.91,457.92a2.8,2.8,0,0,0,1.08-4.11,5.7,5.7,0,0,0-1.62-1.85l.84-.81a7,7,0,0,1,1.94,2.22,4,4,0,0,1-1.59,5.92c-2.27,1.35-4.84,1.07-6.13-1.11-1.45-2.45.31-4.38,1.69-5.2.28-.16.52-.26.67-.33Zm-3.35-3.42a2.26,2.26,0,0,0-1.09,3.21,2.63,2.63,0,0,0,3.45.77Z" transform="translate(-18.32 2.21)"/><path d="M1178.42,448.89l9.06-5.37c.67-.4,1.42-.86,1.9-1.21l.73,1.22-1.27.84,0,0a3.23,3.23,0,0,1,3,1.68c1.07,1.81.37,4.12-1.91,5.47-2.48,1.49-4.94.85-6-1a2.92,2.92,0,0,1-.2-2.94v0l-4.48,2.66Zm7.36-2.52a2.55,2.55,0,0,0-.53.4,2.34,2.34,0,0,0-.42,2.91c.84,1.41,2.57,1.51,4.23.52s2.33-2.38,1.46-3.86a2.38,2.38,0,0,0-2.81-1,3.19,3.19,0,0,0-.63.29Z" transform="translate(-18.32 2.21)"/><path d="M1171.3,436.89l9.06-5.38c.67-.39,1.42-.86,1.9-1.21l.73,1.23-1.27.83,0,0a3.23,3.23,0,0,1,3,1.68c1.07,1.82.37,4.12-1.91,5.47-2.48,1.49-4.94.85-6-1a2.89,2.89,0,0,1-.19-2.94l0,0-4.48,2.65Zm7.36-2.53a3,3,0,0,0-.53.41,2.33,2.33,0,0,0-.42,2.9c.84,1.41,2.57,1.51,4.23.53s2.33-2.39,1.46-3.86a2.38,2.38,0,0,0-2.81-1,2.65,2.65,0,0,0-.63.28Z" transform="translate(-18.32 2.21)"/><path d="M1177,429.41a2.78,2.78,0,0,0,1.08-4.11,5.7,5.7,0,0,0-1.62-1.85l.84-.81a7,7,0,0,1,1.94,2.22,4.05,4.05,0,0,1-1.59,5.93c-2.26,1.34-4.83,1.06-6.13-1.12-1.45-2.45.32-4.38,1.7-5.19a4.39,4.39,0,0,1,.66-.33Zm-3.34-3.42a2.27,2.27,0,0,0-1.1,3.21,2.62,2.62,0,0,0,3.46.77Z" transform="translate(-18.32 2.21)"/><path d="M1168.55,424.25l3.34-4a21,21,0,0,1,1.56-1.74l0-.05c-.72.2-1.47.35-2.3.51l-5.07,1-.85-1.42,9.24-1.51.77,1.3-5.8,7.3Z" transform="translate(-18.32 2.21)"/><path d="M1166.05,410.93a2.79,2.79,0,0,0,1.07-4.11,5.57,5.57,0,0,0-1.61-1.85l.83-.81a7,7,0,0,1,2,2.22,4,4,0,0,1-1.6,5.92c-2.26,1.35-4.83,1.07-6.12-1.11-1.45-2.45.31-4.38,1.69-5.19a4.92,4.92,0,0,1,.66-.33Zm-3.35-3.42a2.26,2.26,0,0,0-1.09,3.21,2.62,2.62,0,0,0,3.45.77Z" transform="translate(-18.32 2.21)"/><path d="M1159.93,405.1c-.77.46-1.4.85-2,1.26l-.72-1.21,1.19-.81v0a3.19,3.19,0,0,1-2.88-1.64c-.62-1-1-3,1.62-4.54l4.47-2.66.81,1.37-4.32,2.56c-1.21.72-1.95,1.76-1.19,3.05a2.26,2.26,0,0,0,2.48,1,2.44,2.44,0,0,0,.69-.28l4.51-2.68.81,1.36Z" transform="translate(-18.32 2.21)"/><path d="M1152.61,397.37l3.34-4a21,21,0,0,1,1.56-1.74l0-.05c-.72.2-1.47.35-2.3.5l-5.07,1.05-.85-1.43,9.24-1.5.77,1.3-5.8,7.29Z" transform="translate(-18.32 2.21)"/><path d="M1145.5,390.18a.94.94,0,0,1,1.35.37,1,1,0,0,1-.35,1.32,1,1,0,0,1-1.36-.35A.94.94,0,0,1,1145.5,390.18ZM1156,386l-7.5,4.45-.8-1.36,7.49-4.45Z" transform="translate(-18.32 2.21)"/><path d="M1148.69,385.44c-.88.52-1.63,1-2.3,1.44l-.71-1.19,1.44-.92,0-.06a2.61,2.61,0,0,1-2.87-1.1,1.71,1.71,0,0,1-.19-.42l1.29-.76a2.13,2.13,0,0,0,.23.49,2.22,2.22,0,0,0,2.83.79,4,4,0,0,0,.67-.31l4-2.37.8,1.35Z" transform="translate(-18.32 2.21)"/><path d="M1143.1,372.93a4.26,4.26,0,0,1,6.19,1.37,4.14,4.14,0,0,1-1.72,5.88c-2.51,1.49-5,.72-6.19-1.35S1140.8,374.29,1143.1,372.93Zm3.6,5.9c1.64-1,2.32-2.65,1.53-4s-2.57-1.55-4.26-.55c-1.27.75-2.5,2.34-1.55,3.95S1145.28,379.68,1146.7,378.83Z" transform="translate(-18.32 2.21)"/><path d="M1140.44,372.22c-.78.46-1.4.85-2,1.27l-.72-1.21,1.19-.81,0,0a3.22,3.22,0,0,1-2.88-1.65c-.61-1-1-3,1.62-4.54l4.48-2.65.81,1.36-4.32,2.56c-1.21.72-1.95,1.77-1.19,3.05a2.24,2.24,0,0,0,2.48,1,2.18,2.18,0,0,0,.69-.28l4.51-2.67.8,1.36Z" transform="translate(-18.32 2.21)"/><path d="M1135.33,363.61c-.77.46-1.4.85-2,1.26l-.71-1.19,1.17-.78,0,0a3,3,0,0,1-2.77-1.54,2.57,2.57,0,0,1,.24-3v0a3.76,3.76,0,0,1-1.48-.26,3,3,0,0,1-1.51-1.35c-.58-1-.81-2.85,1.8-4.39l4.41-2.62.79,1.34-4.24,2.51c-1.44.86-2,1.9-1.35,3a2,2,0,0,0,2.2.87,2.76,2.76,0,0,0,.74-.29l4.63-2.75.79,1.33-4.49,2.67c-1.19.7-1.74,1.74-1.13,2.78a2.16,2.16,0,0,0,2.36.88,2.25,2.25,0,0,0,.73-.28L1140,359l.79,1.34Z" transform="translate(-18.32 2.21)"/><path d="M1129.19,348.76a2.79,2.79,0,0,0,1.07-4.11,5.58,5.58,0,0,0-1.62-1.85l.84-.81a7.14,7.14,0,0,1,2,2.22,4,4,0,0,1-1.6,5.92c-2.26,1.35-4.83,1.07-6.12-1.11-1.46-2.45.31-4.38,1.69-5.19a4.39,4.39,0,0,1,.66-.33Zm-3.35-3.42a2.26,2.26,0,0,0-1.09,3.21,2.62,2.62,0,0,0,3.45.77Z" transform="translate(-18.32 2.21)"/><path d="M1123.07,342.93c-.77.46-1.4.85-2,1.27l-.72-1.21,1.19-.81v0a3.2,3.2,0,0,1-2.88-1.65c-.62-1-1-3,1.62-4.54l4.47-2.65.81,1.36-4.32,2.56c-1.21.72-2,1.77-1.19,3a2.26,2.26,0,0,0,2.48,1,2.18,2.18,0,0,0,.69-.28l4.51-2.67.81,1.36Z" transform="translate(-18.32 2.21)"/><path d="M1112.86,335.24,1115,334l-1.16-1.95,1-.62,1.16,1.95,4-2.39c.93-.55,1.3-1.13.85-1.89a3.8,3.8,0,0,0-.56-.73l1-.67a3.73,3.73,0,0,1,.9,1.1,2.17,2.17,0,0,1,.3,1.81,3.21,3.21,0,0,1-1.63,1.68l-4.09,2.43.69,1.16-1,.61-.69-1.16-1.8,1.07Z" transform="translate(-18.32 2.21)"/><path d="M1118.42,322.62l-6.46,3.83.62,1.05-1,.61-.62-1.05-.36.21a4.11,4.11,0,0,1-3.13.69,3,3,0,0,1-1.78-1.42,3.79,3.79,0,0,1-.47-1.29l1.16-.44a2.39,2.39,0,0,0,.35,1c.68,1.16,1.88.85,3,.17l.4-.24L1109,323.9l1-.61,1.08,1.81,6.46-3.83Z" transform="translate(-18.32 2.21)"/><path d="M1108.11,313.92a4.25,4.25,0,0,1,6.19,1.37,4.14,4.14,0,0,1-1.72,5.88c-2.51,1.49-5,.72-6.19-1.36S1105.81,315.28,1108.11,313.92Zm3.6,5.9c1.64-1,2.32-2.65,1.53-4s-2.57-1.55-4.26-.54c-1.27.75-2.5,2.34-1.55,3.95S1110.29,320.67,1111.71,319.82Z" transform="translate(-18.32 2.21)"/><path d="M1105.74,313c-.89.52-1.64,1-2.31,1.45l-.7-1.2,1.44-.92,0-.06a2.61,2.61,0,0,1-2.87-1.1,1.6,1.6,0,0,1-.18-.41l1.28-.77a3.06,3.06,0,0,0,.23.5,2.23,2.23,0,0,0,2.84.79,4.45,4.45,0,0,0,.67-.32l4-2.37.8,1.35Z" transform="translate(-18.32 2.21)"/><path d="M1105.85,301.43l-6.46,3.83.63,1.05-1,.62-.62-1.06-.36.22a4.1,4.1,0,0,1-3.13.68,3,3,0,0,1-1.78-1.41,3.47,3.47,0,0,1-.47-1.29l1.16-.44a2.45,2.45,0,0,0,.34,1c.69,1.16,1.89.85,3,.17l.4-.24-1.08-1.82,1-.61,1.08,1.81,6.45-3.83Z" transform="translate(-18.32 2.21)"/><path d="M1097.5,292c.77-.46,1.45-.88,2-1.27l.71,1.21-1.17.8v0a3.29,3.29,0,0,1,2.87,1.65c.7,1.18.88,3-1.75,4.54l-4.38,2.59-.81-1.36,4.15-2.46c1.42-.85,2.13-1.85,1.39-3.09a2.29,2.29,0,0,0-2.3-1.06,2.14,2.14,0,0,0-.77.29l-4.6,2.73-.81-1.36Z" transform="translate(-18.32 2.21)"/><path d="M1087.21,295.05l-.81-1.36,11-6.52.81,1.36Z" transform="translate(-18.32 2.21)"/><path d="M1085,291.39l-.81-1.36,11-6.52.8,1.36Z" transform="translate(-18.32 2.21)"/><path d="M1088,279.26a2.8,2.8,0,0,0,1.07-4.12,5.63,5.63,0,0,0-1.61-1.84l.83-.81a7,7,0,0,1,2,2.21,4,4,0,0,1-1.6,5.93c-2.26,1.34-4.83,1.07-6.12-1.12-1.45-2.44.31-4.37,1.69-5.19.28-.16.52-.26.66-.33Zm-3.35-3.42a2.25,2.25,0,0,0-1.09,3.2,2.62,2.62,0,0,0,3.45.78Z" transform="translate(-18.32 2.21)"/><path d="M1082.17,273.25c-.88.52-1.63,1-2.3,1.45l-.71-1.2,1.45-.92,0-.06a2.61,2.61,0,0,1-2.87-1.1,2.12,2.12,0,0,1-.19-.41l1.29-.77a2.4,2.4,0,0,0,.23.5,2.22,2.22,0,0,0,2.83.79,4.53,4.53,0,0,0,.68-.32l4-2.37.8,1.35Z" transform="translate(-18.32 2.21)"/><path d="M1079.12,268.1c-.88.52-1.63,1-2.3,1.45l-.71-1.19,1.45-.92,0-.06a2.61,2.61,0,0,1-2.87-1.11,2.12,2.12,0,0,1-.19-.41l1.29-.76a2.34,2.34,0,0,0,.23.49,2.22,2.22,0,0,0,2.83.79,4,4,0,0,0,.67-.32l4-2.36.8,1.34Z" transform="translate(-18.32 2.21)"/><path d="M1073.54,255.62a4.26,4.26,0,0,1,6.2,1.38,4.15,4.15,0,0,1-1.73,5.88c-2.51,1.49-5,.72-6.18-1.36S1071.25,257,1073.54,255.62Zm3.61,5.91c1.64-1,2.32-2.66,1.53-4s-2.57-1.55-4.26-.55c-1.27.75-2.51,2.34-1.55,4S1075.72,262.37,1077.15,261.53Z" transform="translate(-18.32 2.21)"/><path d="M1071.18,254.71c-.88.52-1.63,1-2.3,1.44l-.71-1.19,1.44-.92,0-.06a2.63,2.63,0,0,1-2.88-1.1,1.66,1.66,0,0,1-.18-.42l1.29-.76a2.13,2.13,0,0,0,.23.49,2.22,2.22,0,0,0,2.83.79,4.34,4.34,0,0,0,.67-.31l4-2.37.8,1.35Z" transform="translate(-18.32 2.21)"/><path d="M1072,247.59a4,4,0,0,0-.52-2.12c-.59-1-1.36-1.16-2-.8s-.77,1-.55,2.21c.32,1.64,0,2.71-1,3.25-1.2.71-2.77.32-3.73-1.29a4.34,4.34,0,0,1-.63-2.11l1.2-.25a3.43,3.43,0,0,0,.47,1.79,1.28,1.28,0,0,0,1.77.65c.62-.37.63-1,.42-2.18-.27-1.6,0-2.65,1.1-3.31,1.31-.78,2.85-.31,3.91,1.47a5,5,0,0,1,.73,2.41Z" transform="translate(-18.32 2.21)"/><path d="M1065.29,233l-.88.67,0,0a3.24,3.24,0,0,1,2.47,1.63,2.49,2.49,0,0,1-.79,3.57c-1.82,1.07-3.76,0-5.46-2.85l-.16.09a1.79,1.79,0,0,0-.72,2.73,4.27,4.27,0,0,0,1.71,1.62l-.71.84a5.38,5.38,0,0,1-2.13-2.07c-1.36-2.29-.12-3.77,1.38-4.66l2.8-1.67a11.19,11.19,0,0,0,1.72-1.19Zm-3.71,2.47c.85,1.51,2.12,3,3.57,2.18a1.4,1.4,0,0,0,.54-2.06,2.16,2.16,0,0,0-2.33-1.07,2,2,0,0,0-.48.18Z" transform="translate(-18.32 2.21)"/><path d="M1057.85,232.94c-.77.45-1.4.85-2,1.26l-.72-1.21,1.2-.81,0,0a3.2,3.2,0,0,1-2.88-1.64c-.62-1-1-3,1.62-4.54l4.48-2.66.8,1.36-4.32,2.57c-1.21.71-2,1.76-1.18,3a2.27,2.27,0,0,0,2.47,1,2.22,2.22,0,0,0,.69-.29l4.51-2.67.81,1.36Z" transform="translate(-18.32 2.21)"/><path d="M1043.38,221.14l9.06-5.37c.67-.4,1.42-.86,1.9-1.21l.73,1.22-1.27.83,0,0a3.24,3.24,0,0,1,3,1.69c1.07,1.81.37,4.11-1.91,5.46-2.48,1.5-4.93.86-6-1a2.91,2.91,0,0,1-.19-2.94l0,0-4.48,2.65Zm7.36-2.52a2.55,2.55,0,0,0-.53.4,2.33,2.33,0,0,0-.42,2.9c.84,1.41,2.58,1.51,4.23.53s2.33-2.39,1.46-3.86a2.38,2.38,0,0,0-2.81-1,3.13,3.13,0,0,0-.63.28Z" transform="translate(-18.32 2.21)"/><path d="M1048.64,204.94l-.88.67,0,0a3.26,3.26,0,0,1,2.48,1.63,2.48,2.48,0,0,1-.8,3.57c-1.81,1.07-3.76,0-5.46-2.86l-.15.1a1.79,1.79,0,0,0-.73,2.73,4.43,4.43,0,0,0,1.72,1.62l-.72.84a5.36,5.36,0,0,1-2.12-2.07c-1.36-2.29-.13-3.77,1.37-4.66l2.81-1.67a11.7,11.7,0,0,0,1.72-1.19Zm-3.7,2.47c.85,1.51,2.11,3,3.57,2.18a1.41,1.41,0,0,0,.54-2.06,2.17,2.17,0,0,0-2.33-1.07,1.83,1.83,0,0,0-.48.18Z" transform="translate(-18.32 2.21)"/><path d="M1031.83,201.66l9.06-5.37c.67-.4,1.42-.86,1.9-1.21l.73,1.22-1.27.83,0,0a3.23,3.23,0,0,1,3,1.69c1.07,1.81.37,4.11-1.91,5.46-2.48,1.5-4.93.86-6-1a2.91,2.91,0,0,1-.19-2.94l0,0-4.48,2.65Zm7.36-2.52a2.55,2.55,0,0,0-.53.4,2.33,2.33,0,0,0-.42,2.9c.84,1.41,2.58,1.51,4.23.53s2.33-2.39,1.46-3.86a2.38,2.38,0,0,0-2.81-1,2.47,2.47,0,0,0-.62.29Z" transform="translate(-18.32 2.21)"/><path d="M1026.65,192.92l9.06-5.37c.67-.4,1.42-.86,1.9-1.21l.73,1.22-1.26.84v0a3.22,3.22,0,0,1,3,1.68c1.08,1.81.37,4.12-1.91,5.47-2.48,1.49-4.93.85-6-1a2.91,2.91,0,0,1-.19-2.94l0,0-4.48,2.66Zm7.36-2.52a3,3,0,0,0-.53.4,2.34,2.34,0,0,0-.42,2.91c.84,1.41,2.58,1.51,4.23.52s2.33-2.38,1.46-3.85a2.37,2.37,0,0,0-2.81-1,2.88,2.88,0,0,0-.62.29Z" transform="translate(-18.32 2.21)"/><path d="M1025.81,188.32a1,1,0,0,1,1,1.69,1,1,0,0,1-1.35-.35A.93.93,0,0,1,1025.81,188.32Zm10.5-4.18-7.49,4.45-.81-1.36,7.5-4.45Z" transform="translate(-18.32 2.21)"/><path d="M1023.54,184.6l2.15-1.28-1.15-1.95,1-.62,1.16,1.95,4-2.39c.93-.56,1.3-1.13.85-1.89a3.19,3.19,0,0,0-.56-.73l1-.67a3.9,3.9,0,0,1,.9,1.1,2.17,2.17,0,0,1,.3,1.81,3.23,3.23,0,0,1-1.64,1.68l-4.09,2.43.69,1.16-1,.61-.69-1.16-1.79,1.07Z" transform="translate(-18.32 2.21)"/><path d="M1020.63,179.58a.94.94,0,0,1,1.35.37,1,1,0,0,1-.35,1.32,1,1,0,0,1-1.36-.35A.94.94,0,0,1,1020.63,179.58Zm10.5-4.18-7.5,4.45-.8-1.36,7.49-4.45Z" transform="translate(-18.32 2.21)"/><path d="M1021.15,167.25a4.26,4.26,0,0,1,6.19,1.37,4.14,4.14,0,0,1-1.72,5.88c-2.51,1.49-5,.72-6.19-1.35S1018.86,168.61,1021.15,167.25Zm3.6,5.9c1.64-1,2.32-2.65,1.53-4s-2.57-1.55-4.26-.55c-1.27.75-2.5,2.34-1.55,3.95S1023.33,174,1024.75,173.15Z" transform="translate(-18.32 2.21)"/><path d="M1018.48,166.52c-.78.46-1.4.86-2,1.27l-.71-1.21,1.19-.81,0,0a3.22,3.22,0,0,1-2.88-1.65c-.61-1-.95-3,1.62-4.54l4.48-2.65.81,1.36-4.32,2.57c-1.21.71-1.95,1.76-1.19,3a2.24,2.24,0,0,0,2.48,1,2.18,2.18,0,0,0,.69-.28l4.51-2.67.8,1.36Z" transform="translate(-18.32 2.21)"/><path d="M1016.37,150.52l-.88.66,0,0a3.26,3.26,0,0,1,2.48,1.63,2.48,2.48,0,0,1-.8,3.57c-1.81,1.07-3.76,0-5.46-2.85l-.15.09a1.8,1.8,0,0,0-.73,2.73,4.3,4.3,0,0,0,1.72,1.62l-.72.84a5.4,5.4,0,0,1-2.12-2.06c-1.36-2.3-.13-3.78,1.37-4.67l2.81-1.66a13.47,13.47,0,0,0,1.72-1.19Zm-3.7,2.47c.85,1.5,2.11,3,3.57,2.17a1.41,1.41,0,0,0,.54-2.06,2.2,2.2,0,0,0-2.33-1.07,1.83,1.83,0,0,0-.48.18Z" transform="translate(-18.32 2.21)"/><path d="M1003.41,153.72l-.81-1.36,11-6.52.81,1.36Z" transform="translate(-18.32 2.21)"/><path d="M999.3,146.79l-.8-1.36,4.67-2.77,0,0a3,3,0,0,1-1.53-.41,3.3,3.3,0,0,1-1.22-1.16c-.6-1-.93-3,1.65-4.52l4.47-2.65.8,1.36-4.3,2.56c-1.21.71-2,1.77-1.2,3.06a2.25,2.25,0,0,0,2.44,1,1.75,1.75,0,0,0,.71-.29l4.52-2.68.81,1.36Z" transform="translate(-18.32 2.21)"/><path d="M1001.26,133a2.78,2.78,0,0,0,1.08-4.11,5.92,5.92,0,0,0-1.62-1.85l.84-.81a7.26,7.26,0,0,1,1.94,2.22,4,4,0,0,1-1.59,5.93c-2.26,1.34-4.83,1.07-6.13-1.12-1.45-2.45.32-4.37,1.7-5.19a5,5,0,0,1,.66-.33Zm-3.34-3.41a2.25,2.25,0,0,0-1.1,3.2,2.63,2.63,0,0,0,3.46.78Z" transform="translate(-18.32 2.21)"/><path d="M989.61,130.44l-.81-1.37,11-6.52.81,1.36Z" transform="translate(-18.32 2.21)"/><path d="M993.39,123.26c-1,.57-1.72,1.06-2.41,1.51l-.73-1.22,1.25-.83,0,0a3.39,3.39,0,0,1-3-1.8c-1.08-1.81-.35-4.08,1.93-5.43,2.69-1.6,5-.75,6,1a3,3,0,0,1,.19,3l0,0,4.08-2.41.8,1.35Zm1.2-2.53a3.1,3.1,0,0,0,.52-.4,2.44,2.44,0,0,0,.38-3c-.85-1.44-2.53-1.57-4.24-.55-1.51.89-2.32,2.44-1.47,3.88a2.53,2.53,0,0,0,2.91,1.06,2.67,2.67,0,0,0,.61-.24Z" transform="translate(-18.32 2.21)"/><path d="M993.14,111.32l-6.46,3.83.62,1.06-1,.61-.63-1-.35.21a4.14,4.14,0,0,1-3.14.69,3,3,0,0,1-1.78-1.42,3.79,3.79,0,0,1-.47-1.29l1.16-.44a2.44,2.44,0,0,0,.35,1c.69,1.16,1.88.85,3,.17l.4-.24-1.07-1.81,1-.61,1.08,1.81,6.46-3.83Z" transform="translate(-18.32 2.21)"/><path d="M984.77,101.88c.78-.46,1.45-.88,2-1.27l.72,1.21-1.18.8,0,0a3.28,3.28,0,0,1,2.86,1.65c.7,1.18.89,3-1.75,4.53l-4.38,2.6-.81-1.36,4.15-2.46c1.43-.85,2.13-1.85,1.4-3.09a2.31,2.31,0,0,0-2.31-1.06,2.21,2.21,0,0,0-.77.29l-4.6,2.73-.81-1.36Z" transform="translate(-18.32 2.21)"/><path d="M974.48,104.92l-.81-1.37,11-6.52.81,1.36Z" transform="translate(-18.32 2.21)"/><path d="M973.53,95.35l3.22-3.25c.71-.72,1.37-1.38,2.06-2l0,0c-.86.28-1.81.51-2.76.74l-4.55,1-.68-1.14,3.05-3.39c.74-.81,1.4-1.49,2.06-2.11l0,0a26.07,26.07,0,0,1-2.77.87l-4.4,1.16-.8-1.35,8.93-2,.74,1.24-2.9,3.27a29.6,29.6,0,0,1-2.07,2.13l0,0a26.52,26.52,0,0,1,2.88-.79l4.28-.9.73,1.24-6.15,6.7Z" transform="translate(-18.32 2.21)"/><path d="M972.17,76l-.88.67,0,.05a3.24,3.24,0,0,1,2.47,1.63,2.49,2.49,0,0,1-.79,3.57c-1.81,1.07-3.76.05-5.46-2.86l-.16.09a1.8,1.8,0,0,0-.72,2.74,4.42,4.42,0,0,0,1.71,1.62l-.71.84a5.38,5.38,0,0,1-2.13-2.07c-1.36-2.29-.12-3.78,1.38-4.67l2.8-1.66a11.83,11.83,0,0,0,1.73-1.19Zm-3.71,2.47c.86,1.51,2.12,3,3.58,2.17a1.39,1.39,0,0,0,.53-2,2.15,2.15,0,0,0-2.32-1.07,1.71,1.71,0,0,0-.48.18Z" transform="translate(-18.32 2.21)"/><path d="M965.05,75.71c-.88.52-1.63,1-2.3,1.45L962,76l1.45-.92,0-.06a2.61,2.61,0,0,1-2.87-1.11,2.12,2.12,0,0,1-.19-.41l1.29-.76a2.34,2.34,0,0,0,.23.49,2.22,2.22,0,0,0,2.83.79,4,4,0,0,0,.67-.32l4-2.37.8,1.35Z" transform="translate(-18.32 2.21)"/><path d="M961.7,70.76c-.78.46-1.4.85-2,1.27L959,70.82l1.19-.81,0,0a3.22,3.22,0,0,1-2.88-1.65c-.61-1-.95-3,1.62-4.54l4.48-2.65.81,1.36-4.32,2.56c-1.21.72-2,1.77-1.19,3a2.24,2.24,0,0,0,2.48,1,2.18,2.18,0,0,0,.69-.28l4.51-2.67.8,1.36Z" transform="translate(-18.32 2.21)"/><path d="M951.58,63.12a1,1,0,0,1,1,1.69,1,1,0,0,1-1.35-.34A.94.94,0,0,1,951.58,63.12ZM962.08,59l-7.49,4.44L953.78,62l7.5-4.45Z" transform="translate(-18.32 2.21)"/><path d="M954.46,58.55c-.78.46-1.4.85-2,1.26l-.72-1.2,1.19-.82,0,0A3.21,3.21,0,0,1,950,56.12c-.61-1-.95-3,1.63-4.54l4.47-2.65.81,1.36-4.32,2.56c-1.21.72-2,1.76-1.19,3a2.24,2.24,0,0,0,2.48,1,2.44,2.44,0,0,0,.69-.28l4.51-2.68.8,1.37Z" transform="translate(-18.32 2.21)"/><path d="M943.51,44.71c.56-.29,1.18-.62,2.1-1.16L950,41c1.72-1,3-1.3,4-1a4.6,4.6,0,0,1,2.52,2.19,5.71,5.71,0,0,1,.86,2.86l-1.24.28a4.81,4.81,0,0,0-.72-2.55c-.82-1.39-2.16-2-4-.86l-.83.49,0,0a3.11,3.11,0,0,1,2.66,1.64c1.11,1.86.32,4.13-1.76,5.36-2.54,1.51-5,.71-6-1a2.92,2.92,0,0,1-.09-3.11l0,0-1.16.61Zm3.79-.34a2.16,2.16,0,0,0-.57.44,2.29,2.29,0,0,0-.31,2.76c.77,1.3,2.42,1.58,4.16.55,1.47-.87,2.25-2.34,1.38-3.81a2.3,2.3,0,0,0-2.52-1.06,2.73,2.73,0,0,0-.79.32Z" transform="translate(-18.32 2.21)"/><path d="M948.42,39.08A4.24,4.24,0,0,0,947.9,37c-.59-1-1.36-1.16-2-.79s-.78,1-.55,2.21c.31,1.63,0,2.7-1,3.24-1.21.71-2.78.33-3.73-1.28a4.38,4.38,0,0,1-.63-2.12l1.19-.25a3.35,3.35,0,0,0,.48,1.79,1.26,1.26,0,0,0,1.76.65c.62-.37.63-1,.43-2.18-.28-1.59,0-2.65,1.09-3.31,1.32-.78,2.85-.31,3.91,1.47a4.91,4.91,0,0,1,.74,2.41Z" transform="translate(-18.32 2.21)"/><path d="M945.56,32.91a1.07,1.07,0,0,1-1.53-.35,1.14,1.14,0,0,1,2-1.14A1.06,1.06,0,0,1,945.56,32.91Z" transform="translate(-18.32 2.21)"/><path d="M932.62,33.44l3.87-1.94.49.82-3.56,2.47ZM934,35.75l3.87-1.94.5.83-3.57,2.46Z" transform="translate(-18.32 2.21)"/><path d="M936,29.17a1.06,1.06,0,0,1-1.52-.34,1.13,1.13,0,0,1,1.94-1.14A1.06,1.06,0,0,1,936,29.17ZM944.53,25a25.57,25.57,0,0,0-4.25,1.26l-1-1.41a22.36,22.36,0,0,1,4.65-.74Z" transform="translate(-18.32 2.21)"/><path d="M932.39,26l3.34-4c.54-.65,1-1.22,1.56-1.74l0-.05c-.72.2-1.47.35-2.3.5l-5.08,1.05-.84-1.43,9.24-1.5.77,1.3-5.8,7.29Z" transform="translate(-18.32 2.21)"/><path d="M933.36,10.51l-.88.66,0,.05A3.24,3.24,0,0,1,935,12.85a2.49,2.49,0,0,1-.79,3.57c-1.81,1.08-3.76,0-5.46-2.85l-.16.09a1.79,1.79,0,0,0-.72,2.73A4.27,4.27,0,0,0,929.56,18l-.71.84a5.42,5.42,0,0,1-2.13-2.06c-1.36-2.29-.12-3.78,1.38-4.67l2.8-1.66a13.63,13.63,0,0,0,1.73-1.19ZM929.65,13c.86,1.5,2.12,3,3.58,2.17a1.4,1.4,0,0,0,.53-2.06A2.18,2.18,0,0,0,931.44,12a1.71,1.71,0,0,0-.48.18Z" transform="translate(-18.32 2.21)"/><path d="M926.22,10.22c-.88.53-1.63,1-2.3,1.45l-.71-1.19,1.45-.92,0-.06a2.61,2.61,0,0,1-2.87-1.11,2.12,2.12,0,0,1-.19-.41l1.29-.76a2.34,2.34,0,0,0,.23.49,2.22,2.22,0,0,0,2.83.79,4,4,0,0,0,.67-.32l4-2.37.8,1.35Z" transform="translate(-18.32 2.21)"/><path d="M909.58,4.43A4.27,4.27,0,0,1,913.92-.2a4.15,4.15,0,0,1,4.18,4.49,4.25,4.25,0,0,1-4.32,4.62A4.13,4.13,0,0,1,909.58,4.43Zm6.92-.09c0-1.91-1.1-3.35-2.65-3.35s-2.65,1.42-2.65,3.39c0,1.47.74,3.34,2.61,3.34S916.5,6,916.5,4.34Z" transform="translate(-18.32 2.21)"/><path d="M908.18,2.54V3.62h-9.29V2.54Zm0,3.53V7.15h-9.29V6.07Z" transform="translate(-18.32 2.21)"/><path d="M896.84,6.36c0,.9,0,1.63.07,2.35h-1.4l-.09-1.44h0a3.2,3.2,0,0,1-2.88,1.64c-1.21,0-3.08-.72-3.08-3.71V0H891V5c0,1.41.52,2.58,2,2.58A2.25,2.25,0,0,0,895.15,6a2.35,2.35,0,0,0,.11-.74V0h1.58Z" transform="translate(-18.32 2.21)"/><path d="M886,4.07a2.79,2.79,0,0,0-3-3,5.75,5.75,0,0,0-2.41.45L880.29.36a7.09,7.09,0,0,1,2.9-.54,4,4,0,0,1,4.28,4.39c0,2.63-1.54,4.7-4.08,4.7-2.85,0-3.6-2.5-3.6-4.1a5.67,5.67,0,0,1,.05-.74ZM881.32,5.2a2.25,2.25,0,0,0,2.19,2.58,2.62,2.62,0,0,0,2.43-2.58Z" transform="translate(-18.32 2.21)"/><path d="M877.21,8.71l-1.16-4.42c-.25-1-.48-1.88-.64-2.78h-.06c-.2.88-.48,1.82-.77,2.76l-1.42,4.44h-1.34l-1.35-4.35c-.32-1.05-.57-2-.77-2.85h-.06A25.1,25.1,0,0,1,869,4.34l-1.24,4.37h-1.57L869,0h1.44l1.33,4.16A29.32,29.32,0,0,1,872.53,7h0a28.7,28.7,0,0,1,.79-2.88L874.76,0h1.44l2.63,8.71Z" transform="translate(-18.32 2.21)"/><path d="M854.44,5.69h4.72V1.31H853.9V0h6.83V12.14h-6.56V10.82h5V7h-4.72Z" transform="translate(-18.32 2.21)"/><path d="M851.9,6c0,1,0,1.9.08,2.71h-1.39L850.54,7h-.08a2.61,2.61,0,0,1-2.41,1.91,2,2,0,0,1-.45-.05V7.36a2.12,2.12,0,0,0,.54.06,2.21,2.21,0,0,0,2.12-2,3.88,3.88,0,0,0,.08-.73V0h1.56Z" transform="translate(-18.32 2.21)"/><path d="M846,6c0,1,0,1.9.07,2.71h-1.39l0-1.71h-.07a2.62,2.62,0,0,1-2.42,1.91,2.14,2.14,0,0,1-.45-.05V7.36a2.26,2.26,0,0,0,.55.06,2.23,2.23,0,0,0,2.12-2,3.93,3.93,0,0,0,.07-.73V0H846Z" transform="translate(-18.32 2.21)"/><path d="M832.34,4.43A4.27,4.27,0,0,1,836.68-.2a4.15,4.15,0,0,1,4.18,4.49,4.25,4.25,0,0,1-4.32,4.62A4.13,4.13,0,0,1,832.34,4.43Zm6.92-.09c0-1.91-1.1-3.35-2.65-3.35S834,2.41,834,4.38c0,1.47.73,3.34,2.61,3.34S839.26,6,839.26,4.34Z" transform="translate(-18.32 2.21)"/><path d="M830.37,6c0,1,0,1.9.07,2.71h-1.39L829,7h-.07a2.62,2.62,0,0,1-2.41,1.91,2,2,0,0,1-.45-.05V7.36a2.12,2.12,0,0,0,.54.06,2.23,2.23,0,0,0,2.12-2,3.93,3.93,0,0,0,.07-.73V0h1.57Z" transform="translate(-18.32 2.21)"/><path d="M821.05,12.5a11.93,11.93,0,0,0,2.27-7.37,12.13,12.13,0,0,0-2.27-7.31h1.24a11.62,11.62,0,0,1,2.36,7.31,11.89,11.89,0,0,1-2.36,7.37Z" transform="translate(-18.32 2.21)"/><path d="M819.37,6.36c0,.9,0,1.63.07,2.35H818L818,7.27h0A3.2,3.2,0,0,1,815,8.91c-1.2,0-3.08-.72-3.08-3.71V0h1.59V5c0,1.41.52,2.58,2,2.58A2.25,2.25,0,0,0,817.68,6a2.35,2.35,0,0,0,.11-.74V0h1.58Z" transform="translate(-18.32 2.21)"/><path d="M810.33-2.18a12.17,12.17,0,0,0-2.27,7.37,12,12,0,0,0,2.27,7.31h-1.22a11.51,11.51,0,0,1-2.36-7.33,11.71,11.71,0,0,1,2.36-7.35Z" transform="translate(-18.32 2.21)"/><path d="M804.48,7.27a1.06,1.06,0,0,1-1.06,1.14,1,1,0,0,1-1.07-1.14,1.07,1.07,0,1,1,2.13,0Zm.77-9.48a26.48,26.48,0,0,0-1.08,4.3l-1.74.18a23.37,23.37,0,0,1,1.72-4.38Z" transform="translate(-18.32 2.21)"/><path d="M798.62,11.22V8.71h-2.27V7.51h2.27V2.81c0-1.08-.3-1.69-1.19-1.69a3.69,3.69,0,0,0-.91.1L796.44,0a3.84,3.84,0,0,1,1.41-.22,2.17,2.17,0,0,1,1.71.67,3.2,3.2,0,0,1,.61,2.26V7.51h1.35v1.2h-1.35V10.8Z" transform="translate(-18.32 2.21)"/><path d="M794.56,12.78H793V7.35h0a2.87,2.87,0,0,1-1.13,1.11,3.28,3.28,0,0,1-1.62.45c-1.17,0-3-.72-3-3.72V0h1.58V5c0,1.4.52,2.59,2,2.59A2.28,2.28,0,0,0,792.87,6a1.88,1.88,0,0,0,.11-.75V0h1.58Z" transform="translate(-18.32 2.21)"/><path d="M784.57,6c0,1,0,1.9.08,2.71h-1.39l0-1.71h-.08a2.61,2.61,0,0,1-2.41,1.91,2.06,2.06,0,0,1-.45-.05V7.36a2.12,2.12,0,0,0,.54.06,2.23,2.23,0,0,0,2.13-2,5,5,0,0,0,.07-.73V0h1.56Z" transform="translate(-18.32 2.21)"/><path d="M771,4.43A4.26,4.26,0,0,1,775.32-.2a4.15,4.15,0,0,1,4.18,4.49,4.26,4.26,0,0,1-4.33,4.62C772.67,8.91,771,7.09,771,4.43Zm6.91-.09c0-1.91-1.1-3.35-2.64-3.35s-2.65,1.42-2.65,3.39c0,1.47.74,3.34,2.61,3.34S777.89,6,777.89,4.34Z" transform="translate(-18.32 2.21)"/><path d="M768.47,8.71l-1.15-4.42c-.25-1-.49-1.88-.65-2.78h0c-.2.88-.49,1.82-.78,2.76l-1.42,4.44h-1.33l-1.35-4.35c-.33-1.05-.58-2-.78-2.85h-.05a27.69,27.69,0,0,1-.67,2.83L759,8.71h-1.57L760.24,0h1.44L763,4.16A29.32,29.32,0,0,1,763.79,7h0a26.26,26.26,0,0,1,.8-2.88L766,0h1.44l2.63,8.71Z" transform="translate(-18.32 2.21)"/><path d="M744.16,4.43A4.26,4.26,0,0,1,748.5-.2a4.15,4.15,0,0,1,4.18,4.49,4.25,4.25,0,0,1-4.32,4.62C745.85,8.91,744.16,7.09,744.16,4.43Zm6.91-.09C751.07,2.43,750,1,748.43,1s-2.65,1.42-2.65,3.39c0,1.47.74,3.34,2.61,3.34S751.07,6,751.07,4.34Z" transform="translate(-18.32 2.21)"/><path d="M743,.94a1.06,1.06,0,0,1-1.08,1.13A1,1,0,0,1,740.84.94a1.07,1.07,0,1,1,2.14,0Z" transform="translate(-18.32 2.21)"/><path d="M738.86,6.36c0,.9,0,1.63.07,2.35h-1.41l-.09-1.44h0a3.21,3.21,0,0,1-2.88,1.64c-1.21,0-3.08-.72-3.08-3.71V0H733V5c0,1.41.52,2.58,2,2.58A2.25,2.25,0,0,0,737.16,6a2.1,2.1,0,0,0,.11-.74V0h1.59Z" transform="translate(-18.32 2.21)"/><path d="M724.05,0l.12,1.1h.06a3.22,3.22,0,0,1,2.66-1.3,2.48,2.48,0,0,1,2.67,2.5c0,2.11-1.88,3.26-5.24,3.25v.18a1.79,1.79,0,0,0,2,2,4.33,4.33,0,0,0,2.27-.65l.36,1.05a5.41,5.41,0,0,1-2.87.77c-2.66,0-3.31-1.82-3.31-3.56V2.09A13.14,13.14,0,0,0,722.61,0Zm.23,4.45c1.73,0,3.69-.27,3.69-2A1.4,1.4,0,0,0,726.48,1a2.16,2.16,0,0,0-2.11,1.46,1.76,1.76,0,0,0-.09.5Z" transform="translate(-18.32 2.21)"/><path d="M720.18,6.36c0,.9,0,1.63.07,2.35h-1.38l-.07-1.4h-.06A3,3,0,0,1,716,8.91a2.58,2.58,0,0,1-2.47-1.74h0a3.63,3.63,0,0,1-1,1.13,3,3,0,0,1-1.93.61c-1.15,0-2.86-.75-2.86-3.78V0h1.55V4.93c0,1.68.61,2.69,1.89,2.69a2.05,2.05,0,0,0,1.87-1.44,2.73,2.73,0,0,0,.13-.8V0h1.55V5.22c0,1.39.61,2.4,1.82,2.4a2.17,2.17,0,0,0,2-1.59,2.15,2.15,0,0,0,.12-.77V0h1.55Z" transform="translate(-18.32 2.21)"/><path d="M704.31,4.07a2.8,2.8,0,0,0-3-3,5.71,5.71,0,0,0-2.41.45L698.64.36a7.06,7.06,0,0,1,2.9-.54,4,4,0,0,1,4.28,4.39c0,2.63-1.55,4.7-4.09,4.7-2.84,0-3.6-2.5-3.6-4.1a5.31,5.31,0,0,1,.06-.74ZM699.66,5.2a2.26,2.26,0,0,0,2.2,2.58,2.63,2.63,0,0,0,2.43-2.58Z" transform="translate(-18.32 2.21)"/><path d="M696.75,2.54V3.62h-9.29V2.54Zm0,3.53V7.15h-9.29V6.07Z" transform="translate(-18.32 2.21)"/><path d="M681.34,12.33l.3-4.32h1l.3,4.32Zm2.68,0L684.33,8h1l.29,4.32Z" transform="translate(-18.32 2.21)"/><path d="M685,14.89,674.44,8.83l.78-1.36,10.51,6.07Z" transform="translate(-18.32 2.21)"/><path d="M678.5,14.51c.78.45,1.43.8,2.08,1.11l-.7,1.22-1.3-.64,0,0a3.18,3.18,0,0,1,0,3.31c-.6,1.05-2.16,2.31-4.75.81l-4.51-2.6.8-1.37,4.35,2.51c1.21.7,2.49.84,3.24-.46a2.26,2.26,0,0,0-.35-2.65,2.35,2.35,0,0,0-.58-.46L672.2,12.7l.79-1.37Z" transform="translate(-18.32 2.21)"/><path d="M675.37,24.65l-5.1-1a19.25,19.25,0,0,1-2.28-.51l0,0c.52.53,1,1.11,1.56,1.76l3.4,3.91-.83,1.44L666.25,23,667,21.7l9.2,1.48Z" transform="translate(-18.32 2.21)"/><path d="M661.41,31.4l1,.44,0,0a3.26,3.26,0,0,1,.21-3,2.48,2.48,0,0,1,3.5-1.05c1.82,1.05,1.88,3.25.18,6.15l.16.09a1.8,1.8,0,0,0,2.74-.7,4.38,4.38,0,0,0,.57-2.29l1.09.21a5.44,5.44,0,0,1-.77,2.86c-1.33,2.31-3.23,2-4.74,1.09l-2.82-1.63a13.4,13.4,0,0,0-1.88-.92Zm4,2c.89-1.48,1.61-3.34.14-4.18a1.4,1.4,0,0,0-2.06.54,2.18,2.18,0,0,0,.21,2.55,1.57,1.57,0,0,0,.4.33Z" transform="translate(-18.32 2.21)"/><path d="M664.68,37.73c.89.52,1.66.94,2.39,1.3l-.69,1.2-1.51-.81,0,.07a2.6,2.6,0,0,1,.45,3,1.53,1.53,0,0,1-.27.36l-1.3-.74a2.92,2.92,0,0,0,.32-.45,2.21,2.21,0,0,0-.7-2.85,4.22,4.22,0,0,0-.6-.43l-4-2.33.79-1.35Z" transform="translate(-18.32 2.21)"/><path d="M656.51,39.89l7.55,4.36-.79,1.37-7.55-4.36ZM665.3,47a.93.93,0,0,1-.34-1.36,1,1,0,0,1,1.32-.34,1,1,0,0,1,.36,1.35A.93.93,0,0,1,665.3,47Z" transform="translate(-18.32 2.21)"/><path d="M652,47.72l1,.44,0,0a3.24,3.24,0,0,1,.21-3,2.48,2.48,0,0,1,3.5-1.06c1.83,1,1.89,3.25.19,6.16l.15.09a1.8,1.8,0,0,0,2.74-.71,4.26,4.26,0,0,0,.57-2.29l1.09.21a5.45,5.45,0,0,1-.76,2.87c-1.33,2.31-3.23,2-4.75,1.09l-2.82-1.63a11.53,11.53,0,0,0-1.88-.92Zm4,2c.89-1.48,1.61-3.33.15-4.18a1.41,1.41,0,0,0-2.06.54,2.16,2.16,0,0,0,.21,2.56,2.07,2.07,0,0,0,.39.33Z" transform="translate(-18.32 2.21)"/><path d="M655.58,54.23c.77.45,1.42.8,2.07,1.12l-.7,1.21-1.29-.64,0,0a3.2,3.2,0,0,1,0,3.31c-.6,1.05-2.16,2.31-4.75.82l-4.51-2.6.79-1.38,4.35,2.52c1.22.7,2.5.83,3.24-.46a2.27,2.27,0,0,0-.34-2.66,2.35,2.35,0,0,0-.58-.46l-4.54-2.62.79-1.37Z" transform="translate(-18.32 2.21)"/><path d="M653.87,66.91l-2.17-1.26-1.13,2-1.05-.6,1.14-2-4.07-2.35c-.94-.54-1.62-.58-2.06.18a4,4,0,0,0-.37.85l-1.06-.53a3.86,3.86,0,0,1,.51-1.32A2.2,2.2,0,0,1,645,60.73a3.23,3.23,0,0,1,2.28.6l4.11,2.38.68-1.17,1,.6-.67,1.17,1.81,1Z" transform="translate(-18.32 2.21)"/><path d="M639.19,69.91l12.49,2.63L650.83,74l-6.12-1.35c-1.68-.37-3.18-.72-4.58-1.15v0c1,1,2.11,2.2,3.22,3.46l4.16,4.78-.83,1.45-8.34-9.83Z" transform="translate(-18.32 2.21)"/><path d="M635.67,76l7.55,4.36-.8,1.37-7.54-4.36Zm8.78,7.11a1,1,0,0,1,1-1.7,1,1,0,0,1,.36,1.35A.94.94,0,0,1,644.45,83.12Z" transform="translate(-18.32 2.21)"/><path d="M633.45,88.71a4.26,4.26,0,0,1-1.83-6.08,4.14,4.14,0,0,1,6-1.37c2.52,1.46,3,4,1.84,6S635.76,90,633.45,88.71Zm3.38-6c-1.65-1-3.45-.72-4.22.62s-.09,3,1.61,4c1.28.73,3.27,1,4.2-.59S638.27,83.5,636.83,82.67Z" transform="translate(-18.32 2.21)"/><path d="M639.69,94.62,638.9,96,627.82,89.6l.8-1.37Z" transform="translate(-18.32 2.21)"/><path d="M624.08,96.09l1,.44,0,0a3.26,3.26,0,0,1,.21-3,2.49,2.49,0,0,1,3.5-1c1.83,1,1.89,3.25.19,6.16l.15.09a1.8,1.8,0,0,0,2.74-.71,4.26,4.26,0,0,0,.57-2.29l1.09.21a5.45,5.45,0,0,1-.76,2.87c-1.34,2.31-3.23,2-4.75,1.08l-2.82-1.63a14,14,0,0,0-1.88-.92Zm4,2c.89-1.48,1.61-3.33.14-4.18a1.4,1.4,0,0,0-2.05.54,2.15,2.15,0,0,0,.21,2.55,1.52,1.52,0,0,0,.39.33Z" transform="translate(-18.32 2.21)"/><path d="M631,106.63l-2.17-1.25-1.13,2-1-.6,1.14-2-4.07-2.35c-.94-.54-1.62-.58-2.06.19a3.37,3.37,0,0,0-.37.85l-1.07-.54a4,4,0,0,1,.52-1.32,2.2,2.2,0,0,1,1.43-1.15,3.23,3.23,0,0,1,2.27.61l4.12,2.37.68-1.17,1,.61-.67,1.17,1.8,1Z" transform="translate(-18.32 2.21)"/><path d="M619.21,104.52l7.55,4.36-.79,1.37-7.55-4.35Zm8.79,7.11a1,1,0,0,1,1-1.7,1,1,0,0,1,.36,1.36A.94.94,0,0,1,628,111.63Z" transform="translate(-18.32 2.21)"/><path d="M617,117.21a4.26,4.26,0,0,1-1.84-6.07,4.16,4.16,0,0,1,6-1.38c2.52,1.46,3.05,4,1.84,6.06S619.31,118.54,617,117.21Zm3.38-6c-1.65-1-3.45-.72-4.22.62s-.09,3,1.61,4c1.27.74,3.27,1,4.2-.58S621.82,112,620.38,111.18Z" transform="translate(-18.32 2.21)"/><path d="M617.67,119.91c.78.45,1.43.8,2.08,1.12l-.7,1.21-1.29-.64,0,0a3.2,3.2,0,0,1,0,3.31c-.61,1-2.17,2.31-4.75.82l-4.51-2.6.79-1.38,4.35,2.51c1.22.71,2.49.84,3.24-.46a2.25,2.25,0,0,0-.34-2.65,2.42,2.42,0,0,0-.59-.46l-4.53-2.62.79-1.37Z" transform="translate(-18.32 2.21)"/><path d="M616,134.77l-3.59-2.43.48-.83,3.89,1.9Zm1.34-2.33L613.75,130l.49-.85,3.88,1.91Z" transform="translate(-18.32 2.21)"/><path d="M603.82,126.77a25.34,25.34,0,0,0,3.18,3.09l-.72,1.62a22.14,22.14,0,0,1-2.94-3.67Z" transform="translate(-18.32 2.21)"/><path d="M603.25,141a4.26,4.26,0,0,1-1.83-6.08,4.14,4.14,0,0,1,6-1.37,4.26,4.26,0,0,1,1.85,6A4.14,4.14,0,0,1,603.25,141Zm3.38-6c-1.65-.95-3.45-.72-4.22.62s-.09,3,1.61,4c1.28.74,3.27,1,4.2-.58S608.07,135.83,606.63,135Z" transform="translate(-18.32 2.21)"/><path d="M599.64,140.31a1.07,1.07,0,0,1,.44,1.51,1.14,1.14,0,0,1-2-1.15A1.07,1.07,0,0,1,599.64,140.31Z" transform="translate(-18.32 2.21)"/><path d="M596.7,143.54l6.5,3.75.61-1.06,1.05.6-.61,1.07.35.2a4.13,4.13,0,0,1,2.14,2.4,3,3,0,0,1-.37,2.24,3.62,3.62,0,0,1-.89,1l-1-.8a2.35,2.35,0,0,0,.67-.78c.68-1.17-.18-2.06-1.33-2.72l-.41-.24-1.05,1.83-1-.61,1.06-1.82-6.51-3.75Z" transform="translate(-18.32 2.21)"/><path d="M599.33,151c.89.52,1.67.94,2.4,1.3l-.7,1.2-1.51-.81,0,.07a2.6,2.6,0,0,1,.44,3,1.3,1.3,0,0,1-.27.36l-1.29-.74a2.35,2.35,0,0,0,.31-.45,2.21,2.21,0,0,0-.69-2.85,3.83,3.83,0,0,0-.61-.43l-4-2.33.78-1.35Z" transform="translate(-18.32 2.21)"/><path d="M588.83,157.17l1,.44,0-.05a3.24,3.24,0,0,1,.21-2.95,2.48,2.48,0,0,1,3.5-1.06c1.83,1,1.89,3.25.19,6.16l.15.09a1.8,1.8,0,0,0,2.74-.71,4.26,4.26,0,0,0,.57-2.29l1.09.21a5.45,5.45,0,0,1-.76,2.87c-1.33,2.31-3.23,2-4.75,1.08L590,159.33a12.29,12.29,0,0,0-1.88-.91Zm4,2c.89-1.48,1.61-3.33.15-4.18a1.41,1.41,0,0,0-2.06.54,2.15,2.15,0,0,0,.21,2.55,1.52,1.52,0,0,0,.39.33Z" transform="translate(-18.32 2.21)"/><path d="M592.41,163.68c.78.45,1.43.8,2.08,1.12l-.69,1.2-1.25-.64,0,0a3,3,0,0,1,0,3.18,2.6,2.6,0,0,1-2.75,1.26l0,0a3.48,3.48,0,0,1,.5,1.41,3,3,0,0,1-.43,2c-.58,1-2.09,2.1-4.71.59l-4.44-2.56.77-1.34,4.27,2.46c1.45.84,2.63.81,3.27-.29a2.06,2.06,0,0,0-.31-2.35,2.46,2.46,0,0,0-.62-.5l-4.66-2.69.77-1.34,4.52,2.61c1.2.69,2.38.66,3-.38a2.15,2.15,0,0,0-.4-2.49,2.11,2.11,0,0,0-.6-.5l-4.56-2.63.78-1.34Z" transform="translate(-18.32 2.21)"/><path d="M582.49,176.3a2.78,2.78,0,0,0-4.11,1.08,5.7,5.7,0,0,0-.82,2.31l-1.12-.33a7.08,7.08,0,0,1,1-2.78,4,4,0,0,1,6-1.52c2.28,1.32,3.3,3.69,2,5.89-1.43,2.47-4,1.87-5.36,1.07a5,5,0,0,1-.61-.42Zm-1.34,4.59a2.26,2.26,0,0,0,3.33-.61,2.64,2.64,0,0,0-1-3.4Z" transform="translate(-18.32 2.21)"/><path d="M576.41,181.94a4.11,4.11,0,0,0-1.59,1.49c-.58,1-.35,1.75.28,2.11s1.23.2,2.19-.6c1.27-1.08,2.39-1.28,3.29-.76,1.22.7,1.65,2.26.71,3.88a4.28,4.28,0,0,1-1.54,1.59l-.79-.92a3.42,3.42,0,0,0,1.32-1.29,1.27,1.27,0,0,0-.3-1.86c-.62-.36-1.16-.07-2.1.7-1.26,1-2.3,1.31-3.42.66-1.33-.76-1.67-2.33-.64-4.13a5.1,5.1,0,0,1,1.74-1.82Z" transform="translate(-18.32 2.21)"/><path d="M579.73,194.55l1.85-3.19,1.15.66-4.49,7.78-1.16-.66,1.86-3.21-9.36-5.41.79-1.37Z" transform="translate(-18.32 2.21)"/><path d="M567.61,202.81a4.26,4.26,0,0,1-1.84-6.07,4.13,4.13,0,0,1,6-1.38,4.26,4.26,0,0,1,1.85,6.06C572.34,203.58,569.92,204.14,567.61,202.81Zm3.38-6c-1.66-1-3.45-.73-4.23.61s-.09,3,1.61,4c1.28.74,3.27,1,4.21-.59S572.42,197.6,571,196.78Z" transform="translate(-18.32 2.21)"/><path d="M573.14,208.35a18.6,18.6,0,0,1-1.3,2.73,5,5,0,0,1-2.58,2.44,3.26,3.26,0,0,1-2.73-.35,3.61,3.61,0,0,1-1.78-2.11,6.15,6.15,0,0,1,1.43-4.91L562,203.72l.78-1.36Zm-5.85-1.56a4.93,4.93,0,0,0-.76,1.06c-.95,1.63-.73,3.09.72,3.93s2.63.2,3.49-1.29a6.22,6.22,0,0,0,.63-1.35Z" transform="translate(-18.32 2.21)"/><path d="M558.11,219.27a4.25,4.25,0,0,1-1.84-6.07,4.14,4.14,0,0,1,6-1.37,4.26,4.26,0,0,1,1.85,6A4.12,4.12,0,0,1,558.11,219.27Zm3.37-6c-1.65-1-3.45-.72-4.22.62s-.09,3,1.61,4c1.28.74,3.27,1,4.2-.58S562.92,214.07,561.48,213.24Z" transform="translate(-18.32 2.21)"/><path d="M558.35,221.73c1,.56,1.77,1,2.5,1.36l-.71,1.23-1.33-.69,0,0a3.4,3.4,0,0,1-.08,3.52c-1.05,1.83-3.39,2.31-5.68,1-2.71-1.57-3.1-4-2.07-5.77a3,3,0,0,1,2.52-1.64l0,0-4.1-2.36.78-1.36Zm-2.79.19a4.36,4.36,0,0,0-.6-.26,2.44,2.44,0,0,0-2.79,1.13c-.84,1.45-.14,3,1.59,4,1.51.87,3.27.82,4.1-.63a2.52,2.52,0,0,0-.5-3,2.33,2.33,0,0,0-.51-.42Z" transform="translate(-18.32 2.21)"/><path d="M550.65,228.42l.93.54-4.64,8-.94-.55Zm3.05,1.76.94.54L550,238.77l-.93-.54Z" transform="translate(-18.32 2.21)"/><path d="M550.18,244.62v0l.07-2.31,1.2.34-.1,2.9-.67,1.17-10.14-5.85.77-1.33Z" transform="translate(-18.32 2.21)"/><path d="M536.76,243a26.12,26.12,0,0,0,3.19,3.08l-.73,1.62a21.62,21.62,0,0,1-2.93-3.67Z" transform="translate(-18.32 2.21)"/><path d="M536.2,257.23a4.27,4.27,0,0,1-1.84-6.08,4.15,4.15,0,0,1,6-1.37c2.52,1.46,3,4,1.84,6.05S538.51,258.56,536.2,257.23Zm3.38-6c-1.65-.95-3.45-.72-4.22.62s-.09,3,1.61,4c1.28.73,3.27,1,4.2-.59S541,252,539.58,251.19Z" transform="translate(-18.32 2.21)"/><path d="M533.83,261.91c.64-1.1.06-1.65-.42-1.92a9,9,0,0,0-1.34-.61,10.93,10.93,0,0,1-1.35-.61c-1.57-.91-1.57-2.22-.83-3.5l.19-.32.86.49-.16.27a1.34,1.34,0,0,0,.64,2,11.87,11.87,0,0,0,1.19.54,7.94,7.94,0,0,1,1.25.55,1.78,1.78,0,0,1,1.06,2.11l0,0a1.74,1.74,0,0,1,2.33-.15,7.72,7.72,0,0,1,1.11.81,10,10,0,0,0,1.05.74,1.3,1.3,0,0,0,2-.45l.16-.29.86.5-.18.31c-.77,1.33-1.92,1.93-3.36,1.1a10.4,10.4,0,0,1-1.22-.87,9.62,9.62,0,0,0-1.24-.88c-.55-.32-1.24-.51-1.88.59Z" transform="translate(-18.32 2.21)"/><path d="M531.92,263.93a2.79,2.79,0,0,0-4.11,1.07,5.78,5.78,0,0,0-.82,2.32l-1.12-.34a7.13,7.13,0,0,1,1-2.78,4,4,0,0,1,5.95-1.51c2.28,1.31,3.3,3.69,2,5.89-1.42,2.46-4,1.87-5.36,1.06a5.18,5.18,0,0,1-.61-.41Zm-1.34,4.59a2.25,2.25,0,0,0,3.33-.62,2.62,2.62,0,0,0-1-3.39Z" transform="translate(-18.32 2.21)"/><path d="M525.44,268.89a1.07,1.07,0,1,1-1.51.35A1.06,1.06,0,0,1,525.44,268.89Z" transform="translate(-18.32 2.21)"/><path d="M525.65,274.79a2.79,2.79,0,0,0-4.11,1.07,5.78,5.78,0,0,0-.82,2.32l-1.11-.33a7,7,0,0,1,1-2.79,4.05,4.05,0,0,1,5.95-1.51c2.27,1.31,3.29,3.69,2,5.89-1.42,2.46-4,1.87-5.35,1.07a7,7,0,0,1-.62-.42Zm-1.34,4.59a2.25,2.25,0,0,0,3.33-.62,2.62,2.62,0,0,0-1-3.39Z" transform="translate(-18.32 2.21)"/><path d="M525.28,284.74l-2.25.14c-.58,0-1.11,0-1.67.05l0,.05c.31.51.56,1,.82,1.47l1,2-.85,1.49-2.17-4.68-5.43.4.9-1.56,2.34-.13c.61,0,1.18-.05,1.78-.05l0,0c-.31-.52-.56-1-.85-1.56l-1.07-2.07.87-1.51,2.31,4.9,5.17-.42Z" transform="translate(-18.32 2.21)"/><path d="M519,289.91c1,.56,1.76,1,2.5,1.36l-.72,1.23-1.33-.68v0a3.42,3.42,0,0,1-.09,3.53c-1.05,1.82-3.39,2.3-5.68,1-2.71-1.57-3.1-4-2.07-5.77a3,3,0,0,1,2.53-1.64v0l-4.1-2.37.78-1.36Zm-2.8.2a3.48,3.48,0,0,0-.6-.27,2.45,2.45,0,0,0-2.79,1.13c-.84,1.46-.14,3,1.59,4,1.51.87,3.27.83,4.11-.62a2.79,2.79,0,0,0-1-3.48Z" transform="translate(-18.32 2.21)"/><path d="M508.71,304.88a4.26,4.26,0,0,1-1.84-6.08,4.14,4.14,0,0,1,6-1.37c2.53,1.46,3,4,1.85,6.05A4.13,4.13,0,0,1,508.71,304.88Zm3.37-6c-1.65-.95-3.45-.72-4.22.62s-.09,3,1.61,4c1.28.73,3.27,1,4.2-.59S513.52,299.67,512.08,298.84Z" transform="translate(-18.32 2.21)"/><path d="M509.06,307.39c.89.52,1.67.94,2.39,1.3l-.69,1.2-1.51-.81,0,.06a2.63,2.63,0,0,1,.44,3.05,2.11,2.11,0,0,1-.27.36l-1.29-.75a2,2,0,0,0,.31-.44,2.23,2.23,0,0,0-.7-2.86,6.76,6.76,0,0,0-.6-.43l-4-2.32.78-1.36Z" transform="translate(-18.32 2.21)"/><path d="M509.47,317.13l-2.16-1.25-1.14,2-1-.6,1.13-2-4.07-2.35c-.94-.54-1.62-.58-2.06.19a3.79,3.79,0,0,0-.37.85l-1.06-.54a3.94,3.94,0,0,1,.51-1.32,2.19,2.19,0,0,1,1.44-1.15,3.23,3.23,0,0,1,2.27.61l4.12,2.37.67-1.17,1,.61-.67,1.17,1.81,1Z" transform="translate(-18.32 2.21)"/><path d="M499.24,315.66a4.19,4.19,0,0,0-1.59,1.49c-.57,1-.35,1.76.28,2.12s1.24.19,2.2-.6c1.26-1.08,2.38-1.29,3.28-.77,1.22.71,1.65,2.26.71,3.89a4.38,4.38,0,0,1-1.53,1.58l-.8-.92a3.42,3.42,0,0,0,1.32-1.29,1.27,1.27,0,0,0-.3-1.86c-.62-.36-1.16-.07-2.1.7-1.26,1-2.3,1.31-3.42.67-1.33-.77-1.67-2.34-.63-4.13a5,5,0,0,1,1.73-1.83Z" transform="translate(-18.32 2.21)"/><path d="M496.67,322l.93.54L493,330.55,492,330Zm3.05,1.76.94.54L496,332.31l-.93-.54Z" transform="translate(-18.32 2.21)"/><path d="M494,333.51c.89.52,1.66.94,2.39,1.3l-.69,1.2-1.51-.81,0,.07a2.6,2.6,0,0,1,.45,3,1.53,1.53,0,0,1-.27.36l-1.3-.74a2.92,2.92,0,0,0,.32-.45,2.21,2.21,0,0,0-.7-2.85,4.22,4.22,0,0,0-.6-.43l-4-2.33.79-1.35Z" transform="translate(-18.32 2.21)"/><path d="M488.29,340.83c.64-1.11.06-1.65-.42-1.93a10.73,10.73,0,0,0-1.34-.6,9.18,9.18,0,0,1-1.35-.62c-1.58-.91-1.57-2.21-.83-3.49l.19-.33.85.5-.15.26a1.33,1.33,0,0,0,.64,2,10.6,10.6,0,0,0,1.18.54,9.19,9.19,0,0,1,1.26.56,1.76,1.76,0,0,1,1.05,2.11h0a1.78,1.78,0,0,1,2.34-.15,9.62,9.62,0,0,1,1.11.81c.35.26.69.54,1,.75a1.31,1.31,0,0,0,2.06-.46l.16-.28.86.5-.18.31c-.77,1.32-1.93,1.92-3.36,1.1a10.48,10.48,0,0,1-1.22-.88,12.07,12.07,0,0,0-1.24-.88c-.55-.31-1.25-.51-1.89.6Z" transform="translate(-18.32 2.21)"/><path d="M481.89,338.05a26.87,26.87,0,0,0,3.19,3.08l-.73,1.62a22.13,22.13,0,0,1-2.93-3.67Z" transform="translate(-18.32 2.21)"/><path d="M481.36,343.4l6.5,3.76.62-1.06,1,.6-.61,1.06.36.21a4.1,4.1,0,0,1,2.13,2.39,3,3,0,0,1-.36,2.25,3.57,3.57,0,0,1-.9,1l-.95-.8a2.42,2.42,0,0,0,.68-.77c.67-1.17-.19-2.06-1.34-2.73l-.41-.23-1.05,1.82-1-.6,1.05-1.83-6.5-3.75Z" transform="translate(-18.32 2.21)"/><path d="M477.22,355.33c-.78-.45-1.47-.83-2.09-1.13l.7-1.21,1.28.63v0a3.3,3.3,0,0,1,0-3.31c.68-1.18,2.16-2.22,4.81-.69l4.41,2.54-.79,1.38-4.18-2.42c-1.43-.82-2.65-.95-3.37.3a2.3,2.3,0,0,0,.2,2.53,2.19,2.19,0,0,0,.63.53l4.63,2.67-.79,1.38Z" transform="translate(-18.32 2.21)"/><path d="M479.36,359.59c.78.45,1.43.8,2.08,1.11l-.7,1.22-1.3-.64v0a3.2,3.2,0,0,1,0,3.31c-.6,1.05-2.16,2.31-4.75.82l-4.5-2.61.79-1.37,4.35,2.51c1.21.71,2.49.84,3.24-.46a2.27,2.27,0,0,0-.34-2.65,2.63,2.63,0,0,0-.59-.46l-4.54-2.62.79-1.37Z" transform="translate(-18.32 2.21)"/><path d="M466,370.62a5.57,5.57,0,0,1,.81-2.42,4.13,4.13,0,0,1,6-1.53,4.43,4.43,0,0,1,1.67,6.37,5.26,5.26,0,0,1-1.49,1.67l-.88-.92a3.73,3.73,0,0,0,1.28-1.39,3.29,3.29,0,0,0-5.65-3.32,4.46,4.46,0,0,0-.6,1.9Z" transform="translate(-18.32 2.21)"/><path d="M473.47,379.51l-2.16-1.25-1.14,2-1-.6,1.13-2-4.07-2.35c-.93-.54-1.62-.59-2.06.18a3.26,3.26,0,0,0-.36.85l-1.07-.53a3.76,3.76,0,0,1,.52-1.33,2.18,2.18,0,0,1,1.43-1.15,3.23,3.23,0,0,1,2.27.61l4.12,2.37.67-1.16,1.05.6-.68,1.17,1.81,1Z" transform="translate(-18.32 2.21)"/><path d="M461.73,377.41l7.55,4.36-.79,1.37-7.55-4.36Zm8.79,7.11a1,1,0,0,1,1-1.7,1,1,0,0,1,.36,1.35A.93.93,0,0,1,470.52,384.52Z" transform="translate(-18.32 2.21)"/><path d="M459.51,390.12a4.26,4.26,0,0,1-1.84-6.07,4.15,4.15,0,0,1,6-1.38c2.53,1.46,3.06,4,1.85,6.06S461.82,391.45,459.51,390.12Zm3.38-6c-1.65-1-3.45-.72-4.22.62s-.09,3,1.6,4c1.28.74,3.27,1,4.21-.59S464.33,384.92,462.89,384.09Z" transform="translate(-18.32 2.21)"/><path d="M460.19,392.81c.78.45,1.43.8,2.08,1.11l-.71,1.22-1.29-.64,0,0a3.2,3.2,0,0,1,0,3.31c-.6,1.05-2.16,2.31-4.75.82L451,396.05l.8-1.37,4.35,2.51c1.21.71,2.49.84,3.23-.46a2.24,2.24,0,0,0-.34-2.65,2.35,2.35,0,0,0-.58-.46L453.89,391l.79-1.37Z" transform="translate(-18.32 2.21)"/><path d="M458.8,407.5a11.84,11.84,0,0,0-5.25-5.64,12,12,0,0,0-7.46-1.69l.62-1.08a11.64,11.64,0,0,1,7.51,1.61,12,12,0,0,1,5.2,5.73Z" transform="translate(-18.32 2.21)"/><path d="M450.22,405.5a2.79,2.79,0,0,0-4.11,1.08,5.7,5.7,0,0,0-.82,2.31l-1.12-.33a7.08,7.08,0,0,1,1-2.78,4,4,0,0,1,6-1.51c2.28,1.31,3.3,3.69,2,5.89-1.42,2.46-4,1.86-5.36,1.06a6.85,6.85,0,0,1-.61-.41Zm-1.34,4.59a2.26,2.26,0,0,0,3.33-.61,2.62,2.62,0,0,0-1-3.39Z" transform="translate(-18.32 2.21)"/><path d="M441.33,408.34a26.17,26.17,0,0,0,3.19,3.09l-.73,1.61a22,22,0,0,1-2.93-3.66Z" transform="translate(-18.32 2.21)"/><path d="M449.64,420.82l-2.17-1.25-1.14,2-1-.6,1.13-2-4.07-2.34c-.93-.55-1.62-.59-2.06.18a3.66,3.66,0,0,0-.36.85l-1.07-.53a4,4,0,0,1,.52-1.33,2.2,2.2,0,0,1,1.43-1.15,3.23,3.23,0,0,1,2.27.61l4.12,2.37.67-1.17,1.05.61-.68,1.17,1.81,1Z" transform="translate(-18.32 2.21)"/><path d="M436.5,416.7a26.1,26.1,0,0,0,3.19,3.08L439,421.4a22.13,22.13,0,0,1-2.93-3.67Z" transform="translate(-18.32 2.21)"/><path d="M441.56,425.08c.78.45,1.43.8,2.08,1.12l-.7,1.21-1.29-.64,0,0a3.22,3.22,0,0,1,0,3.32c-.6,1-2.16,2.3-4.75.81l-4.51-2.6.79-1.37,4.35,2.51c1.22.7,2.49.83,3.24-.46a2.25,2.25,0,0,0-.34-2.65,2.58,2.58,0,0,0-.58-.47l-4.54-2.62.79-1.37Z" transform="translate(-18.32 2.21)"/><path d="M429.64,428.66a12.21,12.21,0,0,0,5.25,5.65,11.94,11.94,0,0,0,7.46,1.69l-.61,1.06a11.51,11.51,0,0,1-7.53-1.62,11.72,11.72,0,0,1-5.18-5.72Z" transform="translate(-18.32 2.21)"/><path d="M433.79,437.11c-.63,1.1-.12,1.61.43,1.92a10.15,10.15,0,0,0,1.38.64,11.26,11.26,0,0,1,1.37.62c1.43.83,1.5,2.11.74,3.44l-.19.33-.86-.5.16-.28c.53-.92.21-1.52-.63-2a9.64,9.64,0,0,0-1.17-.53,8.19,8.19,0,0,1-1.25-.57,1.72,1.72,0,0,1-1-2.1h0a1.72,1.72,0,0,1-2.34.14,8.11,8.11,0,0,1-1.13-.8,7.56,7.56,0,0,0-1.06-.75c-.87-.51-1.56-.43-2.06.45l-.17.28-.85-.5.19-.33c.74-1.29,1.86-1.93,3.44-1a9.07,9.07,0,0,1,1.2.86,10,10,0,0,0,1.2.85c.48.28,1.24.51,1.88-.59Z" transform="translate(-18.32 2.21)"/><path d="M434.71,448.92l-3.59-2.43.48-.82,3.89,1.89Zm1.34-2.32-3.59-2.43.49-.84,3.88,1.91Z" transform="translate(-18.32 2.21)"/><path d="M421.33,452.17c-.78-.45-1.47-.83-2.09-1.12l.7-1.22,1.28.63,0,0a3.26,3.26,0,0,1,0-3.3c.69-1.19,2.16-2.23,4.81-.7L430.5,449l-.8,1.37-4.18-2.41c-1.43-.83-2.65-.95-3.37.3a2.29,2.29,0,0,0,.2,2.52,2.19,2.19,0,0,0,.63.53l4.64,2.68-.8,1.37Z" transform="translate(-18.32 2.21)"/><path d="M419.47,453.89a4.19,4.19,0,0,0-1.59,1.49c-.57,1-.34,1.76.28,2.12s1.24.19,2.2-.61c1.26-1.07,2.38-1.28,3.29-.76,1.21.7,1.64,2.26.71,3.88a4.36,4.36,0,0,1-1.54,1.59l-.8-.92a3.43,3.43,0,0,0,1.33-1.29,1.28,1.28,0,0,0-.3-1.86c-.63-.36-1.17-.07-2.11.7-1.26,1-2.3,1.31-3.42.66-1.33-.76-1.67-2.33-.63-4.13a4.94,4.94,0,0,1,1.74-1.82Z" transform="translate(-18.32 2.21)"/><path d="M417.47,462.26a2.79,2.79,0,0,0-4.11,1.07,5.73,5.73,0,0,0-.82,2.32l-1.12-.34a7.08,7.08,0,0,1,1-2.78,4,4,0,0,1,6-1.51c2.28,1.31,3.3,3.69,2,5.89-1.42,2.46-4,1.86-5.36,1.06a6.85,6.85,0,0,1-.61-.41Zm-1.34,4.59a2.26,2.26,0,0,0,3.33-.62,2.62,2.62,0,0,0-1-3.39Z" transform="translate(-18.32 2.21)"/><path d="M409.49,471.18a4.15,4.15,0,0,0-1.59,1.5c-.57,1-.35,1.75.28,2.11s1.24.19,2.2-.6c1.26-1.08,2.38-1.29,3.29-.77,1.21.71,1.64,2.27.71,3.89a4.32,4.32,0,0,1-1.54,1.58L412,478a3.36,3.36,0,0,0,1.33-1.29,1.28,1.28,0,0,0-.3-1.86c-.63-.36-1.17-.07-2.11.7-1.26,1-2.3,1.31-3.42.67-1.33-.77-1.67-2.34-.63-4.13a4.79,4.79,0,0,1,1.74-1.82Z" transform="translate(-18.32 2.21)"/><path d="M413.18,484,411,482.75l-1.14,2-1-.6,1.13-2-4.07-2.35c-.93-.54-1.62-.58-2.06.19a3.66,3.66,0,0,0-.36.85l-1.07-.54a4,4,0,0,1,.52-1.32,2.2,2.2,0,0,1,1.43-1.15,3.23,3.23,0,0,1,2.27.61l4.12,2.37.67-1.17,1,.61-.68,1.17,1.81,1Z" transform="translate(-18.32 2.21)"/><path d="M406.63,484.89c.89.51,1.67.94,2.4,1.3l-.7,1.2-1.51-.81,0,.06a2.6,2.6,0,0,1,.44,3,1.54,1.54,0,0,1-.27.37l-1.29-.75a2,2,0,0,0,.31-.44,2.22,2.22,0,0,0-.69-2.86,4.6,4.6,0,0,0-.61-.43l-4-2.32.78-1.36Z" transform="translate(-18.32 2.21)"/><path d="M398.46,487.05l7.55,4.36-.79,1.37-7.55-4.35Zm8.79,7.11a.93.93,0,0,1-.34-1.36,1,1,0,0,1,1.32-.34,1,1,0,0,1,.36,1.36A.94.94,0,0,1,407.25,494.16Z" transform="translate(-18.32 2.21)"/><path d="M393.53,496.25a6,6,0,0,1,.81-2.42,4.14,4.14,0,0,1,6-1.53,4.43,4.43,0,0,1,1.67,6.37,5.26,5.26,0,0,1-1.49,1.67l-.88-.92a3.69,3.69,0,0,0,1.28-1.38,3,3,0,0,0-1.32-4.32,3,3,0,0,0-4.33,1,4.46,4.46,0,0,0-.6,1.9Z" transform="translate(-18.32 2.21)"/><path d="M401,505.17l-2.17-1.25-1.14,2-1-.61,1.13-2L393.67,501c-.93-.54-1.62-.58-2.06.18a3.66,3.66,0,0,0-.36.85l-1.07-.53a3.92,3.92,0,0,1,.52-1.32,2.2,2.2,0,0,1,1.43-1.15,3.22,3.22,0,0,1,2.27.6l4.12,2.38.67-1.17,1.05.6-.68,1.17,1.81,1Z" transform="translate(-18.32 2.21)"/><path d="M398,512.57l-3.59-2.42.47-.83,3.9,1.9Zm1.34-2.32-3.59-2.42.48-.85,3.89,1.91Z" transform="translate(-18.32 2.21)"/><path d="M384.77,506.35a26.17,26.17,0,0,0,3.19,3.09l-.72,1.6a23,23,0,0,1-2.93-3.69Zm7.83,5.41a1.06,1.06,0,0,1,.45,1.49,1.13,1.13,0,0,1-1.95-1.12A1.06,1.06,0,0,1,392.6,511.76Z" transform="translate(-18.32 2.21)"/><path d="M391.57,516.43l-5.1-1a21.53,21.53,0,0,1-2.28-.5l0,0c.53.53,1,1.11,1.57,1.76l3.39,3.91-.83,1.44-5.83-7.32.75-1.31,9.21,1.48Z" transform="translate(-18.32 2.21)"/><path d="M377.62,523.16l1,.44,0-.05a3.21,3.21,0,0,1,.21-2.95,2.48,2.48,0,0,1,3.5-1.06c1.82,1.05,1.88,3.25.18,6.16l.16.09a1.8,1.8,0,0,0,2.74-.71,4.35,4.35,0,0,0,.57-2.29l1.08.21a5.36,5.36,0,0,1-.76,2.87c-1.33,2.31-3.23,2-4.74,1.09l-2.82-1.63a12,12,0,0,0-1.89-.92Zm4,2c.9-1.48,1.62-3.33.15-4.18a1.41,1.41,0,0,0-2.06.54,2.16,2.16,0,0,0,.21,2.55,1.52,1.52,0,0,0,.39.33Z" transform="translate(-18.32 2.21)"/><path d="M380.88,529.51c.89.52,1.66.94,2.39,1.3l-.69,1.2-1.51-.81,0,.06a2.63,2.63,0,0,1,.44,3,2.11,2.11,0,0,1-.27.36l-1.29-.75a2.39,2.39,0,0,0,.31-.44,2.23,2.23,0,0,0-.7-2.86,6.76,6.76,0,0,0-.6-.43l-4-2.32.78-1.36Z" transform="translate(-18.32 2.21)"/><path d="M376,537.92c.89.51,1.67.93,2.39,1.29l-.69,1.2-1.51-.81,0,.07a2.6,2.6,0,0,1,.44,3,1.53,1.53,0,0,1-.27.36l-1.29-.74a2.35,2.35,0,0,0,.31-.45,2.2,2.2,0,0,0-.7-2.85,3.71,3.71,0,0,0-.6-.43l-4-2.33.78-1.35Z" transform="translate(-18.32 2.21)"/><path d="M370.39,540.77l.94.54-4.65,8.05-.93-.54Zm3.06,1.77.93.54-4.64,8-.94-.54Z" transform="translate(-18.32 2.21)"/><path d="M368.05,552.47c.78.45,1.43.81,2.08,1.12l-.71,1.22-1.29-.64,0,0a3.18,3.18,0,0,1,0,3.31c-.6,1-2.16,2.31-4.75.81l-4.51-2.6.8-1.37,4.35,2.51c1.21.7,2.49.84,3.23-.46a2.24,2.24,0,0,0-.34-2.65,2.14,2.14,0,0,0-.58-.46l-4.54-2.62.79-1.37Z" transform="translate(-18.32 2.21)"/><path d="M366.65,567.17a11.87,11.87,0,0,0-5.24-5.64,12.08,12.08,0,0,0-7.47-1.69l.62-1.08a11.73,11.73,0,0,1,7.52,1.61,11.87,11.87,0,0,1,5.19,5.73Z" transform="translate(-18.32 2.21)"/><path d="M362.38,570l0,0,.07-2.31,1.19.33-.09,2.9-.68,1.17-10.13-5.85.76-1.33Z" transform="translate(-18.32 2.21)"/><path d="M356.46,581A6.26,6.26,0,0,0,357,580a4.76,4.76,0,0,0-1.57-5.6l0,0a3.56,3.56,0,0,1-5.28,4.29,3.91,3.91,0,0,1-1.63-5.43c1.25-2.16,3.76-2.61,6.39-1.09a7.34,7.34,0,0,1,3.58,4.35,6.39,6.39,0,0,1-.37,4.11,7.92,7.92,0,0,1-.5,1Zm-5.63-3.77a2.37,2.37,0,0,0,3.53-.75,2.58,2.58,0,0,0-.11-2.68,1.28,1.28,0,0,0-.52-.51c-1.69-.93-3.36-.88-4.19.56C348.86,575.06,349.38,576.42,350.83,577.26Z" transform="translate(-18.32 2.21)"/><path d="M344.34,576.48a12.22,12.22,0,0,0,5.24,5.64,11.85,11.85,0,0,0,7.47,1.69l-.61,1.07a11.51,11.51,0,0,1-7.53-1.63,11.7,11.7,0,0,1-5.18-5.71Z" transform="translate(-18.32 2.21)"/><path d="M341.79,580.82a25.45,25.45,0,0,0,3.19,3.09l-.73,1.62a21.62,21.62,0,0,1-2.93-3.67Z" transform="translate(-18.32 2.21)"/><path d="M341.22,595.1a4.26,4.26,0,0,1-1.84-6.07,4.16,4.16,0,0,1,6-1.38c2.52,1.46,3.05,4,1.84,6.06S343.53,596.43,341.22,595.1Zm3.38-6c-1.65-1-3.45-.73-4.22.62s-.09,3,1.61,4c1.27.74,3.26,1,4.2-.59S346,589.9,344.6,589.07Z" transform="translate(-18.32 2.21)"/><path d="M338.89,595.37l.93.54-4.64,8-.94-.54Zm3.06,1.76.93.54-4.64,8.05-.94-.54Z" transform="translate(-18.32 2.21)"/><path d="M336.22,606.9c.89.51,1.67.94,2.4,1.3l-.7,1.2-1.51-.81,0,.06a2.62,2.62,0,0,1,.44,3.05,1.69,1.69,0,0,1-.27.36l-1.29-.75a2,2,0,0,0,.31-.44,2.22,2.22,0,0,0-.69-2.86,5.36,5.36,0,0,0-.61-.43l-4-2.32.78-1.36Z" transform="translate(-18.32 2.21)"/><path d="M326.59,607.17a26.12,26.12,0,0,0,3.19,3.08l-.72,1.61a23,23,0,0,1-2.93-3.69Zm7.83,5.41a1.06,1.06,0,0,1,.45,1.49,1.13,1.13,0,0,1-1.95-1.13A1.07,1.07,0,0,1,334.42,612.58Z" transform="translate(-18.32 2.21)"/><path d="M329.22,615.18a2.79,2.79,0,0,0-4.11,1.07,5.78,5.78,0,0,0-.82,2.32l-1.12-.34a7,7,0,0,1,1-2.78,4,4,0,0,1,5.94-1.51c2.28,1.31,3.3,3.69,2,5.89-1.42,2.46-4,1.87-5.36,1.06a5.18,5.18,0,0,1-.61-.41Zm-1.34,4.59a2.25,2.25,0,0,0,3.33-.62,2.63,2.63,0,0,0-1-3.39Z" transform="translate(-18.32 2.21)"/><path d="M322.74,620.14a1.07,1.07,0,1,1-1.51.35A1.06,1.06,0,0,1,322.74,620.14Z" transform="translate(-18.32 2.21)"/><path d="M323,626a2.79,2.79,0,0,0-4.11,1.08,5.7,5.7,0,0,0-.82,2.31l-1.11-.33a6.92,6.92,0,0,1,1-2.78,4,4,0,0,1,5.94-1.51c2.28,1.31,3.3,3.69,2,5.88-1.42,2.47-4,1.87-5.36,1.07a6.85,6.85,0,0,1-.61-.41Zm-1.34,4.59A2.26,2.26,0,0,0,325,630a2.62,2.62,0,0,0-1-3.39Z" transform="translate(-18.32 2.21)"/><path d="M322.57,636l-2.24.14c-.58,0-1.11,0-1.67.06l0,0c.31.51.55,1,.81,1.47l1,2-.86,1.48-2.16-4.68-5.43.4.9-1.56,2.34-.12c.61-.05,1.17-.05,1.78-.06l0,0c-.31-.51-.57-1-.86-1.55l-1.06-2.07L316,630l2.3,4.91,5.17-.43Z" transform="translate(-18.32 2.21)"/><path d="M316.32,641.14c1,.56,1.76,1,2.5,1.36l-.71,1.23-1.33-.68,0,0a3.42,3.42,0,0,1-.08,3.53c-1.06,1.82-3.39,2.3-5.68,1-2.72-1.57-3.11-4-2.08-5.77a3.06,3.06,0,0,1,2.53-1.64l0,0-4.11-2.37.79-1.36Zm-2.8.19a4.26,4.26,0,0,0-.59-.26,2.45,2.45,0,0,0-2.8,1.13c-.84,1.46-.14,3,1.59,4,1.52.87,3.27.83,4.11-.62a2.54,2.54,0,0,0-.5-3.06,2.59,2.59,0,0,0-.51-.42Z" transform="translate(-18.32 2.21)"/><path d="M306,656.13a4.25,4.25,0,0,1-1.84-6.07,4.13,4.13,0,0,1,6-1.38,4.26,4.26,0,0,1,1.85,6.06A4.14,4.14,0,0,1,306,656.13Zm3.37-6c-1.65-1-3.45-.72-4.22.62s-.09,3,1.61,4c1.28.74,3.27,1,4.2-.59S310.82,650.92,309.38,650.09Z" transform="translate(-18.32 2.21)"/><path d="M306.36,658.65c.89.51,1.66.94,2.39,1.29l-.69,1.2-1.51-.8,0,.06a2.61,2.61,0,0,1,.45,3,1.86,1.86,0,0,1-.27.37l-1.3-.75a2.27,2.27,0,0,0,.32-.44,2.22,2.22,0,0,0-.7-2.86,4.22,4.22,0,0,0-.6-.43l-4-2.32.79-1.36Z" transform="translate(-18.32 2.21)"/><path d="M306.76,668.4l-2.16-1.26-1.14,2-1-.6,1.13-2-4.07-2.35c-.93-.54-1.62-.58-2.06.18a3.26,3.26,0,0,0-.36.85l-1.07-.53a3.72,3.72,0,0,1,.52-1.32,2.2,2.2,0,0,1,1.43-1.15,3.22,3.22,0,0,1,2.27.6l4.12,2.38L305,664l1.05.6-.68,1.17,1.81,1.05Z" transform="translate(-18.32 2.21)"/><path d="M296.54,666.92a4.12,4.12,0,0,0-1.59,1.49c-.58,1-.35,1.76.27,2.12s1.24.19,2.2-.6c1.27-1.08,2.38-1.29,3.29-.77,1.21.71,1.65,2.26.71,3.89a4.4,4.4,0,0,1-1.54,1.58l-.8-.92a3.43,3.43,0,0,0,1.33-1.29,1.28,1.28,0,0,0-.3-1.86c-.63-.36-1.17-.07-2.11.7-1.25,1-2.3,1.31-3.42.67-1.32-.77-1.67-2.34-.63-4.13a5,5,0,0,1,1.74-1.83Z" transform="translate(-18.32 2.21)"/><path d="M294,673.21l.94.54-4.65,8-.93-.54ZM297,675l.94.54-4.65,8-.93-.54Z" transform="translate(-18.32 2.21)"/><path d="M286,690.8a4.26,4.26,0,0,1-1.84-6.07,4.13,4.13,0,0,1,6-1.38,4.26,4.26,0,0,1,1.85,6.06C290.73,691.58,288.3,692.13,286,690.8Zm3.38-6c-1.66-1-3.45-.73-4.23.61s-.09,3,1.61,4c1.28.74,3.27,1,4.21-.59S290.81,685.59,289.38,684.77Z" transform="translate(-18.32 2.21)"/><path d="M283.63,695.47a1.23,1.23,0,0,0-.42-1.93,10.6,10.6,0,0,0-1.33-.6,9.79,9.79,0,0,1-1.36-.62c-1.57-.9-1.56-2.21-.83-3.49l.19-.33.86.5-.15.26a1.33,1.33,0,0,0,.63,2,10.76,10.76,0,0,0,1.19.54,9.19,9.19,0,0,1,1.26.56,1.78,1.78,0,0,1,1.05,2.11h0a1.76,1.76,0,0,1,2.33-.15,9.62,9.62,0,0,1,1.11.81,10.17,10.17,0,0,0,1.05.75,1.3,1.3,0,0,0,2.05-.46l.16-.28.86.5-.18.31c-.76,1.33-1.92,1.93-3.36,1.1a11.4,11.4,0,0,1-1.22-.88,12.07,12.07,0,0,0-1.24-.88c-.54-.31-1.24-.51-1.88.6Z" transform="translate(-18.32 2.21)"/><path d="M277.24,692.69a26.05,26.05,0,0,0,3.18,3.09l-.72,1.61a22.12,22.12,0,0,1-2.94-3.66Z" transform="translate(-18.32 2.21)"/><path d="M276.69,698.06l6.5,3.76.62-1.06,1,.6-.61,1.06.36.21a4.1,4.1,0,0,1,2.13,2.39,3,3,0,0,1-.36,2.25,3.57,3.57,0,0,1-.9,1l-1-.8a2.32,2.32,0,0,0,.68-.77c.67-1.17-.18-2.06-1.34-2.73l-.4-.23-1.06,1.82-1-.6,1.05-1.82-6.5-3.76Z" transform="translate(-18.32 2.21)"/><path d="M272.56,710c-.78-.45-1.48-.83-2.1-1.12l.71-1.22,1.27.63,0,0a3.26,3.26,0,0,1,0-3.3c.68-1.19,2.16-2.23,4.81-.7l4.41,2.55-.79,1.37-4.18-2.41c-1.44-.83-2.66-1-3.38.29a2.28,2.28,0,0,0,.21,2.53,2.07,2.07,0,0,0,.63.53l4.63,2.68-.79,1.37Z" transform="translate(-18.32 2.21)"/><path d="M274.69,714.24c.78.45,1.43.81,2.08,1.12l-.7,1.22-1.29-.64,0,0a3.2,3.2,0,0,1,0,3.31c-.61,1.05-2.16,2.31-4.75.81l-4.51-2.6.79-1.37,4.35,2.51c1.22.7,2.49.84,3.24-.46a2.25,2.25,0,0,0-.34-2.65,2.2,2.2,0,0,0-.59-.46l-4.53-2.62.79-1.37Z" transform="translate(-18.32 2.21)"/><path d="M261.36,725.27a5.85,5.85,0,0,1,.82-2.42,4.14,4.14,0,0,1,6-1.53,4.43,4.43,0,0,1,1.67,6.37,5.26,5.26,0,0,1-1.49,1.67l-.88-.92a3.85,3.85,0,0,0,1.28-1.38,3,3,0,0,0-1.32-4.32,3,3,0,0,0-4.33,1,4.46,4.46,0,0,0-.6,1.9Z" transform="translate(-18.32 2.21)"/><path d="M268.8,734.19l-2.17-1.25-1.14,2-1-.6,1.13-2L261.51,730c-.93-.55-1.62-.59-2.06.18a3.66,3.66,0,0,0-.36.85l-1.07-.53a4,4,0,0,1,.52-1.33A2.2,2.2,0,0,1,260,728a3.23,3.23,0,0,1,2.27.61l4.12,2.37.67-1.17,1.05.61-.68,1.17,1.81,1Z" transform="translate(-18.32 2.21)"/><path d="M257.07,732.07l7.55,4.35-.79,1.38-7.55-4.36Zm8.79,7.11a1,1,0,0,1,1-1.7,1,1,0,0,1,.36,1.35A.94.94,0,0,1,265.86,739.18Z" transform="translate(-18.32 2.21)"/><path d="M254.86,744.76a4.26,4.26,0,0,1-1.84-6.07,4.14,4.14,0,0,1,6-1.38c2.53,1.46,3.06,4,1.85,6.06S257.17,746.09,254.86,744.76Zm3.38-6c-1.66-1-3.45-.72-4.23.62s-.09,3,1.61,4c1.28.74,3.27,1,4.21-.59S259.67,739.55,258.24,738.72Z" transform="translate(-18.32 2.21)"/><path d="M255.52,747.46c.78.45,1.43.8,2.08,1.12l-.7,1.21-1.29-.64,0,0a3.22,3.22,0,0,1,0,3.32c-.6,1-2.16,2.3-4.75.81l-4.51-2.6.79-1.38,4.35,2.52c1.22.7,2.49.83,3.24-.46a2.25,2.25,0,0,0-.34-2.65,2.58,2.58,0,0,0-.58-.47l-4.54-2.62.79-1.37Z" transform="translate(-18.32 2.21)"/><path d="M254.12,762.18a11.88,11.88,0,0,0-5.24-5.65,12.15,12.15,0,0,0-7.47-1.69l.62-1.07a11.58,11.58,0,0,1,7.51,1.61,11.83,11.83,0,0,1,5.2,5.72Z" transform="translate(-18.32 2.21)"/><path d="M245.54,760.18a2.79,2.79,0,0,0-4.11,1.08,5.68,5.68,0,0,0-.82,2.32l-1.12-.34a7.08,7.08,0,0,1,1-2.78,4,4,0,0,1,5.95-1.51c2.28,1.31,3.3,3.69,2,5.89-1.42,2.46-4,1.86-5.36,1.06a6.85,6.85,0,0,1-.61-.41Zm-1.34,4.59a2.26,2.26,0,0,0,3.33-.61,2.62,2.62,0,0,0-1-3.39Z" transform="translate(-18.32 2.21)"/><path d="M236.65,763a26.92,26.92,0,0,0,3.19,3.09l-.72,1.62a22.14,22.14,0,0,1-2.94-3.67Z" transform="translate(-18.32 2.21)"/><path d="M245,775.49l-2.16-1.26-1.14,2-1-.6,1.13-2-4.07-2.35c-.93-.54-1.62-.58-2.06.18a3.66,3.66,0,0,0-.36.85l-1.07-.53a3.92,3.92,0,0,1,.52-1.32,2.2,2.2,0,0,1,1.43-1.15,3.22,3.22,0,0,1,2.27.6l4.12,2.38.67-1.17,1.05.6-.68,1.17,1.81,1.05Z" transform="translate(-18.32 2.21)"/><path d="M231.85,771.34a26.17,26.17,0,0,0,3.19,3.09l-.73,1.61a22.23,22.23,0,0,1-2.94-3.66Z" transform="translate(-18.32 2.21)"/><path d="M236.9,779.74c.78.45,1.43.8,2.08,1.11l-.7,1.22-1.3-.64,0,0a3.18,3.18,0,0,1,0,3.31c-.6,1.05-2.16,2.31-4.75.82L227.68,783l.8-1.37,4.35,2.51c1.21.71,2.49.84,3.24-.46a2.26,2.26,0,0,0-.35-2.65,2.35,2.35,0,0,0-.58-.46l-4.54-2.62.79-1.37Z" transform="translate(-18.32 2.21)"/><path d="M225,783.31a12.21,12.21,0,0,0,5.25,5.65,11.94,11.94,0,0,0,7.46,1.69l-.61,1.06a11.51,11.51,0,0,1-7.53-1.62,11.76,11.76,0,0,1-5.18-5.72Z" transform="translate(-18.32 2.21)"/><path d="M229.13,791.76c-.64,1.1-.12,1.61.43,1.93a10.19,10.19,0,0,0,1.38.63,10.47,10.47,0,0,1,1.36.62c1.44.83,1.51,2.11.74,3.44l-.19.33-.85-.5.16-.28c.53-.92.21-1.52-.63-2a7.32,7.32,0,0,0-1.17-.53,9.36,9.36,0,0,1-1.25-.58,1.71,1.71,0,0,1-1-2.09l0,0a1.74,1.74,0,0,1-2.35.14,8.87,8.87,0,0,1-1.12-.79,6.89,6.89,0,0,0-1.06-.76c-.87-.51-1.56-.43-2.07.45l-.16.28-.86-.5.19-.32c.75-1.3,1.87-1.94,3.44-1a8.56,8.56,0,0,1,1.21.86,9.6,9.6,0,0,0,1.19.85,1.24,1.24,0,0,0,1.89-.59Z" transform="translate(-18.32 2.21)"/><path d="M230,803.59l-3.59-2.42.48-.83,3.9,1.9Zm1.34-2.32-3.58-2.43.48-.84,3.89,1.91Z" transform="translate(-18.32 2.21)"/><path d="M216.66,806.85c-.78-.45-1.48-.83-2.1-1.13l.7-1.21,1.28.63,0,0a3.28,3.28,0,0,1,0-3.31c.68-1.18,2.15-2.22,4.81-.69l4.41,2.55L225,805l-4.18-2.42c-1.44-.82-2.66-.94-3.38.3a2.28,2.28,0,0,0,.21,2.53,2.07,2.07,0,0,0,.63.53l4.63,2.68-.79,1.37Z" transform="translate(-18.32 2.21)"/><path d="M214.81,808.55a4.12,4.12,0,0,0-1.59,1.49c-.58,1-.35,1.76.27,2.12s1.24.19,2.2-.61c1.27-1.07,2.38-1.28,3.29-.76,1.22.7,1.65,2.26.71,3.88a4.36,4.36,0,0,1-1.54,1.59l-.8-.92a3.43,3.43,0,0,0,1.33-1.29,1.27,1.27,0,0,0-.3-1.86c-.63-.36-1.17-.07-2.11.7-1.25,1-2.3,1.31-3.42.66-1.32-.76-1.67-2.33-.63-4.13A5,5,0,0,1,214,807.6Z" transform="translate(-18.32 2.21)"/><path d="M212.8,816.92a2.79,2.79,0,0,0-4.11,1.07,5.73,5.73,0,0,0-.82,2.32l-1.12-.34a7,7,0,0,1,1-2.78,4,4,0,0,1,5.94-1.51c2.28,1.31,3.3,3.69,2,5.89-1.42,2.46-4,1.86-5.36,1.06a6.85,6.85,0,0,1-.61-.41Zm-1.34,4.59a2.26,2.26,0,0,0,3.33-.62,2.63,2.63,0,0,0-1-3.39Z" transform="translate(-18.32 2.21)"/><path d="M204.82,825.85a4.19,4.19,0,0,0-1.59,1.49c-.57,1-.35,1.76.28,2.12s1.24.19,2.2-.61c1.26-1.07,2.38-1.28,3.28-.76,1.22.7,1.65,2.26.72,3.88a4.44,4.44,0,0,1-1.54,1.59l-.8-.92a3.42,3.42,0,0,0,1.32-1.29,1.27,1.27,0,0,0-.3-1.86c-.62-.36-1.16-.07-2.1.7-1.26,1-2.3,1.31-3.42.66-1.33-.76-1.67-2.33-.63-4.12A5,5,0,0,1,204,824.9Z" transform="translate(-18.32 2.21)"/><path d="M208.51,838.66l-2.17-1.26-1.13,2-1.05-.6,1.14-2-4.07-2.35c-.94-.54-1.62-.58-2.06.18a3.79,3.79,0,0,0-.37.85l-1.06-.53a3.86,3.86,0,0,1,.51-1.32,2.2,2.2,0,0,1,1.43-1.15,3.23,3.23,0,0,1,2.28.6l4.11,2.38.68-1.17,1,.6-.67,1.17,1.81,1.05Z" transform="translate(-18.32 2.21)"/><path d="M202,839.57c.89.51,1.66.93,2.39,1.29l-.7,1.2-1.5-.81,0,.07a2.61,2.61,0,0,1,.45,3,1.32,1.32,0,0,1-.28.36L201,844a3.35,3.35,0,0,0,.32-.44,2.22,2.22,0,0,0-.7-2.86,3.83,3.83,0,0,0-.61-.43l-4-2.33.78-1.35Z" transform="translate(-18.32 2.21)"/><path d="M193.79,841.73l7.54,4.35-.79,1.38L193,843.1Zm8.78,7.11a1,1,0,0,1,1-1.7,1,1,0,0,1,.37,1.35A1,1,0,0,1,202.57,848.84Z" transform="translate(-18.32 2.21)"/><path d="M188.86,850.9a5.85,5.85,0,0,1,.82-2.42,4.14,4.14,0,0,1,6-1.53,4.43,4.43,0,0,1,1.67,6.37,5.26,5.26,0,0,1-1.49,1.67l-.88-.92a3.77,3.77,0,0,0,1.28-1.38,3,3,0,0,0-1.32-4.32,3,3,0,0,0-4.33,1,4.46,4.46,0,0,0-.6,1.9Z" transform="translate(-18.32 2.21)"/><path d="M196.29,859.83l-2.17-1.25-1.13,2-1.05-.6,1.14-2L189,855.63c-.94-.54-1.62-.58-2.06.18a3.37,3.37,0,0,0-.37.85l-1.07-.53a3.92,3.92,0,0,1,.52-1.32,2.2,2.2,0,0,1,1.43-1.15,3.22,3.22,0,0,1,2.27.6l4.12,2.38.68-1.17,1,.6-.67,1.17,1.8,1Z" transform="translate(-18.32 2.21)"/><path d="M193.31,867.23l-3.59-2.43.48-.82,3.89,1.89Zm1.34-2.32-3.59-2.43.49-.84,3.88,1.91Z" transform="translate(-18.32 2.21)"/><path d="M180.11,861a25.45,25.45,0,0,0,3.19,3.09l-.72,1.6a22.87,22.87,0,0,1-2.92-3.68Zm7.83,5.42a1.06,1.06,0,0,1,.45,1.49,1,1,0,0,1-1.51.35,1.06,1.06,0,1,1,1.06-1.84Z" transform="translate(-18.32 2.21)"/><path d="M179.59,866.33l6.5,3.76.61-1.06,1.05.6-.62,1.06.36.21a4.1,4.1,0,0,1,2.13,2.39,3,3,0,0,1-.36,2.25,3.72,3.72,0,0,1-.89,1l-1-.8a2.3,2.3,0,0,0,.67-.77c.68-1.17-.18-2.06-1.33-2.73l-.41-.23-1,1.82-1.05-.6,1.06-1.82-6.51-3.76Z" transform="translate(-18.32 2.21)"/><path d="M175.45,878.25c-.78-.45-1.47-.83-2.09-1.12l.7-1.22,1.27.63,0,0a3.28,3.28,0,0,1,0-3.3c.68-1.19,2.16-2.23,4.81-.7l4.41,2.55-.79,1.37L179.64,874c-1.43-.83-2.65-.95-3.37.3a2.3,2.3,0,0,0,.2,2.53,2.56,2.56,0,0,0,.63.53l4.63,2.67-.79,1.37Z" transform="translate(-18.32 2.21)"/><path d="M177.58,882.52c.78.45,1.43.8,2.08,1.12l-.7,1.21-1.29-.64,0,0a3.2,3.2,0,0,1,0,3.31c-.6,1.05-2.16,2.31-4.75.82l-4.51-2.6.79-1.38,4.35,2.52c1.22.7,2.49.83,3.24-.46a2.27,2.27,0,0,0-.34-2.66,2.35,2.35,0,0,0-.58-.46l-4.54-2.62.79-1.37Z" transform="translate(-18.32 2.21)"/><path d="M164.25,893.56a5.86,5.86,0,0,1,.81-2.42,4.14,4.14,0,0,1,6-1.54,4.43,4.43,0,0,1,1.67,6.37,5.31,5.31,0,0,1-1.49,1.68l-.88-.92a3.65,3.65,0,0,0,1.28-1.39A3.28,3.28,0,0,0,166,892a4.6,4.6,0,0,0-.6,1.9Z" transform="translate(-18.32 2.21)"/><path d="M171.7,902.45l-2.17-1.25-1.14,2-1-.6,1.13-2-4.07-2.35c-.93-.54-1.62-.58-2.06.18a3.66,3.66,0,0,0-.36.85l-1.07-.53a4,4,0,0,1,.52-1.33,2.23,2.23,0,0,1,1.43-1.15,3.28,3.28,0,0,1,2.27.61l4.12,2.37.67-1.16,1,.6-.68,1.17,1.81,1Z" transform="translate(-18.32 2.21)"/><path d="M160,900.35l7.54,4.36-.79,1.37-7.54-4.36Zm8.78,7.11a1,1,0,0,1,1-1.7,1,1,0,0,1,.37,1.35A.94.94,0,0,1,168.74,907.46Z" transform="translate(-18.32 2.21)"/><path d="M157.74,913.06A4.27,4.27,0,0,1,155.9,907a4.14,4.14,0,0,1,6-1.37c2.53,1.46,3,4,1.85,6A4.13,4.13,0,0,1,157.74,913.06Zm3.38-6c-1.66-.95-3.45-.72-4.23.62s-.09,3,1.61,4c1.28.74,3.27,1,4.21-.58S162.55,907.85,161.12,907Z" transform="translate(-18.32 2.21)"/><path d="M158.42,915.73c.78.45,1.42.81,2.08,1.12l-.71,1.22-1.29-.65,0,0a3.2,3.2,0,0,1,0,3.31c-.6,1-2.16,2.31-4.75.81L149.2,919l.8-1.37,4.35,2.51c1.21.7,2.49.84,3.23-.46a2.24,2.24,0,0,0-.34-2.65,2.14,2.14,0,0,0-.58-.46l-4.54-2.62.79-1.37Z" transform="translate(-18.32 2.21)"/><path d="M151.2,927.53c.89.51,1.66.93,2.39,1.29l-.7,1.2-1.5-.81,0,.07a2.61,2.61,0,0,1,.45,3,1.32,1.32,0,0,1-.28.36l-1.29-.74a3.35,3.35,0,0,0,.32-.44,2.22,2.22,0,0,0-.7-2.86,3.83,3.83,0,0,0-.61-.43l-4-2.33.78-1.35Z" transform="translate(-18.32 2.21)"/><path d="M152.16,938.86a11.88,11.88,0,0,0-5.24-5.65,12.15,12.15,0,0,0-7.47-1.69l.62-1.08a11.65,11.65,0,0,1,7.51,1.62,11.79,11.79,0,0,1,5.2,5.72Z" transform="translate(-18.32 2.21)"/><path d="M143.59,936.86a2.8,2.8,0,0,0-4.12,1.07,5.84,5.84,0,0,0-.81,2.32l-1.12-.34a7.08,7.08,0,0,1,1-2.78,4,4,0,0,1,5.95-1.51c2.28,1.31,3.3,3.69,2,5.89-1.43,2.46-4,1.86-5.36,1.06a6.85,6.85,0,0,1-.61-.41Zm-1.34,4.59a2.26,2.26,0,0,0,3.33-.62,2.62,2.62,0,0,0-1-3.39Z" transform="translate(-18.32 2.21)"/><path d="M134.58,940a12.21,12.21,0,0,0,5.25,5.65,11.94,11.94,0,0,0,7.46,1.69l-.61,1.06a11.49,11.49,0,0,1-7.53-1.62A11.72,11.72,0,0,1,134,941Z" transform="translate(-18.32 2.21)"/><path d="M138.73,948.41c-.64,1.11-.12,1.61.42,1.93a10.92,10.92,0,0,0,1.39.63,11.12,11.12,0,0,1,1.36.62c1.44.83,1.5,2.12.74,3.44l-.19.33-.86-.49.16-.29c.54-.91.22-1.51-.63-2a6.94,6.94,0,0,0-1.17-.53,7.67,7.67,0,0,1-1.24-.58,1.71,1.71,0,0,1-1-2.09l0,0a1.74,1.74,0,0,1-2.35.14,8,8,0,0,1-1.12-.79,9.05,9.05,0,0,0-1.06-.76c-.87-.5-1.57-.42-2.07.45l-.16.28-.86-.49.19-.33c.75-1.3,1.87-1.94,3.44-1a11.09,11.09,0,0,1,1.21.86,10,10,0,0,0,1.19.86c.48.28,1.24.51,1.88-.6Z" transform="translate(-18.32 2.21)"/><path d="M130.89,950.72l7.55,4.36-.8,1.37-7.54-4.36Zm8.78,7.11a.93.93,0,0,1-.33-1.36,1,1,0,0,1,1.32-.34,1,1,0,0,1,.36,1.35A.94.94,0,0,1,139.67,957.83Z" transform="translate(-18.32 2.21)"/><path d="M128.7,954.51l6.5,3.75.62-1.06,1,.61-.61,1.06.36.2a4.14,4.14,0,0,1,2.13,2.4,3,3,0,0,1-.36,2.24,3.5,3.5,0,0,1-.9,1l-.95-.8a2.48,2.48,0,0,0,.68-.78c.67-1.17-.18-2.06-1.34-2.72l-.4-.24-1.06,1.83-1-.6,1-1.83-6.5-3.75Z" transform="translate(-18.32 2.21)"/><path d="M135.25,968.16a11.87,11.87,0,0,0-5.24-5.64,12.08,12.08,0,0,0-7.47-1.69l.62-1.08a11.64,11.64,0,0,1,7.51,1.61,11.84,11.84,0,0,1,5.2,5.73Z" transform="translate(-18.32 2.21)"/><path d="M129.1,966.54c.78.45,1.43.8,2.08,1.11l-.7,1.22-1.3-.64v0a3.2,3.2,0,0,1,0,3.31c-.61,1-2.17,2.31-4.76.82l-4.5-2.61.79-1.37,4.35,2.51c1.22.71,2.49.84,3.24-.46a2.25,2.25,0,0,0-.34-2.65,2.42,2.42,0,0,0-.59-.46l-4.54-2.62.8-1.37Z" transform="translate(-18.32 2.21)"/><path d="M117,979.52c-.78-.45-1.47-.83-2.09-1.13l.7-1.22,1.28.64,0,0a3.27,3.27,0,0,1,0-3.31c.69-1.18,2.16-2.22,4.81-.69l4.42,2.54-.8,1.38-4.18-2.42c-1.43-.82-2.65-.95-3.37.3a2.3,2.3,0,0,0,.2,2.53,2.19,2.19,0,0,0,.63.53l4.63,2.67-.79,1.38Z" transform="translate(-18.32 2.21)"/><path d="M124.71,987l-.79,1.37L112.85,982l.79-1.37Z" transform="translate(-18.32 2.21)"/><path d="M122.59,990.67,121.8,992l-11.07-6.39.79-1.37Z" transform="translate(-18.32 2.21)"/><path d="M111.89,988.72l.93.54-4.64,8-.94-.54Zm3.06,1.77.93.54-4.64,8.05-.94-.54Z" transform="translate(-18.32 2.21)"/><path d="M106.53,998l.93.54-4.64,8.05-.94-.54Zm3,1.77.94.54-4.64,8-.94-.54Z" transform="translate(-18.32 2.21)"/><path d="M101.16,1007.32l.93.54-4.64,8-.94-.55Zm3,1.76.94.54-4.65,8-.93-.54Z" transform="translate(-18.32 2.21)"/><path d="M96.39,1018.64a2.79,2.79,0,0,0-4.11,1.08,5.7,5.7,0,0,0-.82,2.31l-1.12-.33a7.08,7.08,0,0,1,1-2.78,4.06,4.06,0,0,1,6-1.52c2.28,1.32,3.3,3.69,2,5.89-1.42,2.47-4,1.87-5.36,1.07a5,5,0,0,1-.61-.42Zm-1.34,4.59a2.26,2.26,0,0,0,3.33-.61,2.64,2.64,0,0,0-1-3.4Z" transform="translate(-18.32 2.21)"/><path d="M99.77,1031.66l-15.59-9,.6-1,15.6,9Z" transform="translate(-18.32 2.21)"/><path d="M97.62,1035.39l-15.6-9,.61-1,15.59,9Z" transform="translate(-18.32 2.21)"/><path d="M91.73,1036l-5.1-1a19.25,19.25,0,0,1-2.28-.51l0,0c.53.53,1,1.11,1.57,1.76l3.39,3.91-.83,1.44-5.83-7.32.75-1.31,9.21,1.48Z" transform="translate(-18.32 2.21)"/><path d="M80.15,1047.5a4.26,4.26,0,0,1-1.83-6.08,4.14,4.14,0,0,1,6-1.37c2.52,1.46,3,4,1.84,6S82.46,1048.83,80.15,1047.5Zm3.38-6c-1.65-1-3.45-.72-4.22.62s-.09,3,1.61,4c1.28.73,3.27,1,4.2-.59S85,1042.29,83.53,1041.46Z" transform="translate(-18.32 2.21)"/><path d="M75.32,1047l7.54,4.36-.79,1.37-7.55-4.36Zm8.78,7.11a1,1,0,0,1,1-1.7,1,1,0,0,1,.37,1.35A.94.94,0,0,1,84.1,1054.13Z" transform="translate(-18.32 2.21)"/><path d="M80.52,1063.58l-9.13-5.26c-.67-.39-1.44-.81-2-1.06l.71-1.24,1.35.7v0a3.23,3.23,0,0,1,0-3.43c1.05-1.83,3.41-2.34,5.7-1,2.52,1.44,3.16,3.89,2.1,5.73a2.92,2.92,0,0,1-2.47,1.61l0,0,4.51,2.6Zm-5.81-5.18a2.65,2.65,0,0,0,.62.27,2.31,2.31,0,0,0,2.73-1.06c.82-1.42.06-3-1.61-3.94s-3.22-.86-4.08.62a2.37,2.37,0,0,0,.48,3,2.63,2.63,0,0,0,.55.41Z" transform="translate(-18.32 2.21)"/><path d="M67.77,1072.05c-3.45-2-4.61-4.36-3.31-6.61,1.14-2,3.77-2.25,7.14-.34s4.43,4.51,3.24,6.56S71,1073.92,67.77,1072.05Zm3-5.59c-2.63-1.52-4.6-1.58-5.32-.33-.81,1.41.44,3,3,4.52s4.5,1.74,5.32.32C74.51,1069.77,73.55,1068.05,70.79,1066.46Z" transform="translate(-18.32 2.21)"/><path d="M64.1,1071.54l.93.54-4.64,8.05-.94-.55Zm3.05,1.76.94.54-4.65,8.05-.93-.54Z" transform="translate(-18.32 2.21)"/><path d="M58.74,1080.83l.93.54-4.64,8-.94-.54Zm3,1.76.94.54-4.65,8-.93-.54Z" transform="translate(-18.32 2.21)"/><path d="M53.37,1090.12l.94.54-4.65,8-.93-.54Zm3.06,1.77.94.54-4.65,8-.94-.54Z" transform="translate(-18.32 2.21)"/><path d="M48.59,1101.47a2.79,2.79,0,0,0-4.11,1.07,5.73,5.73,0,0,0-.82,2.32l-1.11-.34a6.92,6.92,0,0,1,1-2.78,4,4,0,0,1,5.94-1.51c2.28,1.31,3.3,3.69,2,5.89-1.42,2.46-4,1.86-5.35,1.06a7.36,7.36,0,0,1-.62-.41Zm-1.34,4.59a2.26,2.26,0,0,0,3.33-.62,2.62,2.62,0,0,0-1-3.39Z" transform="translate(-18.32 2.21)"/><path d="M39.6,1104.54a12.21,12.21,0,0,0,5.25,5.65,11.94,11.94,0,0,0,7.46,1.69l-.61,1.06a11.51,11.51,0,0,1-7.53-1.62,11.7,11.7,0,0,1-5.18-5.71Z" transform="translate(-18.32 2.21)"/><path d="M47.22,1118.16l-2.17-1.26-1.14,2-1-.6,1.13-2L39.93,1114c-.93-.54-1.62-.58-2.06.18a3.85,3.85,0,0,0-.36.85l-1.07-.53a3.92,3.92,0,0,1,.52-1.32,2.2,2.2,0,0,1,1.43-1.15,3.22,3.22,0,0,1,2.27.6l4.12,2.38.67-1.17,1,.6-.68,1.17,1.81,1Z" transform="translate(-18.32 2.21)"/><path d="M46.55,1122.44l-.79,1.38-4.71-2.72,0,0a2.86,2.86,0,0,1,.4,1.54,3.25,3.25,0,0,1-.42,1.63c-.58,1-2.14,2.27-4.75.77l-4.49-2.59.79-1.38,4.34,2.51c1.21.7,2.5.84,3.25-.45a2.27,2.27,0,0,0-.31-2.64,2,2,0,0,0-.6-.47l-4.55-2.63.79-1.37Z" transform="translate(-18.32 2.21)"/><path d="M35.67,1127.72c.89.51,1.66.94,2.39,1.3l-.69,1.2-1.51-.81,0,.06a2.61,2.61,0,0,1,.45,3,1.86,1.86,0,0,1-.27.37l-1.3-.75a2,2,0,0,0,.32-.44,2.22,2.22,0,0,0-.7-2.86,5.19,5.19,0,0,0-.6-.43l-4-2.32.79-1.36Z" transform="translate(-18.32 2.21)"/><path d="M27.51,1138.71a4.25,4.25,0,0,1-1.83-6.07,4.14,4.14,0,0,1,6-1.37,4.26,4.26,0,0,1,1.85,6C32.24,1139.49,29.82,1140.05,27.51,1138.71Zm3.38-6c-1.65-1-3.45-.72-4.22.62s-.09,3,1.61,4c1.28.74,3.27,1,4.2-.58S32.33,1133.51,30.89,1132.68Z" transform="translate(-18.32 2.21)"/><path d="M30,1143l-4.41-1.22c-1-.27-1.87-.52-2.73-.83l0,0c.66.61,1.33,1.33,2,2l3.15,3.45-.67,1.16-4.45-1c-1.07-.24-2-.48-2.85-.75l0,0a28.87,28.87,0,0,1,2.12,2l3.17,3.27-.79,1.35-6.14-6.79.72-1.24,4.27.92c1,.22,1.87.44,2.86.76l0,0a27.9,27.9,0,0,1-2.1-2.12l-2.88-3.29.72-1.25,8.86,2.08Z" transform="translate(-18.32 2.21)"/></svg>